<svg width="320" height="214" viewBox="0 0 320 214" fill="none" xmlns="http://www.w3.org/2000/svg">
<g clip-path="url(#clip0_10656_18284)">
<path fill-rule="evenodd" clip-rule="evenodd" d="M215.892 205.941C215.572 204.092 215.538 202.451 215.289 199.606H210.459C211.028 201.242 211.198 203.487 209.065 204.661L211.305 206.83L213.829 207.398L215.892 205.941Z" fill="#FFC0AD"/>
<path fill-rule="evenodd" clip-rule="evenodd" d="M209.1 204.661C206.149 206.296 202.095 205.549 201.918 209.07H216.496C216.603 208.074 216.283 206.83 215.892 205.941C213.083 206.581 210.771 206.403 209.1 204.661Z" fill="#0F9DF0"/>
<path fill-rule="evenodd" clip-rule="evenodd" d="M230.219 199.606C230.397 201.029 230.186 203.025 229.795 204.554C230.47 205.514 231.608 206.083 232.781 206.047C233.955 206.012 235.057 205.443 235.733 204.447C235.27 202.918 235.382 200.922 235.489 199.606H230.219Z" fill="#FFC0AD"/>
<path fill-rule="evenodd" clip-rule="evenodd" d="M229.794 204.554C229.154 205.869 228.834 207.754 229.012 209.07H236.23C236.301 207.505 236.373 206.118 235.697 204.483C234.061 205.229 231.679 205.692 229.794 204.554Z" fill="#0F9DF0"/>
<path fill-rule="evenodd" clip-rule="evenodd" d="M198.274 157.693C197.136 168.218 205.03 186.992 210.292 199.828H215.412L211.821 164.484L219.679 143.079L230.24 199.828H235.502L236.806 131.103L226.755 125.833L206.507 128.907L198.274 157.693Z" fill="#F9BB40"/>
<path fill-rule="evenodd" clip-rule="evenodd" d="M234.171 130.664L236.806 131.103L235.322 188.261L234.171 130.664Z" fill="#E69900"/>
<path fill-rule="evenodd" clip-rule="evenodd" d="M215.714 141.333L219.483 143.538L211.625 164.943L214.86 196.731L209.349 169.068C208.816 165.263 209.278 163.485 209.953 160.605L215.714 141.333Z" fill="#E69900"/>
<path fill-rule="evenodd" clip-rule="evenodd" d="M170.191 111.756L172.527 116.189C181.684 117.861 203.423 124.577 208.307 112.659L198.592 99.6523C196.15 107.775 195.646 107.722 190.443 108.863C183.728 110.403 173.482 111.013 170.191 111.756Z" fill="#33A66B"/>
<path fill-rule="evenodd" clip-rule="evenodd" d="M172.527 116.216L171.624 111.783C168.943 112.154 165.572 112.181 164.511 113.827C162.334 112.606 158.538 111.279 157.025 112.632C164.696 119.295 163.9 113.906 172.527 116.216Z" fill="#FFC0AD"/>
<path fill-rule="evenodd" clip-rule="evenodd" d="M171.359 110.642L140.064 110.748C138.817 110.748 137.808 109.739 137.808 108.492L140.675 87.4161C140.675 86.1685 141.683 85.1599 142.931 85.1599L174.225 85.0537C175.473 85.0537 176.482 86.0624 176.482 87.3099L173.615 108.385C173.588 109.633 172.58 110.642 171.359 110.642Z" fill="#E3F1FF"/>
<path fill-rule="evenodd" clip-rule="evenodd" d="M176.482 87.3099L173.615 108.385C173.615 109.633 172.606 110.642 171.359 110.642H172.659C173.907 110.642 174.916 109.633 174.916 108.385L177.782 87.3099C177.782 86.0624 176.774 85.0537 175.526 85.0537H174.225C175.446 85.0537 176.455 86.0624 176.482 87.3099Z" fill="#9E9E9E"/>
<path fill-rule="evenodd" clip-rule="evenodd" d="M157.45 110.695L122.758 110.827C121.723 110.827 120.9 111.677 120.9 112.685V113.959L157.45 113.827V110.695Z" fill="#B3B3B4"/>
<path fill-rule="evenodd" clip-rule="evenodd" d="M174.624 110.642L156.309 110.695C155.274 110.695 154.451 111.544 154.451 112.553V113.827L174.624 113.774V110.642Z" fill="#9E9E9E"/>
<path fill-rule="evenodd" clip-rule="evenodd" d="M194.372 88.3712C192.248 97.3694 197.026 110.35 206.502 129.275L232.328 130.947L239.575 131.398L240.849 131.876C240.849 131.106 240.743 130.841 240.106 130.443C228.161 122.559 220.437 105.306 215.686 92.5651C212.421 83.2484 196.522 78.6298 194.372 88.3712Z" fill="#41C380"/>
<path fill-rule="evenodd" clip-rule="evenodd" d="M236.806 132.859V131.223L239.574 131.398C241.485 131.531 240.875 132.221 239.84 132.407L236.806 132.859Z" fill="#0A82C7"/>
<path fill-rule="evenodd" clip-rule="evenodd" d="M191.399 62.8907C201.299 62.7845 204.272 66.9252 200.317 75.3395C197.185 80.7012 184.736 85.5852 185.373 74.6759C184.604 74.4635 184.152 74.2777 183.515 73.8796C187.364 71.4111 186.541 65.8635 191.399 62.8907Z" fill="#FFC0AD"/>
<path fill-rule="evenodd" clip-rule="evenodd" d="M191.293 76.0557C192.248 76.4273 198.831 75.8168 198.433 78.4711C199.574 80.0107 201.352 82.2668 202.786 82.9835C201.406 84.0718 197.53 85.5582 194.212 86.3545C192.938 84.1779 190.709 79.1347 191.293 76.0557Z" fill="#FFC0AD"/>
<path fill-rule="evenodd" clip-rule="evenodd" d="M194.903 71.0387C196.654 68.119 198.937 68.756 199.415 70.2158C199.654 70.9856 199.229 71.9677 198.247 72.8437C195.778 74.9671 194.425 80.3023 200.291 80.5146C199.654 78.0461 203.423 75.2325 205.148 72.0208C206.661 69.1807 206.316 65.8893 202.865 64.4029C202.839 59.4924 191.425 62.0405 194.159 56.5726C185.055 50.8658 175.871 65.8893 192.726 67.9332C195.46 68.2517 193.124 71.4103 194.903 71.0387Z" fill="#333333"/>
<path fill-rule="evenodd" clip-rule="evenodd" d="M195.619 72.4989C195.566 71.623 196.283 70.7205 197.026 70.2958C198.379 69.5526 199.017 70.9329 197.504 71.9681C196.973 72.3397 196.283 72.5786 195.619 72.4989Z" fill="#FFAD95"/>
<path fill-rule="evenodd" clip-rule="evenodd" d="M191.903 81.0197L192.513 82.7185C194.239 81.7894 194.982 80.8074 195.327 79.2148C194.186 80.303 193.204 80.6746 191.903 81.0197Z" fill="#FFAD95"/>
<path fill-rule="evenodd" clip-rule="evenodd" d="M190.443 75.3389C190.656 77.5154 188.771 78.0198 187.205 76.6395C188.479 76.5334 189.753 76.0025 190.443 75.3389Z" fill="white"/>
<path fill-rule="evenodd" clip-rule="evenodd" d="M196.123 105.174C195.911 104.484 195.38 102.679 195.168 101.882C198.937 101.059 201.91 99.8381 204.033 98.1924C202.494 101.298 199.813 103.873 196.123 105.174Z" fill="#33A66B"/>
<path fill-rule="evenodd" clip-rule="evenodd" d="M234.529 131.045L235.05 133.738C229.741 132.888 220.169 131.257 208.702 129.346C220.965 130.169 229.565 130.727 234.529 131.045Z" fill="#E69900"/>
<path fill-rule="evenodd" clip-rule="evenodd" d="M67.6804 30.2422H38.881C38.0847 30.2422 37.3414 30.5607 36.8106 31.0916C36.2797 31.6225 35.9612 32.3657 35.9612 33.162V49.3003C35.9612 50.0966 36.2797 50.8398 36.8106 51.3706C37.3414 51.9015 38.0847 52.2466 38.881 52.2466H62.8495L70.6002 60.2361V33.162C70.6002 32.3657 70.2816 31.6225 69.7242 31.0916C69.2199 30.5873 68.4767 30.2422 67.6804 30.2422Z" fill="#9ED8FA"/>
<path fill-rule="evenodd" clip-rule="evenodd" d="M82.0934 14.3423H117.555C118.537 14.3423 119.466 14.7405 120.103 15.4041C120.767 16.0676 121.165 16.9701 121.165 17.9522V37.8331C121.165 38.8152 120.767 39.7443 120.103 40.3813C119.44 41.0449 118.537 41.443 117.555 41.443H88.0391L78.4836 51.2906V17.9522C78.4836 16.9701 78.8817 16.0676 79.5453 15.4041C80.1823 14.7405 81.0848 14.3423 82.0934 14.3423Z" fill="#9ED8FA"/>
<path fill-rule="evenodd" clip-rule="evenodd" d="M68.4766 2H47.587C47.003 2 46.4722 2.23893 46.074 2.63708C45.6759 3.03523 45.437 3.56608 45.437 4.15003V15.8556C45.437 16.4396 45.6759 16.9704 46.074 17.3686C46.4722 17.7667 47.003 18.0056 47.587 18.0056H64.9728L70.6001 23.792V4.15003C70.6001 3.56608 70.3611 3.03523 69.963 2.63708C69.5914 2.23893 69.0606 2 68.4766 2Z" fill="#E3F1FF"/>
<path d="M60.8853 4.89307H62.7699L53.6921 15.3246H51.781L60.8853 4.89307Z" fill="#F9BB40"/>
<path d="M60.2483 11.6353C60.8322 11.6353 61.31 12.1131 61.31 12.697C61.31 13.281 60.8322 13.7588 60.2483 13.7588C59.6643 13.7588 59.1866 13.281 59.1866 12.697C59.1866 12.1131 59.6643 11.6353 60.2483 11.6353ZM60.2483 10.2285C58.8946 10.2285 57.7798 11.3433 57.7798 12.697C57.7798 14.0507 58.8946 15.1656 60.2483 15.1656C61.602 15.1656 62.7168 14.0507 62.7168 12.697C62.7168 11.3168 61.602 10.2285 60.2483 10.2285Z" fill="#F9BB40"/>
<path d="M54.3822 6.29987C54.9661 6.29987 55.4439 6.77765 55.4439 7.36161C55.4439 7.94556 54.9661 8.42334 54.3822 8.42334C53.7982 8.42334 53.3204 7.94556 53.3204 7.36161C53.347 6.77765 53.7982 6.29987 54.3822 6.29987ZM54.3822 4.89307C53.0285 4.89307 51.9136 6.0079 51.9136 7.36161C51.9136 8.71531 53.0285 9.83008 54.3822 9.83008C55.7359 9.83008 56.8507 8.71531 56.8507 7.36161C56.8507 6.0079 55.7624 4.89307 54.3822 4.89307Z" fill="#F9BB40"/>
<path d="M101.921 27.6408C102.426 27.5877 102.85 27.4285 103.222 27.2161C104.018 26.6852 104.39 25.8624 104.337 24.8272C104.31 24.4291 104.231 24.1371 104.071 23.7921C103.939 23.5266 103.806 23.3408 103.567 23.1285C103.116 22.7038 102.585 22.4649 101.868 22.4118C101.709 22.4118 101.019 22.3852 99.7182 22.3852H97.7805V27.6408H99.7713C101.019 27.6674 101.815 27.6674 101.921 27.6408ZM95.312 36.4267C95.2324 36.4001 95.1262 36.3205 95.0996 36.2408C95.0731 36.1877 95.0731 36.1081 95.0731 34.9933V33.8254H93.7194C92.233 33.8254 92.286 33.8254 92.1799 33.7192C92.1533 33.6927 92.1268 33.6396 92.1003 33.6131C92.0737 33.56 92.0737 33.5069 92.0737 32.684C92.0737 31.9408 92.0737 31.8081 92.1003 31.755C92.1268 31.6754 92.1799 31.6223 92.2595 31.5692C92.3391 31.5427 92.3392 31.5427 93.6929 31.5162H95.0731V30.1359H92.3392L92.2595 30.0828C92.2064 30.0563 92.1533 30.0032 92.1268 29.9766L92.0737 29.897V28.9149C92.0737 27.8001 92.0737 27.8266 92.1799 27.7205C92.2064 27.6939 92.286 27.6408 92.3126 27.6408C92.3391 27.6408 92.87 27.6143 93.7194 27.6143H95.0731V23.8717C95.0731 20.2618 95.0731 20.1291 95.0996 20.0494C95.1262 19.9698 95.2324 19.8902 95.312 19.8636C95.3916 19.8371 101.921 19.8371 102.266 19.8636C103.302 19.9433 104.178 20.2087 104.921 20.713C105.239 20.9254 105.399 21.0581 105.691 21.3501C106.328 21.9871 106.752 22.7038 106.965 23.5797C107.097 24.1106 107.124 24.4556 107.124 25.1192C107.124 25.4377 107.097 25.6767 107.097 25.8094C106.938 26.9773 106.487 27.9063 105.664 28.7026C105.292 29.0742 104.894 29.3396 104.443 29.5785C103.912 29.8439 103.408 30.0032 102.691 30.1094C102.426 30.1359 102.373 30.1359 100.116 30.1624H97.8071V31.5427H100.833H103.859L103.939 31.5957C103.992 31.6223 104.045 31.6754 104.071 31.702L104.124 31.7816V32.631C104.124 33.2149 104.124 33.5069 104.098 33.56C104.071 33.6396 103.992 33.7193 103.912 33.7723C103.859 33.7989 103.647 33.7989 100.833 33.7989H97.8071V34.9933C97.8071 36.0816 97.8071 36.1877 97.7805 36.2408C97.754 36.3205 97.6478 36.4001 97.5682 36.4001C97.4354 36.4532 95.3916 36.4532 95.312 36.4267Z" fill="white"/>
<path d="M43.2339 40.3284H45.9413V37.4883H47.9055V40.3284H50.6395V42.1599H47.9055V45.0266H45.9413V42.1599H43.2339V40.3284Z" fill="#ED705D"/>
<path d="M53.7185 38.709H61.124V40.567H53.7185V38.709ZM53.7185 41.8941H61.124V43.7257H53.7185V41.8941Z" fill="#ED705D"/>
<path fill-rule="evenodd" clip-rule="evenodd" d="M149.646 91.875H160.662H171.677C172.5 91.875 173.084 92.5386 172.951 93.3614C172.819 94.1843 172.049 94.8478 171.226 94.8478H160.211H149.195C148.372 94.8478 147.788 94.1843 147.921 93.3614C148.054 92.5386 148.823 91.875 149.646 91.875Z" fill="white"/>
<path fill-rule="evenodd" clip-rule="evenodd" d="M148.956 96.627H159.972H170.987C171.81 96.627 172.394 97.2905 172.261 98.1134C172.128 98.9362 171.359 99.5999 170.536 99.5999H159.52H148.505C147.682 99.5999 147.098 98.9362 147.231 98.1134C147.364 97.2905 148.133 96.627 148.956 96.627Z" fill="white"/>
<path fill-rule="evenodd" clip-rule="evenodd" d="M148.266 101.272H159.282H170.297C171.12 101.272 171.704 101.935 171.571 102.758C171.438 103.581 170.669 104.245 169.846 104.245H158.83H147.815C146.992 104.245 146.408 103.581 146.541 102.758C146.673 101.935 147.443 101.272 148.266 101.272Z" fill="white"/>
<path fill-rule="evenodd" clip-rule="evenodd" d="M144.895 91.875C145.718 91.875 146.302 92.5386 146.169 93.3614C146.036 94.1843 145.293 94.8478 144.444 94.8478C143.621 94.8478 143.037 94.1843 143.17 93.3614C143.303 92.5386 144.072 91.875 144.895 91.875Z" fill="#F9BB40"/>
<path fill-rule="evenodd" clip-rule="evenodd" d="M144.205 96.627C145.028 96.627 145.612 97.2905 145.479 98.1134C145.346 98.9362 144.603 99.5999 143.754 99.5999C142.931 99.5999 142.347 98.9362 142.48 98.1134C142.612 97.2905 143.382 96.627 144.205 96.627Z" fill="#55B27A"/>
<path fill-rule="evenodd" clip-rule="evenodd" d="M143.541 101.272C144.364 101.272 144.948 101.935 144.815 102.758C144.683 103.581 143.94 104.245 143.117 104.245C142.294 104.245 141.71 103.581 141.843 102.758C141.949 101.935 142.719 101.272 143.541 101.272Z" fill="#EF6B57"/>
<path fill-rule="evenodd" clip-rule="evenodd" d="M156.707 96.8657C156.388 95.2466 156.229 94.5299 155.804 92.3799C145.32 95.6978 146.541 102.095 145.081 110.721C146.541 110.482 147.39 107.908 147.523 106.607C148.319 107.642 149.222 108.624 150.283 109.527C151.319 108.146 148.744 106.793 148.85 104.192C149.407 105.253 150.071 105.943 150.947 106.448C152.194 105.678 150.39 104.192 150.443 102.811C151.265 102.307 152.248 100.927 151.664 99.2546C152.832 97.9009 154.398 96.8126 156.707 96.8657Z" fill="#FFC0AD"/>
<path fill-rule="evenodd" clip-rule="evenodd" d="M155.804 92.3802C156.309 94.9018 156.309 94.955 156.707 96.8661C173.695 99.1488 183.648 103.608 202.494 101.298C211.545 93.0438 208.44 83.7803 197.929 85.2667C188.293 88.9297 166.262 88.5845 155.804 92.3802Z" fill="#41C380"/>
<path d="M169.985 132.609C169.25 131.792 169.315 130.534 170.132 129.799C170.948 129.064 172.206 129.13 172.941 129.946C173.677 130.763 173.611 132.021 172.794 132.756C171.978 133.491 170.72 133.425 169.985 132.609Z" fill="#53B57E"/>
<path d="M47.1677 100.992C46.4326 100.175 46.4985 98.9171 47.315 98.1819C48.1315 97.4467 49.3894 97.5126 50.1245 98.3291C50.8597 99.1456 50.7937 100.404 49.9772 101.139C49.1607 101.874 47.9029 101.808 47.1677 100.992Z" fill="#53B57E"/>
<path d="M163.349 138.584C162.614 137.767 162.68 136.509 163.496 135.774C164.313 135.039 165.571 135.105 166.306 135.921C167.041 136.738 166.975 137.996 166.159 138.731C165.342 139.466 164.084 139.4 163.349 138.584Z" fill="#53B57E"/>
<path d="M40.532 106.967C39.7968 106.15 39.8628 104.892 40.6793 104.157C41.4958 103.422 42.7537 103.488 43.4888 104.304C44.224 105.121 44.158 106.379 43.3415 107.114C42.525 107.849 41.2671 107.783 40.532 106.967Z" fill="#53B57E"/>
<path d="M168.616 189.608C167.518 189.565 166.663 188.64 166.706 187.542C166.749 186.444 167.674 185.589 168.772 185.632C169.87 185.675 170.725 186.6 170.682 187.698C170.639 188.796 169.714 189.651 168.616 189.608Z" fill="#53B57E"/>
<path d="M259.954 172.921C258.856 172.878 258.001 171.953 258.044 170.855C258.086 169.758 259.011 168.902 260.109 168.945C261.207 168.988 262.062 169.913 262.019 171.011C261.976 172.109 261.051 172.964 259.954 172.921Z" fill="#53B57E"/>
<path d="M136.35 162.459C134.802 164.048 134.836 166.6 136.425 168.148C138.014 169.695 140.566 169.662 142.114 168.072C143.662 166.483 143.628 163.931 142.038 162.383C140.449 160.836 137.897 160.869 136.35 162.459ZM134.827 160.976C137.196 158.544 141.089 158.492 143.521 160.861C145.953 163.23 146.005 167.122 143.636 169.555C141.267 171.987 137.375 172.039 134.942 169.67C132.51 167.301 132.459 163.409 134.827 160.976Z" fill="#F9BB40"/>
<path d="M288.811 193.887C287.264 195.476 287.297 198.028 288.887 199.576C290.476 201.123 293.028 201.09 294.576 199.5C296.123 197.911 296.09 195.359 294.5 193.811C292.911 192.264 290.359 192.297 288.811 193.887ZM287.289 192.404C289.658 189.972 293.55 189.92 295.983 192.289C298.415 194.658 298.467 198.55 296.098 200.983C293.729 203.415 289.837 203.467 287.404 201.098C284.972 198.729 284.92 194.837 287.289 192.404Z" fill="#0F9DF0"/>
<path d="M227.687 29.8428C226.139 31.4321 226.173 33.984 227.762 35.5318C229.352 37.0796 231.903 37.0458 233.451 35.4565C234.999 33.8672 234.965 31.3153 233.376 29.7675C231.787 28.2197 229.235 28.2535 227.687 29.8428ZM226.165 28.3605C228.534 25.9281 232.426 25.8766 234.858 28.2454C237.291 30.6142 237.342 34.5065 234.973 36.9389C232.605 39.3712 228.712 39.4227 226.28 37.0539C223.848 34.6852 223.796 30.7928 226.165 28.3605Z" fill="#F9BB40"/>
<path d="M261.89 66.9902L260.653 69.0231L259.989 71.632L259.327 69.2001L258.088 67.0341L255.259 68.5814L256.586 70.8803L258.708 72.7803L255.834 72.0737H253.314V75.3001H255.745L258.442 74.5935L256.232 76.6716L255.126 78.5276L257.956 80.1639L259.15 78.1298L260.033 75.3001L260.608 77.865L261.89 80.0309L264.72 78.3946L263.438 76.2287L261.449 74.5935L263.879 75.3001H266.488V72.0298H263.835L261.226 72.7803L263.481 70.8352L264.72 68.6253L261.89 66.9902Z" fill="#ED6C58"/>
<path d="M31.0888 162.72L29.8515 164.753L29.1877 167.362L28.5251 164.93L27.2865 162.764L24.458 164.311L25.7844 166.61L27.9064 168.51L25.0327 167.803H22.5129V171.03H24.9437L27.6404 170.323L25.4305 172.401L24.325 174.257L27.1547 175.894L28.3481 173.859L29.2316 171.03L29.8063 173.595L31.0888 175.761L33.9185 174.124L32.6361 171.958L30.6471 170.323L33.0778 171.03H35.6867V167.759H33.0339L30.425 168.51L32.68 166.565L33.9185 164.355L31.0888 162.72Z" fill="#ED6C58"/>
<path fill-rule="evenodd" clip-rule="evenodd" d="M159.52 208.507C237.133 208.507 300.04 209.781 300.04 211.373C300.04 212.966 237.133 214.24 159.52 214.24C81.9076 214.24 19 212.966 19 211.373C19.0265 209.807 81.9341 208.507 159.52 208.507Z" fill="#83CCF7"/>
<path fill-rule="evenodd" clip-rule="evenodd" d="M90.6936 55.1929C95.551 56.467 98.4176 55.7503 99.559 54.317C98.2318 53.4942 97.1967 52.9102 96.4534 52.5386C94.4892 51.5565 92.2065 53.9189 90.6936 55.1929Z" fill="#FFC0AD"/>
<path fill-rule="evenodd" clip-rule="evenodd" d="M122.625 81.1252C135.525 70.6406 109.858 58.7227 101.072 55.1924C100.435 55.9622 99.7449 56.9708 99.0017 58.1918C103.859 63.5536 108.637 71.8616 115.565 74.4894L122.625 81.1252Z" fill="#EF6B57"/>
<path fill-rule="evenodd" clip-rule="evenodd" d="M95.0732 78.5508C97.3294 84.3107 100.116 88.823 101.948 90.5218C107.628 89.3539 114.901 86.0891 122.36 81.3644C130.137 75.286 118.113 69.2607 115.777 74.1446C110.415 77.8607 100.621 76.1619 95.0732 78.5508Z" fill="#EF6B57"/>
<path fill-rule="evenodd" clip-rule="evenodd" d="M108.265 134.982H73.3077C72.9361 115.632 87.6941 109.022 77.7139 85.7965C81.0318 81.0453 89.2868 78.4971 95.0732 78.5236C98.5769 78.5502 100.116 80.1958 103.169 83.7526C109.99 91.7156 104.522 97.9268 104.522 107.35C104.549 114.331 106.911 118.604 107.947 130.31C108.106 131.85 108.212 133.389 108.265 134.982Z" fill="#EF6B57"/>
<path fill-rule="evenodd" clip-rule="evenodd" d="M91.4634 73.6934C93.9054 74.1446 95.79 74.6489 97.1172 75.1798C96.5598 76.9582 96.3474 78.8693 96.7456 80.3026C96.082 83.4082 91.3838 84.0452 88.7295 82.2403C90.0832 77.5687 91.0122 74.7285 91.4634 73.6934Z" fill="#FFC0AD"/>
<path fill-rule="evenodd" clip-rule="evenodd" d="M84.5887 206.967C85.6239 206.994 86.5795 206.489 87.19 205.666C87.4819 207.1 87.6677 208.427 87.535 209.568H81.5893C81.5097 208.188 81.8016 206.994 82.0405 205.56C82.6245 206.436 83.5535 206.941 84.5887 206.967Z" fill="#EF6B57"/>
<path fill-rule="evenodd" clip-rule="evenodd" d="M96.3474 209.568C96.0554 207.737 95.206 205.72 95.9227 204.525C98.2319 206.383 100.621 207.047 103.142 206.489C105.107 207.445 107.442 208.029 107.655 209.568H101.099C99.506 209.568 98.5239 208.241 97.6746 207.604L97.7541 209.568H96.3474Z" fill="#EF6B57"/>
<path fill-rule="evenodd" clip-rule="evenodd" d="M103.142 206.489C100.621 207.047 98.2319 206.383 95.9226 204.525C96.7454 203.41 96.2942 201.366 96.0288 199.137H100.647C100.435 202.508 99.6652 204.791 103.142 206.489Z" fill="#FFC0AD"/>
<path fill-rule="evenodd" clip-rule="evenodd" d="M86.3935 199.163C86.2608 201.393 86.7917 203.623 87.1898 205.666C86.5793 206.489 85.6238 206.994 84.5886 206.967C83.5534 206.941 82.6244 206.436 82.0404 205.587C82.412 203.304 82.3589 201.446 81.9873 199.163H86.3935Z" fill="#FFC0AD"/>
<path fill-rule="evenodd" clip-rule="evenodd" d="M86.3934 199.163H81.9872C81.6422 197.067 81.1113 195.288 80.607 193.722C77.1829 182.76 79.5983 173.974 79.1471 162.932C78.6693 151.253 73.5199 145.732 73.3076 135.008V134.982H108.265C108.504 142.069 108 149.873 107.124 157.676C105.451 172.514 101.39 185.945 100.647 199.163H96.0286C94.8872 189.608 91.3039 177.557 95.5243 165.188C94.8076 159.428 93.2681 151.545 91.8613 139.653C91.5959 145.042 91.2774 152.182 90.9058 161.047C90.0564 173.576 87.349 186.502 86.4199 199.004C86.3934 199.031 86.3934 199.11 86.3934 199.163Z" fill="#3EA4E0"/>
<path fill-rule="evenodd" clip-rule="evenodd" d="M101.868 59.4665C92.3659 55.8035 87.9862 58.7499 88.8091 68.2789C89.2869 70.9598 89.685 72.5789 92.2332 74.5431C99.6919 80.7808 104.337 73.2159 103.939 66.7128C103.806 64.5097 104.018 62.227 101.868 59.4665Z" fill="#FFC0AD"/>
<path fill-rule="evenodd" clip-rule="evenodd" d="M92.0737 67.4026C92.2595 67.8008 92.4984 68.3316 92.9231 68.6502C93.0027 68.252 92.8966 67.6681 92.7904 67.2169C92.2861 65.1996 91.4101 65.9162 92.0737 67.4026Z" fill="#FFAD95"/>
<path fill-rule="evenodd" clip-rule="evenodd" d="M79.9435 134.982L76.4132 136.282C72.6972 131.584 68.0521 123.382 65.5305 117.224C63.0885 111.252 63.1416 106.979 64.7873 103.316C67.7601 96.6007 73.2015 88.3457 78.7225 83.4883C83.5268 87.6025 86.5527 90.6019 87.8003 92.4599C82.9428 99.4674 78.1916 105.492 73.3077 109.633C77.183 120.489 78.2447 130.761 79.9435 134.982Z" fill="#EF6B57"/>
<path fill-rule="evenodd" clip-rule="evenodd" d="M86.3138 58.5371C83.5268 64.7217 76.0681 58.9087 73.4669 68.0396C76.5459 65.9427 79.4657 67.6149 81.8015 67.4026C81.2972 67.7477 80.1558 67.615 78.8021 67.615C71.1842 67.5619 68.1317 75.5779 73.228 81.0193C73.2545 77.8607 74.8737 74.5162 78.4039 72.7113C73.4934 76.6131 71.1045 88.0798 81.9076 93.6539C77.873 83.594 89.207 81.8422 91.4898 73.7199C93.0824 67.8273 87.7472 60.6606 86.3138 58.5371Z" fill="#333333"/>
<path fill-rule="evenodd" clip-rule="evenodd" d="M93.5602 66.4473C93.1089 65.1467 92.3126 64.722 91.7022 64.9078C90.2157 65.4121 91.0916 67.5622 91.6756 68.4647C92.6046 69.898 93.1886 71.4375 93.2947 73.0301C93.6664 78.8961 84.562 88.3986 95.3916 94.3178C88.1453 96.9721 79.4922 94.6363 76.0681 88.4783C75.3249 86.461 80.262 87.3104 80.5274 84.3906C81.2441 76.5338 84.562 66.7924 85.0928 62.2535C85.9688 54.5559 95.2324 50.8134 101.497 55.3788C105.08 57.9801 106.301 62.8375 103.939 66.6863C102.532 61.9616 97.3293 64.722 94.8608 61.7226C95.1262 64.0053 94.1176 65.4122 93.5602 66.4473Z" fill="#333333"/>
<path fill-rule="evenodd" clip-rule="evenodd" d="M76.5193 136.229C77.4218 137.689 77.2626 138.777 77.5811 140.051L82.1466 136.521C81.4564 135.406 80.7132 135.884 79.97 135.008L76.5193 136.229Z" fill="#FFC0AD"/>
<path fill-rule="evenodd" clip-rule="evenodd" d="M81.1644 101.351C81.1378 104.882 80.2354 108.943 78.4836 113.588C81.0582 109.314 83.3144 104.722 84.1107 99.1748C82.7039 99.4402 81.7218 100.157 81.1644 101.351Z" fill="#DE4A33"/>
<path fill-rule="evenodd" clip-rule="evenodd" d="M109.539 88.1066C108.159 88.664 107.044 89.0621 106.221 89.3541C105.399 86.8856 104.39 85.0276 103.169 83.8066C105.611 84.7887 107.734 86.222 109.539 88.1066Z" fill="#DE4A33"/>
<path fill-rule="evenodd" clip-rule="evenodd" d="M111.291 71.9951C112.618 73.1364 114.131 73.8265 115.352 74.3839C116.388 73.8531 117.21 73.2691 117.847 72.6321C115.565 73.0302 113.362 72.871 111.291 71.9951Z" fill="#DE4A33"/>
<path fill-rule="evenodd" clip-rule="evenodd" d="M73.7324 88.8763C74.2367 88.2658 74.7411 87.6554 75.2985 87.0449C77.5016 91.6368 81.2442 94.3708 86.5528 95.2202C80.6867 95.1937 76.4133 93.0967 73.7324 88.8763Z" fill="#DE4A33"/>
<path fill-rule="evenodd" clip-rule="evenodd" d="M90.5608 83.0361C91.0916 83.1688 91.5959 83.1953 92.0472 83.2219C91.3305 85.3719 90.6935 87.8935 91.1447 90.6009C89.9768 88.8225 89.791 86.2213 90.5608 83.0361Z" fill="#DE4A33"/>
<path fill-rule="evenodd" clip-rule="evenodd" d="M96.7189 76.8259C96.6127 77.516 96.5596 78.0468 96.5596 78.5246C95.2589 77.8079 94.1707 76.6135 93.7725 74.9678C94.5423 75.7641 95.5509 76.3746 96.7189 76.8259Z" fill="#FFAD95"/>
<path fill-rule="evenodd" clip-rule="evenodd" d="M90.5608 83.0361C91.0385 80.9923 92.7373 76.6126 93.0824 75.2324C93.2151 78.3645 92.7373 80.4614 92.0471 83.2484C91.5428 83.2219 91.0916 83.1688 90.5608 83.0361Z" fill="#FFAD95"/>
<path fill-rule="evenodd" clip-rule="evenodd" d="M76.2273 119.507C76.9971 122.613 77.581 125.506 78.1119 128.001C78.6958 130.443 79.3063 132.779 79.9434 134.982C79.1736 131 78.3242 124.789 77.3952 116.375C77.0236 117.41 76.6255 118.445 76.2273 119.507Z" fill="#DE4A33"/>
<path fill-rule="evenodd" clip-rule="evenodd" d="M75.431 134.982C74.7674 134.053 74.0507 133.044 73.3606 131.956C73.3075 132.938 73.281 133.92 73.3075 134.982H75.431Z" fill="#DE4A33"/>
<path fill-rule="evenodd" clip-rule="evenodd" d="M77.3422 138.592C76.9175 139.176 76.4132 139.919 75.8027 140.848C75.8292 140.98 75.8292 141.087 75.8558 141.219C76.3601 140.874 76.9175 140.503 77.6077 140.078C77.4484 139.547 77.4219 139.069 77.3422 138.592Z" fill="#479165"/>
<path fill-rule="evenodd" clip-rule="evenodd" d="M81.5891 135.911C81.7749 136.044 81.9607 136.229 82.1199 136.495C82.6243 136.097 83.049 135.778 83.3144 135.566C82.5977 135.699 82.0138 135.805 81.5891 135.911Z" fill="#479165"/>
<path fill-rule="evenodd" clip-rule="evenodd" d="M75.431 134.982H73.281V135.008C73.4933 145.732 78.6427 151.253 79.1205 162.932C79.3594 168.878 78.7754 174.186 78.7223 179.521C79.147 171.824 81.8279 165.135 80.2088 157.358C78.4835 149.103 75.2452 144.007 75.431 134.982Z" fill="#2B739D"/>
<path fill-rule="evenodd" clip-rule="evenodd" d="M91.8616 139.653C93.2683 151.571 94.7813 159.428 95.5245 165.188C91.7819 176.177 94.1974 186.927 95.5776 195.872C94.7548 186.104 94.914 177.955 96.0288 171.426C96.5862 168.161 96.9313 166.462 97.0375 164.816C97.1702 162.985 97.0375 161.207 96.6659 157.358C96.135 151.89 95.498 145.466 94.7548 138.034C93.7462 138.3 92.764 138.831 91.8616 139.653Z" fill="#2B739D"/>
</g>
<defs>
<clipPath id="clip0_10656_18284">
<rect width="320" height="214" fill="white"/>
</clipPath>
</defs>
</svg>
