<!-- Generator: Adobe Illustrator 21.0.0, SVG Export Plug-In  -->
<svg version="1.1"
	 xmlns="http://www.w3.org/2000/svg" xmlns:xlink="http://www.w3.org/1999/xlink" xmlns:a="http://ns.adobe.com/AdobeSVGViewerExtensions/3.0/"
	 x="0px" y="0px" width="87.3px" height="60.8px" viewBox="0 0 87.3 60.8"
	 style="overflow:scroll;enable-background:new 0 0 87.3 60.8;" xml:space="preserve">
<style type="text/css">
	.st0{fill:#434B4F;}
	.st1{fill:#FFFFFF;}
	.st2{fill:#FFD11D;}
	.st3{fill:#2FBCBC;}
</style>
<defs>
</defs>
<polygon class="st0" points="80.5,60.8 87.3,8.2 23.8,0 16,60.8 "/>
<g>
	<g>
		<g>
			<g>
				<path class="st1" d="M0,41.9c0.6,6.5,6.4,11.4,12.9,10.9c6.5-0.6,11.4-6.4,10.9-12.9c-0.6-6.5-6.4-11.4-12.9-10.9
					C4.3,29.6-0.5,35.4,0,41.9z"/>
				
					<ellipse transform="matrix(0.9964 -8.424482e-02 8.424482e-02 0.9964 -3.388 1.1543)" class="st2" cx="12" cy="40.7" rx="11.4" ry="11.4"/>
			</g>
		</g>
	</g>
	<g>
		<path class="st1" d="M14,44.8l-3,0.2l0.2,2.6l-1.7,0.1l-0.2-2.6l-1.9,0.1l-0.1-1.4l1.9-0.1L9,42.5l-1.9,0.1L7,41.2l1.9-0.1
			l-0.6-6.7l3.4-0.2c1.4-0.1,2.6,0.1,3.5,0.8s1.4,1.6,1.5,2.8c0.1,1.3-0.2,2.3-0.9,3.1c-0.7,0.8-1.9,1.3-3.4,1.4l-1.6,0.1l0.1,1.3
			l3-0.2L14,44.8z M10.6,40.8l1.6-0.1c0.9-0.1,1.6-0.3,2.1-0.8c0.5-0.5,0.7-1.2,0.6-2c-0.1-0.8-0.3-1.4-0.9-1.9
			c-0.6-0.5-1.3-0.6-2.1-0.6l-1.6,0.1L10.6,40.8z"/>
	</g>
</g>
<g>
	<g>
		<g>
			<rect x="23.9" y="29.1" transform="matrix(0.1277 -0.9918 0.9918 0.1277 -8.5818 57.4598)" class="st3" width="9" height="9"/>
			<rect x="21.7" y="45.1" transform="matrix(0.1277 -0.9918 0.9918 0.1277 -26.3347 69.3517)" class="st1" width="9" height="9"/>
		</g>
		<g>
			<rect x="39.2" y="31" transform="matrix(0.1277 -0.9918 0.9918 0.1277 2.9084 74.4237)" class="st3" width="9" height="9"/>
			<rect x="37.1" y="47.1" transform="matrix(0.1277 -0.9918 0.9918 0.1277 -14.8444 86.3158)" class="st1" width="9" height="9"/>
		</g>
		<g>
			<rect x="54.6" y="33" transform="matrix(0.1277 -0.9918 0.9918 0.1277 14.4067 91.3907)" class="st3" width="9" height="9"/>
			<rect x="28.6" y="21.1" transform="matrix(0.1277 -0.9918 0.9918 0.1277 0.1152 51.4049)" class="st1" width="1.3" height="9"/>
			<rect x="44" y="23.1" transform="matrix(0.1277 -0.9918 0.9918 0.1277 11.6054 68.3688)" class="st1" width="1.3" height="9"/>
			<rect x="59.5" y="25" transform="matrix(0.1277 -0.9918 0.9918 0.1277 23.1876 85.4215)" class="st1" width="1.3" height="9"/>
			<rect x="52.6" y="49.1" transform="matrix(0.1277 -0.9918 0.9918 0.1277 -3.3803 103.4687)" class="st1" width="9" height="9"/>
		</g>
		<g>
			<rect x="70.1" y="34.9" transform="matrix(0.1277 -0.9918 0.9918 0.1277 25.9797 108.4396)" class="st3" width="9" height="9"/>
			<rect x="68" y="50.9" transform="matrix(0.1277 -0.9918 0.9918 0.1277 8.3041 120.2725)" class="st3" width="9" height="9"/>
		</g>
	</g>
	
		<rect x="45.7" y="-12.6" transform="matrix(0.1277 -0.9918 0.9918 0.1277 31.1865 67.7281)" class="st1" width="16.8" height="57.5"/>
</g>
</svg>
