<!-- Generator: Adobe Illustrator 21.0.0, SVG Export Plug-In  -->
<svg version="1.1"
	 xmlns="http://www.w3.org/2000/svg" xmlns:xlink="http://www.w3.org/1999/xlink" xmlns:a="http://ns.adobe.com/AdobeSVGViewerExtensions/3.0/"
	 x="0px" y="0px" width="87.4px" height="62.7px" viewBox="0 0 87.4 62.7"
	 style="overflow:scroll;enable-background:new 0 0 87.4 62.7;" xml:space="preserve">
<style type="text/css">
	.st0{fill:#B0B0B0;}
	.st1{fill:#FFFFFF;}
	.st2{fill:#FFD11D;}
	.st3{fill:#F76031;}
	.st4{opacity:0.2;fill:#161D21;}
	.st5{fill:#161D21;}
</style>
<defs>
</defs>
<polygon class="st0" points="78.9,62.7 71.9,18.3 49.1,0 0,7.9 8.7,62.7 "/>
<polygon class="st1" points="78.9,62.7 71.9,18.3 52.5,21.4 49.1,0 0,7.9 8.7,62.7 "/>
<polygon class="st2" points="85.1,62.7 86.4,41.3 86.5,37.9 87.4,22.9 80.8,22.6 80,37.5 79.7,40.9 78.5,62.7 "/>
<g>
	<rect x="0.2" y="3.9" transform="matrix(0.9876 -0.1571 0.1571 0.9876 -0.784 4.0228)" class="st3" width="49.7" height="6.1"/>
	<g>
		<g>
			<polygon class="st3" points="17.7,46.5 17.1,46.6 14.2,47.1 16,58.1 18.8,57.6 19.5,57.5 21.2,57.3 19.4,46.2 			"/>
			<polygon class="st3" points="21.4,32.6 20.7,32.7 19,33 22.8,57 24.5,56.7 25.2,56.6 28,56.2 24.2,32.1 			"/>
			<polygon class="st3" points="31,50.4 30.3,50.5 28.7,50.8 29.4,56 31.1,55.7 31.8,55.6 34.6,55.2 33.8,50 			"/>
			<polygon class="st3" points="36,38 35.3,38.1 33.6,38.4 36.3,54.9 37.9,54.6 38.6,54.5 41.5,54 38.9,37.5 			"/>
			<polygon class="st2" points="43.2,41.4 42.5,41.5 40.8,41.8 42.7,53.8 44.4,53.6 45,53.5 48,53 46,40.9 			"/>
			<polygon class="st2" points="48.6,33.1 48,33.2 46.3,33.5 49.4,52.8 51.1,52.5 51.8,52.5 54.6,52 51.5,32.7 			"/>
			<polygon class="st2" points="54.8,27.2 54.1,27.3 52.5,27.6 56.3,51.7 57.9,51.5 58.6,51.3 61.5,50.9 57.6,26.8 			"/>
			<polygon class="st2" points="61.9,28.5 61.2,28.6 59.6,28.9 63,50.6 64.6,50.4 65.3,50.2 68.2,49.8 64.7,28.1 			"/>
		</g>
	</g>
</g>
<polygon class="st4" points="82.7,62.7 83.9,41.1 84.1,37.8 85,22.9 83.3,22.7 82.4,37.6 82.2,41.1 80.9,62.7 "/>
<polygon class="st0" points="42.5,62.7 41.8,58.5 16.7,62.5 16.7,62.7 "/>
<polygon class="st0" points="67.7,62.7 70.2,62.3 68.9,54.1 43.8,58.1 44.5,62.7 "/>
<g>
	<polygon class="st1" points="87.4,23 83.9,25.1 80.8,22.6 84.7,12.2 	"/>
	<polygon class="st5" points="83.1,16.5 85.8,16.7 84.7,12.2 	"/>
</g>
</svg>
