<!-- Generator: Adobe Illustrator 21.0.0, SVG Export Plug-In  -->
<svg version="1.1"
	 xmlns="http://www.w3.org/2000/svg" xmlns:xlink="http://www.w3.org/1999/xlink" xmlns:a="http://ns.adobe.com/AdobeSVGViewerExtensions/3.0/"
	 x="0px" y="0px" width="29.9px" height="45.9px" viewBox="0 0 29.9 45.9"
	 style="overflow:scroll;enable-background:new 0 0 29.9 45.9;" xml:space="preserve">
<style type="text/css">
	.st0{fill:#FFD11D;}
	.st1{fill:none;stroke:#FFFFFF;stroke-miterlimit:10;}
	.st2{fill:#FFFFFF;}
	.st3{fill:#CECECE;}
	.st4{fill:#999999;}
</style>
<defs>
</defs>
<g>
	<g>
		<path class="st0" d="M29.4,14.4C29.1,6.7,22.8,0.5,15,0.5C7,0.5,0.5,7,0.5,15c0,6.6,5.9,10.1,8.3,19.6c5.2,3.4,4.8,2.6,13.1,0.7
			c1.2-8.7,7.5-13.9,7.5-20.2C29.4,14.8,29.4,14.6,29.4,14.4z"/>
	</g>
	<path class="st1" d="M29.4,14.4C29.1,6.7,22.8,0.5,15,0.5C7,0.5,0.5,7,0.5,15c0,6.6,5.9,10.1,8.3,19.6c5.2,3.4,4.8,2.6,13.1,0.7
		c1.2-8.7,7.5-13.9,7.5-20.2C29.4,14.8,29.4,14.6,29.4,14.4z"/>
	<path class="st2" d="M22.7,17.4c-0.2-0.1-0.4,0-0.5,0.2c0,0.1-0.3,0.7-0.7,1.6c-0.3-0.8-0.9-1.4-1.6-1.4c-0.6,0-1.1,0.4-1.4,0.9
		c-0.3-0.6-0.8-0.9-1.4-0.9c-0.6,0-1.1,0.4-1.4,0.9c-0.3-0.6-0.8-0.9-1.4-0.9c-0.6,0-1.1,0.4-1.4,0.9c-0.3-0.6-0.8-0.9-1.4-0.9
		c-0.7,0-1.4,0.6-1.6,1.4c-0.4-0.9-0.7-1.5-0.7-1.6c-0.1-0.2-0.3-0.3-0.5-0.2c-0.2,0.1-0.3,0.3-0.2,0.5c0,0.1,2.7,6.3,3.6,8.6
		c0.8,2.2,0.8,7.7,0.8,7.8c0,0.2,0.2,0.4,0.4,0.4c0,0,0,0,0,0c0.2,0,0.4-0.2,0.4-0.4c0-0.2,0-5.7-0.9-8c-0.3-0.9-1-2.5-1.6-4
		c0.1,0,0.2,0,0.4,0c0.6,0,1.1-0.4,1.4-0.9c0.3,0.6,0.8,0.9,1.4,0.9c0.6,0,1.1-0.4,1.4-0.9c0.3,0.6,0.8,0.9,1.4,0.9
		c0.6,0,1.1-0.4,1.4-0.9c0.3,0.6,0.8,0.9,1.4,0.9c0.1,0,0.2,0,0.4,0c-0.6,1.5-1.3,3.1-1.6,4c-0.8,2.4-0.9,7.8-0.9,8
		c0,0.2,0.2,0.4,0.4,0.4c0,0,0,0,0,0c0.2,0,0.4-0.2,0.4-0.4c0-0.1,0-5.5,0.8-7.8c0.8-2.3,3.5-8.5,3.6-8.6
		C23,17.7,22.9,17.4,22.7,17.4z M11.1,21.6c-0.4,0-0.7-0.3-0.9-0.6c0-0.1-0.1-0.1-0.1-0.2C10.1,20.5,10,20.3,10,20
		c0-0.8,0.5-1.6,1.1-1.6c0.6,0,1.1,0.7,1.1,1.6C12.3,20.9,11.7,21.6,11.1,21.6z M14,21.6c-0.6,0-1.1-0.7-1.1-1.6
		c0-0.8,0.5-1.6,1.1-1.6c0.6,0,1.1,0.7,1.1,1.6C15.1,20.9,14.6,21.6,14,21.6z M16.9,21.6c-0.6,0-1.1-0.7-1.1-1.6
		c0-0.8,0.5-1.6,1.1-1.6c0.6,0,1.1,0.7,1.1,1.6C18,20.9,17.5,21.6,16.9,21.6z M19.8,21.6c-0.6,0-1.1-0.7-1.1-1.6
		c0-0.8,0.5-1.6,1.1-1.6c0.6,0,1.1,0.7,1.1,1.6c0,0.3-0.1,0.6-0.2,0.8c0,0,0,0,0,0C20.5,21.3,20.2,21.6,19.8,21.6z"/>
	<g>
		<path class="st3" d="M10.4,38.9v4.5c0,1.4,0.9,2.5,2,2.5h6c1.1,0,2-1.1,2-2.5v-4.5H10.4z"/>
	</g>
	<g>
		<path class="st4" d="M7.9,33.4v7.2c0,1.4,1.1,2.5,2.5,2.5h9.9c1.4,0,2.5-1.1,2.5-2.5v-7.2H7.9z"/>
	</g>
	<g>
		<path class="st3" d="M23.3,35.6c0,0.2-0.2,0.4-0.3,0.4H7.7c-0.2,0-0.3-0.2-0.3-0.4V35c0-0.2,0.2-0.4,0.3-0.4H23
			c0.2,0,0.3,0.2,0.3,0.4V35.6z"/>
	</g>
	<g>
		<path class="st3" d="M23.3,37.7c0,0.2-0.2,0.4-0.3,0.4H7.7c-0.2,0-0.3-0.2-0.3-0.4v-0.6c0-0.2,0.2-0.4,0.3-0.4H23
			c0.2,0,0.3,0.2,0.3,0.4V37.7z"/>
	</g>
	<g>
		<path class="st3" d="M23.4,39.9c0,0.2-0.2,0.4-0.3,0.4H7.7c-0.2,0-0.3-0.2-0.3-0.4v-0.6c0-0.2,0.2-0.4,0.3-0.4H23
			c0.2,0,0.3,0.2,0.3,0.4V39.9z"/>
	</g>
</g>
</svg>
