<svg width="204" height="156" viewBox="0 0 204 156" fill="none" xmlns="http://www.w3.org/2000/svg">
<path d="M102 156.001C158.16 156.001 203.686 149.1 203.686 140.587C203.686 132.074 158.16 125.173 102 125.173C45.8403 125.173 0.313774 132.074 0.313774 140.587C0.313774 149.1 45.8403 156.001 102 156.001Z" fill="#EEEEEE"/>
<path d="M147.551 0.0385359L43.7561 12.1582L49.5935 62.1505L153.389 50.0308L147.551 0.0385359Z" fill="#FFFAF1" fill-opacity="0.7"/>
<path opacity="0.1" d="M147.551 0.0385359L43.7561 12.1582L49.5935 62.1505L153.389 50.0308L147.551 0.0385359Z" fill="black"/>
<path opacity="0.1" d="M147.35 -0.000976562L144.21 0.369037L46.7056 11.786L43.5556 12.1511L43.9256 15.2963L49.0328 58.9971L49.4028 62.1471L52.5431 61.7771L150.052 50.3796L153.192 50.0145L147.36 -0.000976562H147.35ZM149.687 47.2247L52.178 58.6271L47.0756 14.9262L144.575 3.53852L149.687 47.2247Z" fill="black"/>
<path opacity="0.1" d="M100.628 48.6591C108.656 47.7217 114.278 39.3711 113.184 30.0076C112.091 20.644 104.697 13.8132 96.6684 14.7507C88.6402 15.6881 83.0184 24.0387 84.1117 33.4022C85.205 42.7658 92.5995 49.5966 100.628 48.6591Z" fill="black"/>
<path opacity="0.1" d="M74.3301 33.4223C74.4202 34.1922 74.2799 34.9715 73.9271 35.6618C73.5742 36.352 73.0246 36.922 72.3478 37.2999C71.6709 37.6777 70.8972 37.8464 70.1245 37.7845C69.3518 37.7226 68.6148 37.433 68.0067 36.9522C67.3986 36.4715 66.9468 35.8212 66.7083 35.0836C66.4698 34.3461 66.4553 33.5543 66.6668 32.8086C66.8783 32.0628 67.3062 31.3965 67.8963 30.8939C68.4865 30.3913 69.2125 30.075 69.9824 29.985C71.0147 29.8643 72.0527 30.1587 72.8681 30.8033C73.6834 31.4479 74.2093 32.3899 74.3301 33.4223Z" fill="black"/>
<path opacity="0.1" d="M130.509 26.8592C130.598 27.6289 130.457 28.4076 130.104 29.0971C129.75 29.7865 129.201 30.3558 128.524 30.7329C127.847 31.1101 127.074 31.2782 126.301 31.216C125.529 31.1538 124.793 30.8641 124.185 30.3835C123.577 29.9029 123.126 29.253 122.887 28.5158C122.649 27.7787 122.634 26.9874 122.845 26.2419C123.056 25.4965 123.483 24.8302 124.073 24.3275C124.662 23.8247 125.387 23.5079 126.157 23.4171C127.19 23.2964 128.23 23.5913 129.046 24.2368C129.862 24.8823 130.388 25.8256 130.509 26.8592Z" fill="black"/>
<path opacity="0.1" d="M59.3398 57.8187L52.3826 58.6269L51.5695 51.6794C52.4829 51.5721 53.4084 51.6458 54.2932 51.8963C55.1781 52.1468 56.0049 52.5692 56.7265 53.1393C57.4481 53.7095 58.0503 54.4161 58.4987 55.2191C58.9471 56.022 59.2329 56.9053 59.3398 57.8187Z" fill="black"/>
<path d="M97.3248 18.8747C97.5105 18.8541 97.6968 18.9074 97.8435 19.0231C97.9902 19.1388 98.0854 19.3076 98.1086 19.493L98.2449 20.6615C100.162 20.5844 102.058 21.0848 103.688 22.0977C103.816 22.1528 103.927 22.2393 104.012 22.3491C104.097 22.4589 104.153 22.5885 104.175 22.7258C104.194 22.9233 104.134 23.1203 104.008 23.2736C103.882 23.4269 103.7 23.524 103.503 23.5437C103.407 23.5587 103.308 23.5539 103.213 23.5296C103.119 23.5054 103.03 23.4621 102.953 23.4025C101.585 22.4976 99.982 22.015 98.3423 22.015L99.316 30.1991C103.868 30.613 105.932 32.0638 106.268 34.9266C106.629 38.0279 104.287 40.5255 100.645 41.0659L100.908 43.3493C100.924 43.5324 100.868 43.7145 100.751 43.8567C100.635 43.999 100.468 44.0903 100.285 44.1112C100.103 44.1321 99.919 44.081 99.7735 43.9688C99.628 43.8565 99.532 43.6919 99.5059 43.51L99.2381 41.2023C96.7685 41.3059 94.3356 40.5773 92.3295 39.1331C92.2225 39.0761 92.1307 38.9941 92.0621 38.8941C91.9934 38.7941 91.9499 38.679 91.9352 38.5586C91.9206 38.3658 91.9791 38.1746 92.0991 38.0231C92.2191 37.8715 92.3918 37.7707 92.5827 37.7407C92.7781 37.7157 92.9756 37.7681 93.1329 37.8867C94.8482 39.2192 96.9691 39.9222 99.1408 39.878L98.167 31.5478C93.6684 31.095 91.6723 29.6977 91.3266 26.7765C90.9809 23.8553 93.2741 21.2701 96.8476 20.7686L96.7211 19.6537C96.7015 19.471 96.7534 19.2878 96.866 19.1426C96.9785 18.9974 97.143 18.9014 97.3248 18.8747ZM97.9772 30.0726L97.0472 22.088C94.2186 22.4824 92.5438 24.3957 92.7921 26.499C93.0258 28.4708 94.1017 29.5906 97.9772 30.058V30.0726ZM99.4767 31.7036L100.416 39.7709C103.338 39.3716 105.037 37.4534 104.774 35.2333C104.54 33.2031 103.372 32.093 99.4767 31.6889V31.7036Z" fill="#3EA4E0"/>
<path d="M181.207 82.7368H142.637V102.309H181.207V82.7368Z" fill="#9DDD4C"/>
<path d="M176.787 93.5215C177.34 91.1683 175.881 88.8123 173.528 88.259C171.174 87.7058 168.818 89.1649 168.265 91.5181C167.712 93.8712 169.171 96.2273 171.524 96.7805C173.877 97.3337 176.233 95.8746 176.787 93.5215Z" fill="#EBEBEB"/>
<path d="M172.531 94.9179C173.854 94.9179 174.926 93.8455 174.926 92.5226C174.926 91.1996 173.854 90.1272 172.531 90.1272C171.208 90.1272 170.135 91.1996 170.135 92.5226C170.135 93.8455 171.208 94.9179 172.531 94.9179Z" fill="#DBDBDB"/>
<path d="M157.891 48.1643H41.1505V135.327H157.891V48.1643Z" fill="#9DDD4C"/>
<path opacity="0.1" d="M157.891 48.1643H41.1505V135.327H157.891V48.1643Z" fill="black"/>
<path d="M136.902 4.16164L148.548 56.7915C148.858 58.2027 148.596 59.6794 147.82 60.8978C147.043 62.1162 145.815 62.9769 144.404 63.2912L60.9269 81.792C60.2274 81.9469 59.5042 81.9623 58.7988 81.8373C58.0933 81.7123 57.4194 81.4494 56.8157 81.0637C56.2119 80.6779 55.6902 80.1769 55.2804 79.5892C54.8706 79.0016 54.5807 78.3389 54.4273 77.639L42.7767 24.9896C42.4867 23.6752 42.7305 22.2994 43.4545 21.1646C44.1784 20.0299 45.3233 19.229 46.6375 18.9379L130.865 0.300808C132.177 0.0165259 133.548 0.262972 134.68 0.986336C135.811 1.7097 136.61 2.85122 136.902 4.16164Z" fill="#21A038"/>
<g clip-path="url(#clip0_1712_10947)">
<path d="M64.7739 26.5534L65.3739 25.8669L63.0048 26.3755L63.6832 29.5363L66.0524 29.0277L65.938 28.4946L64.2457 28.8578L64.074 28.0581L65.5031 27.7514L65.3886 27.2182L63.9596 27.525L63.7961 26.7633L64.7739 26.5534ZM61.8218 27.1871L62.4219 26.5006L59.7143 27.0818L60.3928 30.2426L61.803 29.9399C62.5927 29.7703 62.9663 29.3117 62.8314 28.6834C62.7006 28.0741 62.2175 27.8392 61.4654 28.0006L60.6381 28.1782L60.4868 27.4737L61.8218 27.1871ZM61.4817 28.5349C61.9142 28.442 62.1349 28.554 62.1962 28.8396C62.2575 29.1252 62.0834 29.322 61.6697 29.4108L60.9552 29.5641L60.7672 28.6883L61.4817 28.5349ZM67.273 25.4593L65.9944 25.7337L66.6729 28.8945L67.3498 28.7492L67.1577 27.8543L67.7782 27.7211C68.6055 27.5435 69.0192 26.9966 68.868 26.2921C68.7167 25.5876 68.1003 25.2817 67.273 25.4593ZM67.6449 27.192L67.0433 27.3212L66.7817 26.1025L67.3834 25.9734C67.8158 25.8806 68.1052 26.0375 68.1911 26.4374C68.2581 26.8413 68.0774 27.0992 67.6449 27.192ZM59.0987 29.8033C58.9311 29.9389 58.7553 30.0364 58.5485 30.0807C57.9468 30.2099 57.4015 29.8688 57.2707 29.2595C57.1399 28.6502 57.4784 28.1195 58.0989 27.9863C58.3245 27.9378 58.5477 27.9696 58.7602 28.0435L59.1715 27.5768L59.1257 27.5468C58.7905 27.3598 58.3858 27.3072 57.9534 27.4C57.4833 27.5009 57.1023 27.7421 56.8481 28.1153C56.6126 28.4846 56.5145 28.9438 56.6273 29.3777C56.7213 29.8157 56.9805 30.1982 57.3508 30.4573C57.7358 30.6934 58.2051 30.7719 58.6335 30.66C59.1223 30.5551 59.4992 30.2949 59.7347 29.9257L59.2327 29.6949L59.0987 29.8033ZM79.1335 24.2678L77.6856 24.5786L77.4077 23.2838L76.7308 23.4291L77.4093 26.5899L78.0862 26.4446L77.8083 25.1498L79.2561 24.839L79.534 26.1338L80.2109 25.9885L79.5324 22.8277L78.8555 22.973L79.1335 24.2678ZM74.2864 23.9538L73.6111 27.4052L74.288 27.2599L74.4164 26.575L75.8454 26.2683L76.2435 26.8401L76.958 26.6868L74.9633 23.8085L74.2864 23.9538ZM74.5276 25.9935L74.7802 24.6047L75.5429 25.7755L74.5276 25.9935ZM82.3038 23.8263L83.199 22.0407L82.4281 22.2062L81.7029 23.776L81.3268 23.8568L81.0367 22.5049L80.3597 22.6502L81.0382 25.8109L81.7151 25.6656L81.4413 24.3899L81.8737 24.2971L83.1817 25.3508L84.0467 25.1652L82.3038 23.8263ZM71.7881 25.7848L70.9608 25.9624L70.8096 25.2579L72.577 24.8785L72.4626 24.3453L70.0182 24.87L70.6967 28.0308L72.1069 27.7281C72.8966 27.5586 73.2702 27.0999 73.1353 26.4716C73.0234 25.8582 72.5402 25.6233 71.7881 25.7848ZM71.9777 27.218L71.2632 27.3714L71.0752 26.4955L71.7897 26.3421C72.2222 26.2493 72.4429 26.3613 72.5042 26.6469C72.5843 26.9285 72.3914 27.1292 71.9777 27.218Z" fill="white"/>
<path d="M54.1634 28.2534C54.3277 28.3775 54.4626 28.5477 54.5934 28.6989L52.6043 30.9782L51.4729 30.5638L51.3094 29.8021L52.4409 30.2166L54.1634 28.2534ZM54.9163 29.2869L54.4421 29.8268L54.4544 29.884C54.5811 30.4742 54.4511 31.0598 54.1151 31.5104L54.608 31.8826C55.0323 31.2936 55.2196 30.5164 55.0561 29.7548C55.0193 29.5834 54.9678 29.4351 54.9163 29.2869Z" fill="white"/>
<path d="M54.174 31.4186C53.8944 31.857 53.4357 32.1945 52.8905 32.3115L52.7964 32.3317L52.8896 32.9491L53.0213 32.9208C53.7358 32.7675 54.3285 32.3215 54.6964 31.7446L54.174 31.4186Z" fill="white"/>
<path d="M52.8945 32.3305C52.3117 32.4557 51.728 32.3021 51.2661 31.983L50.9006 32.4797C51.4851 32.9119 52.2544 33.1053 53.0253 32.9398L52.8945 32.3305Z" fill="white"/>
<path d="M51.3535 32.0241C50.9186 31.739 50.5826 31.2734 50.4641 30.7212L50.4396 30.6069L49.8338 30.717L49.8624 30.8503C50.0177 31.5739 50.4428 32.1798 51.0151 32.5549L51.3535 32.0241Z" fill="white"/>
<path d="M50.4641 30.7212C50.3374 30.1309 50.4862 29.5413 50.7993 29.0757L50.2916 28.7266C49.8673 29.3156 49.6989 30.0887 49.8624 30.8504L50.4641 30.7212Z" fill="white"/>
<path d="M50.711 29.2142C50.9865 28.7567 51.4599 28.3961 52.024 28.275L52.118 28.2549L52.0248 27.6375L51.8932 27.6657C51.1599 27.8231 50.5672 28.269 50.1887 28.8881L50.711 29.2142Z" fill="white"/>
<path d="M52.024 28.2751C52.4376 28.1863 52.8611 28.2348 53.2298 28.3947L53.6557 27.9049C53.1268 27.64 52.5137 27.5326 51.8932 27.6658L52.024 28.2751Z" fill="white"/>
</g>
<path d="M128.401 17.351L120.412 19.1184C119.972 19.2186 119.516 19.2305 119.072 19.1533C118.627 19.076 118.202 18.9112 117.822 18.6685C117.441 18.4257 117.113 18.1098 116.855 17.739C116.598 17.3683 116.417 16.9501 116.322 16.5088C116.222 16.0691 116.21 15.6138 116.287 15.1694C116.364 14.725 116.528 14.3003 116.77 13.9199C117.013 13.5395 117.328 13.2109 117.698 12.9533C118.068 12.6957 118.486 12.5141 118.927 12.4191L126.921 10.6518C127.361 10.5515 127.817 10.5397 128.262 10.6169C128.706 10.6942 129.131 10.8589 129.512 11.1017C129.892 11.3445 130.221 11.6604 130.478 12.0312C130.735 12.4019 130.916 12.8201 131.011 13.2614C131.207 14.1497 131.042 15.0794 130.552 15.8462C130.063 16.6131 129.289 17.1543 128.401 17.351Z" fill="white"/>
<path d="M56.107 50.8081L55.479 51.3924C55.4563 51.4158 55.4277 51.4326 55.3962 51.4411C55.3649 51.4476 55.3323 51.4462 55.3017 51.4368C55.271 51.4275 55.2433 51.4105 55.2209 51.3875C55.2031 51.3711 55.1888 51.3511 55.1791 51.3289C55.1693 51.3067 55.1643 51.2827 55.1643 51.2585C55.1643 51.2342 55.1693 51.2102 55.1791 51.188C55.1888 51.1658 55.2031 51.1459 55.2209 51.1295L56.0778 50.3115C56.1126 50.2804 56.1577 50.2632 56.2044 50.2632C56.2511 50.2632 56.2962 50.2804 56.331 50.3115C56.3626 50.3465 56.3814 50.3911 56.3845 50.4381L57.4264 55.1461C57.4366 55.1926 57.428 55.2412 57.4024 55.2813C57.3769 55.3214 57.3365 55.3498 57.2901 55.3603C57.2431 55.3694 57.1945 55.3604 57.1538 55.3351C57.1132 55.3098 57.0836 55.2701 57.071 55.224L56.107 50.8081Z" fill="#F8F8F8"/>
<path d="M58.6484 54.7418L60.5617 52.0543C60.6726 51.8999 60.7499 51.7239 60.7885 51.5377C60.827 51.3515 60.8261 51.1593 60.7857 50.9735C60.7055 50.6267 60.4919 50.3254 60.1912 50.135C59.8905 49.9445 59.5268 49.8802 59.179 49.956C58.848 50.0265 58.5548 50.2173 58.3562 50.4915L58.1615 50.7739C58.1344 50.8139 58.0925 50.8415 58.045 50.8507C57.9975 50.8598 57.9484 50.8497 57.9083 50.8226C57.8683 50.7955 57.8407 50.7535 57.8316 50.7061C57.8224 50.6586 57.8325 50.6094 57.8597 50.5694L58.0593 50.2773C58.3106 49.9315 58.6792 49.6892 59.0963 49.5957C59.5389 49.5011 60.0009 49.5844 60.3826 49.8276C60.7643 50.0709 61.035 50.4545 61.1362 50.8956C61.1887 51.13 61.1915 51.3729 61.1445 51.6085C61.0976 51.8441 61.0019 52.0672 60.8636 52.2637L59.2229 54.5665L61.6572 54.031C61.7049 54.0224 61.7541 54.0329 61.7942 54.0602C61.8342 54.0875 61.862 54.1295 61.8714 54.1771C61.8816 54.2235 61.8729 54.2721 61.8474 54.3123C61.8219 54.3524 61.7815 54.3808 61.7351 54.3913L58.8918 55.0145H58.8626C58.838 55.0217 58.8121 55.0232 58.7868 55.019C58.7615 55.0148 58.7375 55.0049 58.7165 54.9901C58.6769 54.9641 58.6481 54.9245 58.6356 54.8788C58.623 54.8331 58.6276 54.7844 58.6484 54.7418Z" fill="#F8F8F8"/>
<path d="M65.0944 48.6122L64.072 50.2675C64.4817 50.2567 64.8822 50.3902 65.2035 50.6447C65.5247 50.8993 65.7463 51.2586 65.8295 51.6599C65.8819 51.8885 65.8878 52.1252 65.8468 52.356C65.8058 52.5869 65.7188 52.8071 65.591 53.0037C65.336 53.4027 64.9334 53.6845 64.4712 53.7875C64.2439 53.8387 64.0086 53.8435 63.7794 53.8017C63.5502 53.7599 63.3318 53.6722 63.1372 53.5441C63.1164 53.5316 63.0983 53.5151 63.084 53.4955C63.0697 53.4759 63.0595 53.4536 63.054 53.43C63.0486 53.4063 63.048 53.3818 63.0522 53.3579C63.0565 53.334 63.0655 53.3112 63.0788 53.2909C63.0917 53.2699 63.1087 53.2517 63.1287 53.2374C63.1487 53.2231 63.1715 53.2129 63.1955 53.2074C63.2195 53.202 63.2444 53.2014 63.2687 53.2057C63.2929 53.21 63.3161 53.2191 63.3368 53.2325C63.6527 53.4309 64.0339 53.4971 64.3982 53.417C64.7625 53.3368 65.0808 53.1167 65.2843 52.8041C65.3855 52.648 65.4545 52.4733 65.4871 52.2902C65.5197 52.107 65.5153 51.9192 65.4741 51.7378C65.3916 51.3757 65.1692 51.0608 64.8554 50.862C64.5417 50.6632 64.1621 50.5965 63.7993 50.6765C63.771 50.6815 63.7418 50.6802 63.7141 50.6726C63.6863 50.665 63.6605 50.6514 63.6387 50.6327C63.617 50.6198 63.5982 50.6025 63.5834 50.5821C63.5686 50.5617 63.5582 50.5384 63.5527 50.5138C63.5472 50.4892 63.5468 50.4637 63.5516 50.4389C63.5563 50.4142 63.5661 50.3906 63.5802 50.3697L64.554 48.7777L62.6065 49.211C62.5825 49.2168 62.5576 49.2176 62.5333 49.2136C62.5089 49.2096 62.4857 49.2007 62.4648 49.1876C62.4439 49.1744 62.4259 49.1572 62.4118 49.137C62.3976 49.1168 62.3877 49.0939 62.3825 49.0698C62.3768 49.0458 62.3759 49.0209 62.3799 48.9966C62.384 48.9723 62.3928 48.949 62.406 48.9281C62.4191 48.9072 62.4363 48.8892 62.4565 48.8751C62.4768 48.861 62.4996 48.851 62.5237 48.8459L64.9191 48.3152C64.9682 48.3051 65.0192 48.3148 65.0611 48.3421C65.1031 48.3695 65.1325 48.4123 65.1431 48.4612C65.1505 48.4883 65.1505 48.5169 65.1431 48.544C65.1303 48.569 65.1139 48.592 65.0944 48.6122Z" fill="#F8F8F8"/>
<path d="M70.226 51.407L67.4509 52.0205C67.4318 52.0289 67.411 52.0333 67.3901 52.0333C67.3691 52.0333 67.3484 52.0289 67.3292 52.0205C67.3075 52.0103 67.2882 51.9956 67.2725 51.9775C67.2568 51.9593 67.2451 51.9381 67.2382 51.9151C67.2313 51.8921 67.2294 51.8679 67.2325 51.8441C67.2356 51.8203 67.2436 51.7975 67.2562 51.777L69.4032 47.4293C69.4135 47.4077 69.4282 47.3884 69.4462 47.3726C69.4642 47.3569 69.4853 47.345 69.5081 47.3377C69.5309 47.3304 69.555 47.3278 69.5788 47.3302C69.6027 47.3326 69.6257 47.3398 69.6467 47.3514C69.6784 47.371 69.705 47.3976 69.7246 47.4293C69.7246 47.4293 69.7246 47.4293 69.7246 47.4537V47.478L70.5036 50.9932L70.8444 50.9153C70.868 50.9095 70.8926 50.9084 70.9167 50.9121C70.9407 50.9158 70.9638 50.9242 70.9847 50.9369C71.0055 50.9496 71.0236 50.9662 71.0379 50.9859C71.0523 51.0056 71.0626 51.0279 71.0683 51.0516C71.0732 51.0753 71.0733 51.0997 71.0686 51.1235C71.0639 51.1472 71.0544 51.1697 71.0408 51.1897C71.0271 51.2097 71.0096 51.2267 70.9893 51.2398C70.9689 51.2529 70.9461 51.2617 70.9223 51.2658L70.5815 51.3437L70.7762 52.2249C70.782 52.2708 70.7704 52.3173 70.7436 52.355C70.7169 52.3928 70.677 52.4191 70.6317 52.4289C70.5865 52.4387 70.5393 52.4312 70.4993 52.4078C70.4594 52.3845 70.4296 52.347 70.4159 52.3028L70.226 51.407ZM70.1481 51.0565L69.486 48.0574L67.7236 51.6066L70.1481 51.0565Z" fill="#F8F8F8"/>
<path d="M76.7695 50.5356C76.7485 50.5232 76.7304 50.5067 76.7161 50.4869C76.7019 50.4671 76.692 50.4446 76.6869 50.4208C76.6819 50.397 76.6819 50.3724 76.6869 50.3486C76.6919 50.3247 76.7018 50.3022 76.716 50.2824C76.7289 50.2607 76.7461 50.2419 76.7665 50.2272C76.7869 50.2124 76.8102 50.2019 76.8348 50.1965C76.8594 50.191 76.8849 50.1906 76.9097 50.1953C76.9345 50.2001 76.958 50.2098 76.9789 50.224C77.2925 50.4188 77.6699 50.4834 78.0305 50.4041C78.3929 50.3215 78.7081 50.0993 78.9077 49.7858C79.1073 49.4722 79.1752 49.0926 79.0967 48.7293C79.0599 48.5487 78.9872 48.3772 78.8829 48.2252C78.7786 48.0731 78.6449 47.9435 78.4896 47.8441C78.3344 47.7447 78.1607 47.6774 77.979 47.6463C77.7973 47.6152 77.6111 47.6209 77.4316 47.6631C77.2502 47.7019 77.0784 47.7766 76.9262 47.8828C76.774 47.989 76.6446 48.1245 76.5456 48.2814C76.5331 48.3022 76.5166 48.3203 76.497 48.3346C76.4774 48.3489 76.4551 48.3591 76.4314 48.3646C76.4078 48.37 76.3833 48.3706 76.3594 48.3664C76.3355 48.3621 76.3127 48.3531 76.2924 48.3398C76.2688 48.3292 76.2486 48.3124 76.234 48.2911C76.2305 48.2718 76.2305 48.252 76.234 48.2327C76.2365 48.2199 76.2365 48.2066 76.234 48.1938L76.0246 46.0759C76.0201 46.0498 76.0217 46.0231 76.0293 45.9977C76.0369 45.9724 76.0503 45.9491 76.0684 45.9299C76.0805 45.9111 76.0961 45.895 76.1145 45.8824C76.133 45.8699 76.1537 45.8612 76.1755 45.8568L78.566 45.331C78.59 45.3259 78.6148 45.3256 78.6389 45.33C78.663 45.3345 78.686 45.3436 78.7065 45.3569C78.7271 45.3703 78.7449 45.3875 78.7588 45.4077C78.7727 45.4279 78.7824 45.4507 78.7876 45.4746C78.7927 45.4986 78.793 45.5234 78.7886 45.5475C78.7841 45.5716 78.775 45.5946 78.7616 45.6151C78.7483 45.6357 78.731 45.6535 78.7108 45.6674C78.6906 45.6813 78.6679 45.691 78.6439 45.6962L76.4141 46.183L76.565 47.7507C76.8825 47.4576 77.2958 47.2901 77.7278 47.2797C78.1598 47.2693 78.5807 47.4166 78.9119 47.6941C79.2431 47.9716 79.4619 48.3602 79.5273 48.7874C79.5926 49.2145 79.5002 49.6508 79.2671 50.0146C79.0074 50.4082 78.6066 50.687 78.1473 50.7936C77.9121 50.8457 77.6688 50.8497 77.4321 50.8054C77.1953 50.761 76.9699 50.6693 76.7695 50.5356Z" fill="#F8F8F8"/>
<path d="M80.8787 45.9539C80.9779 45.5875 81.1734 45.2543 81.4447 44.989C81.7161 44.7236 82.0536 44.5356 82.4221 44.4446C82.4692 44.4327 82.5191 44.4398 82.561 44.4644C82.6029 44.489 82.6334 44.5291 82.646 44.576C82.6554 44.6243 82.6468 44.6743 82.6216 44.7165C82.5964 44.7587 82.5566 44.7902 82.5097 44.8049C82.2021 44.8806 81.9205 45.0376 81.6944 45.2594C81.4683 45.4812 81.3059 45.7598 81.2244 46.0658C81.117 46.424 81.0693 46.7974 81.0832 47.171C81.2786 46.8212 81.5898 46.5504 81.9633 46.4052C82.3367 46.26 82.7491 46.2494 83.1295 46.3754C83.5099 46.5013 83.8346 46.7559 84.0476 47.0953C84.2606 47.4347 84.3487 47.8377 84.2968 48.235C84.2448 48.6323 84.056 48.9991 83.7629 49.2723C83.4698 49.5455 83.0906 49.7081 82.6906 49.7319C82.2906 49.7558 81.8948 49.6396 81.5712 49.4033C81.2476 49.1669 81.0165 48.8252 80.9176 48.4369C80.8805 48.3271 80.8512 48.2148 80.83 48.1009C80.6635 47.3927 80.6802 46.6538 80.8787 45.9539ZM81.2682 48.3249C81.2764 48.3575 81.2895 48.3887 81.3071 48.4174C81.3117 48.4349 81.3117 48.4534 81.3071 48.4709C81.4257 48.8096 81.6713 49.0889 81.992 49.2499C82.3127 49.4108 82.6835 49.4407 83.0259 49.3334C83.3683 49.226 83.6555 48.9897 83.8269 48.6745C83.9983 48.3592 84.0404 47.9897 83.9444 47.644C83.8484 47.2982 83.6217 47.0034 83.3122 46.8217C83.0028 46.64 82.6348 46.5857 82.2861 46.6703C81.9374 46.7549 81.6352 46.9718 81.4435 47.2751C81.2517 47.5784 81.1854 47.9444 81.2585 48.2957L81.2682 48.3249Z" fill="#F8F8F8"/>
<path d="M86.4776 48.6562L87.3734 43.7437L84.905 44.3036C84.8602 44.3098 84.8147 44.2989 84.7775 44.2731C84.7404 44.2473 84.7143 44.2084 84.7045 44.1643C84.6946 44.1201 84.7018 44.0738 84.7245 44.0347C84.7473 43.9956 84.7839 43.9664 84.8271 43.9531L87.5389 43.3542C87.574 43.3445 87.611 43.3445 87.646 43.3542C87.696 43.3674 87.7394 43.3986 87.7678 43.4419C87.7678 43.4662 87.7921 43.476 87.797 43.5003C87.8066 43.5337 87.8066 43.5691 87.797 43.6025L86.8573 48.7535C86.8504 48.7881 86.834 48.8201 86.8099 48.8459C86.7858 48.8717 86.7551 48.8903 86.721 48.8996C86.6956 48.9069 86.6686 48.9069 86.6431 48.8996C86.6157 48.8956 86.5894 48.886 86.566 48.8713C86.5425 48.8566 86.5223 48.8372 86.5068 48.8143C86.4912 48.7914 86.4806 48.7655 86.4755 48.7383C86.4705 48.7111 86.4712 48.6831 86.4776 48.6562Z" fill="#F8F8F8"/>
<path d="M90.4648 42.6581C90.6898 42.6073 90.9251 42.6292 91.1369 42.7206C91.3487 42.8121 91.5261 42.9683 91.6435 43.1669C91.7609 43.3654 91.8123 43.5961 91.7904 43.8258C91.7684 44.0554 91.6742 44.2721 91.5213 44.4449C91.9084 44.5131 92.2598 44.7134 92.5158 45.0116C92.7718 45.3099 92.9165 45.6877 92.9252 46.0806C92.9339 46.4736 92.806 46.8574 92.5635 47.1667C92.321 47.476 91.9787 47.6917 91.595 47.7769C91.2113 47.8622 90.8099 47.8118 90.4592 47.6343C90.1085 47.4569 89.8302 47.1633 89.6716 46.8037C89.5131 46.444 89.4841 46.0405 89.5897 45.6619C89.6952 45.2833 89.9288 44.953 90.2506 44.7272C90.0963 44.6545 89.9607 44.5473 89.8544 44.414C89.748 44.2806 89.6737 44.1246 89.6371 43.958C89.6055 43.8183 89.602 43.6737 89.6265 43.5326C89.6511 43.3914 89.7034 43.2566 89.7803 43.1357C89.8572 43.0149 89.9573 42.9105 90.0748 42.8285C90.1923 42.7465 90.3248 42.6886 90.4648 42.6581ZM91.5213 47.4342C91.7808 47.3769 92.0175 47.244 92.2015 47.0521C92.3854 46.8603 92.5084 46.6183 92.5548 46.3566C92.6011 46.0949 92.5689 45.8253 92.4621 45.582C92.3552 45.3386 92.1786 45.1324 91.9546 44.9894C91.7306 44.8464 91.4692 44.773 91.2035 44.7786C90.9378 44.7842 90.6797 44.8684 90.4618 45.0207C90.244 45.1729 90.0762 45.3864 89.9796 45.634C89.8831 45.8816 89.8622 46.1523 89.9195 46.4118C89.9563 46.5847 90.0272 46.7486 90.128 46.8939C90.2288 47.0392 90.3574 47.163 90.5064 47.2582C90.6555 47.3533 90.822 47.4179 90.9962 47.4481C91.1704 47.4783 91.3489 47.4736 91.5213 47.4342ZM90.8591 44.4449C91.0491 44.4007 91.214 44.2834 91.3179 44.1184C91.4218 43.9534 91.4564 43.754 91.4142 43.5636C91.3722 43.3745 91.2568 43.2097 91.0934 43.1056C90.9299 43.0016 90.7318 42.9667 90.5427 43.0086C90.3535 43.0506 90.1888 43.166 90.0847 43.3294C89.9806 43.4929 89.9457 43.6909 89.9876 43.8801C90.0297 44.0698 90.1446 44.2353 90.3077 44.341C90.4708 44.4467 90.6688 44.484 90.8591 44.4449Z" fill="#F8F8F8"/>
<path d="M99.5742 40.6424C99.9897 40.5485 100.425 40.6113 100.797 40.8189C101.169 41.0265 101.452 41.3641 101.59 41.767C101.59 41.767 101.59 41.767 101.59 41.7962C101.629 41.9374 101.668 42.0786 101.702 42.2344C101.869 42.9437 101.856 43.6836 101.663 44.3863C101.56 44.7519 101.363 45.084 101.092 45.349C100.82 45.614 100.483 45.8026 100.115 45.8956C100.092 45.9029 100.068 45.9054 100.044 45.9029C100.021 45.9004 99.9976 45.8929 99.9769 45.881C99.9563 45.8691 99.9384 45.853 99.9243 45.8337C99.9103 45.8144 99.9005 45.7923 99.8955 45.769C99.8889 45.7454 99.8871 45.7206 99.8901 45.6963C99.8932 45.6719 99.901 45.6484 99.9133 45.6271C99.9255 45.6058 99.9419 45.5871 99.9614 45.5722C99.9809 45.5573 100.003 45.5464 100.027 45.5402C100.335 45.4638 100.617 45.3067 100.843 45.0851C101.07 44.8634 101.234 44.5852 101.317 44.2792C101.424 43.9211 101.47 43.5475 101.454 43.174C101.313 43.4272 101.112 43.6411 100.868 43.7964C100.623 43.9517 100.344 44.0434 100.055 44.0631C99.7667 44.0828 99.4777 44.0299 99.2146 43.9092C98.9516 43.7885 98.723 43.6038 98.5496 43.3721C98.3763 43.1404 98.2637 42.8689 98.2222 42.5825C98.1807 42.2961 98.2115 42.0039 98.3119 41.7325C98.4124 41.4611 98.5791 41.2191 98.7971 41.0287C99.015 40.8383 99.2771 40.7055 99.5596 40.6424H99.5742ZM101.288 42.0299C101.23 41.7658 101.095 41.5249 100.9 41.3375C100.705 41.1501 100.459 41.0247 100.193 40.9771C99.9266 40.9295 99.6523 40.9618 99.4045 41.0699C99.1567 41.1781 98.9465 41.3573 98.8004 41.5848C98.6544 41.8124 98.5791 42.0781 98.5839 42.3485C98.5888 42.6188 98.6737 42.8816 98.8278 43.1038C98.982 43.3259 99.1985 43.4974 99.4501 43.5965C99.7016 43.6957 99.9769 43.7181 100.241 43.6609C100.417 43.6228 100.584 43.5504 100.732 43.4477C100.88 43.3451 101.006 43.2142 101.103 43.0627C101.2 42.9112 101.267 42.742 101.299 42.5647C101.33 42.3875 101.327 42.2058 101.288 42.0299Z" fill="#F8F8F8"/>
<path d="M103.138 42.541C102.985 41.9124 103.017 41.2528 103.231 40.6422C103.303 40.3822 103.445 40.1469 103.641 39.9612C103.837 39.7756 104.079 39.6466 104.343 39.5881C104.606 39.5297 104.88 39.5438 105.136 39.6291C105.393 39.7145 105.621 39.8677 105.796 40.0726C106.247 40.5386 106.558 41.1225 106.692 41.7571C106.839 42.3872 106.802 43.0463 106.585 43.6559C106.52 43.9212 106.383 44.1631 106.187 44.354C105.992 44.545 105.747 44.6774 105.481 44.7362C105.214 44.795 104.936 44.7779 104.679 44.6868C104.421 44.5956 104.194 44.4341 104.024 44.2206C103.57 43.7603 103.261 43.1759 103.138 42.541ZM103.498 42.4631C103.611 43.026 103.883 43.5446 104.282 43.9577C104.413 44.1186 104.586 44.2398 104.781 44.308C104.977 44.3761 105.188 44.3883 105.39 44.3433C105.592 44.2983 105.778 44.1979 105.926 44.0532C106.074 43.9086 106.18 43.7255 106.23 43.5244C106.412 42.9803 106.442 42.3969 106.318 41.8369C106.193 41.2768 105.919 40.7611 105.524 40.3452C105.393 40.1843 105.22 40.0631 105.025 39.995C104.829 39.9269 104.618 39.9146 104.416 39.9596C104.214 40.0046 104.028 40.1051 103.88 40.2497C103.731 40.3944 103.626 40.5775 103.576 40.7785C103.388 41.3207 103.361 41.9058 103.498 42.4631Z" fill="#F8F8F8"/>
<path d="M108.605 39.1914L107.977 39.7756C107.955 39.7991 107.926 39.8159 107.895 39.8243C107.863 39.8309 107.831 39.8295 107.8 39.8201C107.769 39.8107 107.742 39.7938 107.719 39.7708C107.702 39.754 107.688 39.7339 107.679 39.7118C107.67 39.6896 107.665 39.6658 107.665 39.6417C107.665 39.6177 107.67 39.5939 107.679 39.5717C107.688 39.5496 107.702 39.5295 107.719 39.5127L108.576 38.6948C108.61 38.6615 108.655 38.6428 108.703 38.6428C108.75 38.6428 108.796 38.6615 108.829 38.6948C108.861 38.7298 108.88 38.7744 108.883 38.8214L109.925 43.5294C109.935 43.5758 109.926 43.6244 109.901 43.6646C109.875 43.7047 109.835 43.7331 109.788 43.7436C109.742 43.7525 109.694 43.7433 109.654 43.718C109.614 43.6926 109.586 43.653 109.574 43.6073L108.605 39.1914Z" fill="#F8F8F8"/>
<path d="M111.166 43.1254L113.08 40.433C113.191 40.2796 113.268 40.1044 113.307 39.919C113.345 39.7335 113.344 39.542 113.304 39.357C113.231 39.0308 113.038 38.744 112.763 38.5537C112.611 38.4443 112.437 38.3686 112.253 38.3316C112.069 38.2947 111.88 38.2974 111.697 38.3395C111.368 38.4082 111.076 38.5975 110.879 38.8702L110.68 39.1526C110.667 39.1737 110.651 39.1921 110.631 39.2063C110.611 39.2204 110.588 39.2302 110.564 39.2348C110.54 39.2394 110.515 39.2388 110.492 39.233C110.468 39.2272 110.446 39.2164 110.426 39.2012C110.406 39.1886 110.389 39.1718 110.376 39.1521C110.363 39.1324 110.354 39.1102 110.35 39.0868C110.345 39.0634 110.346 39.0394 110.352 39.0164C110.358 38.9933 110.368 38.9717 110.383 38.9529L110.577 38.6608C110.829 38.3151 111.197 38.0728 111.614 37.9792C112.057 37.8846 112.519 37.968 112.901 38.2112C113.282 38.4544 113.553 38.838 113.654 39.2791C113.707 39.5136 113.71 39.7564 113.663 39.992C113.616 40.2276 113.52 40.4508 113.382 40.6472L111.741 42.9501L114.175 42.4145C114.223 42.406 114.272 42.4165 114.312 42.4438C114.352 42.4711 114.38 42.513 114.389 42.5606C114.4 42.6071 114.391 42.6557 114.365 42.6958C114.34 42.736 114.3 42.7644 114.253 42.7748L111.4 43.4077H111.371C111.348 43.4186 111.323 43.4242 111.298 43.4242C111.273 43.4242 111.248 43.4186 111.225 43.4077C111.201 43.3939 111.181 43.3754 111.165 43.3533C111.15 43.3312 111.139 43.3061 111.133 43.2795C111.128 43.2529 111.128 43.2254 111.134 43.1989C111.139 43.1724 111.15 43.1473 111.166 43.1254Z" fill="#F8F8F8"/>
<path d="M121.984 36.0269L120.962 37.6822C121.306 37.6775 121.644 37.7722 121.936 37.9549C122.232 38.1457 122.466 38.42 122.607 38.7433C122.748 39.0666 122.79 39.4244 122.728 39.7717C122.667 40.119 122.503 40.4401 122.259 40.6947C122.015 40.9493 121.701 41.1259 121.356 41.2023C121.129 41.2534 120.894 41.2583 120.665 41.2164C120.435 41.1746 120.217 41.087 120.022 40.9588C120.002 40.9464 119.983 40.9299 119.969 40.9103C119.955 40.8906 119.945 40.8683 119.939 40.8447C119.934 40.8211 119.933 40.7966 119.937 40.7727C119.942 40.7488 119.951 40.726 119.964 40.7057C119.977 40.6847 119.994 40.6665 120.014 40.6521C120.034 40.6378 120.057 40.6276 120.081 40.6222C120.105 40.6167 120.13 40.6161 120.154 40.6204C120.178 40.6248 120.201 40.6339 120.222 40.6473C120.417 40.7727 120.64 40.848 120.871 40.8665C121.102 40.8851 121.334 40.8462 121.547 40.7534C121.759 40.6606 121.945 40.5167 122.089 40.3346C122.232 40.1525 122.328 39.9377 122.369 39.7094C122.409 39.4811 122.393 39.2464 122.32 39.0261C122.248 38.8058 122.123 38.6067 121.955 38.4466C121.788 38.2864 121.583 38.1702 121.36 38.1082C121.136 38.0462 120.901 38.0404 120.675 38.0912C120.646 38.0966 120.617 38.0955 120.589 38.0879C120.562 38.0803 120.536 38.0664 120.514 38.0474C120.472 38.0195 120.443 37.9767 120.432 37.9277C120.421 37.8787 120.43 37.8274 120.456 37.7845L121.429 36.1876L119.482 36.6258C119.433 36.6359 119.382 36.6262 119.34 36.5988C119.298 36.5715 119.269 36.5287 119.258 36.4797C119.252 36.4557 119.251 36.4308 119.255 36.4065C119.259 36.3821 119.268 36.3588 119.281 36.338C119.295 36.3171 119.312 36.2991 119.332 36.285C119.352 36.2708 119.375 36.2609 119.399 36.2557L121.795 35.7299C121.819 35.7242 121.843 35.7233 121.868 35.7273C121.892 35.7314 121.915 35.7402 121.936 35.7534C121.957 35.7665 121.975 35.7837 121.989 35.8039C122.003 35.8242 122.013 35.847 122.018 35.8711C122.026 35.8982 122.026 35.9268 122.018 35.9539C122.011 35.9797 121.999 36.0043 121.984 36.0269Z" fill="#F8F8F8"/>
<path d="M127.116 38.8216L124.341 39.4351H124.316C124.279 39.4493 124.237 39.4493 124.2 39.4351C124.178 39.4248 124.159 39.4102 124.143 39.3921C124.127 39.3741 124.115 39.353 124.108 39.3302C124.101 39.3074 124.098 39.2833 124.1 39.2595C124.103 39.2357 124.11 39.2126 124.122 39.1916L126.274 34.844C126.284 34.8228 126.299 34.8039 126.317 34.7887C126.336 34.7734 126.357 34.762 126.38 34.7552C126.402 34.7484 126.426 34.7462 126.45 34.7489C126.474 34.7516 126.496 34.7591 126.517 34.7709C126.548 34.7886 126.575 34.8137 126.595 34.844C126.594 34.8537 126.594 34.8635 126.595 34.8732L127.374 38.3883L127.715 38.3104C127.738 38.3053 127.762 38.3048 127.786 38.309C127.809 38.3133 127.832 38.3221 127.852 38.3349C127.872 38.3478 127.889 38.3645 127.903 38.3841C127.917 38.4037 127.926 38.4258 127.931 38.4492C127.936 38.4725 127.937 38.4966 127.933 38.5202C127.928 38.5437 127.92 38.5661 127.907 38.5862C127.894 38.6064 127.877 38.6237 127.858 38.6374C127.838 38.6511 127.816 38.6607 127.793 38.6658L127.452 38.7389L127.642 39.6201C127.647 39.6434 127.647 39.6675 127.642 39.691C127.638 39.7145 127.629 39.7368 127.616 39.7567C127.603 39.7767 127.586 39.7938 127.566 39.8071C127.546 39.8204 127.524 39.8297 127.5 39.8343C127.477 39.84 127.453 39.841 127.43 39.8372C127.407 39.8334 127.384 39.8248 127.364 39.8121C127.344 39.7993 127.327 39.7826 127.313 39.763C127.3 39.7434 127.291 39.7213 127.286 39.698L127.116 38.8216ZM127.038 38.4662L126.371 35.4672L124.613 39.0066L127.038 38.4662Z" fill="#F8F8F8"/>
<path d="M129.268 38.9189C129.247 38.9056 129.23 38.8883 129.216 38.8681C129.202 38.8479 129.192 38.8251 129.187 38.8011C129.182 38.777 129.182 38.7523 129.187 38.7282C129.191 38.7041 129.201 38.6812 129.214 38.6608C129.242 38.6191 129.285 38.5897 129.334 38.5789C129.383 38.568 129.434 38.5764 129.477 38.6024C129.79 38.8009 130.168 38.8674 130.529 38.7874C130.891 38.7048 131.206 38.4826 131.406 38.1691C131.606 37.8555 131.674 37.4759 131.595 37.1126C131.558 36.932 131.486 36.7605 131.381 36.6085C131.277 36.4564 131.143 36.3268 130.988 36.2274C130.833 36.128 130.659 36.0607 130.477 36.0296C130.296 35.9985 130.11 36.0042 129.93 36.0464C129.749 36.0853 129.578 36.1601 129.427 36.2663C129.275 36.3725 129.147 36.508 129.049 36.6647C129.036 36.6857 129.019 36.7039 128.999 36.7182C128.979 36.7326 128.956 36.7428 128.932 36.7482C128.908 36.7537 128.883 36.7542 128.859 36.7499C128.835 36.7456 128.812 36.7365 128.791 36.7231C128.768 36.7109 128.748 36.6943 128.732 36.6744C128.729 36.6551 128.729 36.6353 128.732 36.616C128.735 36.6032 128.735 36.5899 128.732 36.5771L128.523 34.4592C128.518 34.4324 128.52 34.4049 128.528 34.3787C128.535 34.3526 128.549 34.3285 128.567 34.3083C128.593 34.2733 128.631 34.2491 128.674 34.2401L131.064 33.7143C131.088 33.7092 131.113 33.7089 131.137 33.7133C131.161 33.7178 131.184 33.7269 131.205 33.7402C131.226 33.7536 131.243 33.7708 131.257 33.791C131.271 33.8112 131.281 33.834 131.286 33.8579C131.291 33.8819 131.291 33.9067 131.287 33.9308C131.283 33.9549 131.273 33.9779 131.26 33.9984C131.247 34.019 131.229 34.0368 131.209 34.0507C131.189 34.0646 131.166 34.0743 131.142 34.0795L128.913 34.5663L129.063 36.1292C129.296 35.9178 129.579 35.7716 129.886 35.7056C130.113 35.6524 130.348 35.6457 130.577 35.6859C130.806 35.7261 131.025 35.8123 131.22 35.9393C131.419 36.0627 131.591 36.2258 131.724 36.4185C131.857 36.6112 131.949 36.8292 131.994 37.0591C132.047 37.2862 132.054 37.5216 132.014 37.7515C131.975 37.9814 131.891 38.2011 131.766 38.3979C131.506 38.7914 131.105 39.0703 130.646 39.1769C130.411 39.229 130.167 39.233 129.93 39.1886C129.694 39.1443 129.468 39.0525 129.268 38.9189Z" fill="#F8F8F8"/>
<path d="M133.377 34.3374C133.477 33.9706 133.674 33.6373 133.946 33.372C134.218 33.1066 134.556 32.9188 134.925 32.8281C134.971 32.8161 135.02 32.8227 135.061 32.8464C135.102 32.8701 135.132 32.909 135.144 32.9547C135.155 33.0036 135.147 33.0548 135.122 33.0981C135.097 33.1414 135.056 33.1736 135.008 33.1884C134.701 33.2637 134.42 33.4199 134.194 33.6408C133.968 33.8618 133.805 34.1393 133.723 34.4445C133.616 34.8044 133.568 35.1793 133.582 35.5545C133.698 35.3374 133.86 35.148 134.057 34.9993C134.254 34.8506 134.48 34.746 134.721 34.6928C135.053 34.6196 135.399 34.6457 135.717 34.7679C136.034 34.8901 136.308 35.103 136.506 35.38C136.703 35.6571 136.814 35.986 136.826 36.3259C136.838 36.6658 136.749 37.0016 136.571 37.2915C136.394 37.5814 136.134 37.8126 135.826 37.9563C135.518 38.1 135.174 38.1499 134.838 38.0996C134.501 38.0494 134.187 37.9013 133.934 37.6739C133.682 37.4464 133.501 37.1496 133.416 36.8204C133.379 36.7106 133.35 36.5984 133.328 36.4844C133.164 35.776 133.181 35.0377 133.377 34.3374ZM133.771 36.7084C133.777 36.7411 133.788 36.7725 133.806 36.8009C133.81 36.8185 133.81 36.8369 133.806 36.8544C133.924 37.1931 134.17 37.4724 134.49 37.6334C134.811 37.7943 135.182 37.8243 135.524 37.7169C135.867 37.6095 136.154 37.3733 136.325 37.058C136.497 36.7428 136.539 36.3732 136.443 36.0275C136.347 35.6817 136.12 35.3869 135.811 35.2052C135.501 35.0235 135.133 34.9692 134.785 35.0538C134.436 35.1384 134.134 35.3553 133.942 35.6586C133.75 35.9619 133.684 36.3279 133.757 36.6792L133.771 36.7084Z" fill="#F8F8F8"/>
<path d="M104.42 54.1661L59.7215 64.0591L60.2076 66.2552L104.906 56.3623L104.42 54.1661Z" fill="#A6A6A6"/>
<path d="M92.4448 61.931L60.8001 68.9348L61.2862 71.131L92.9309 64.1271L92.4448 61.931Z" fill="#A6A6A6"/>
<path d="M150.476 58.8948H48.5655V88.7249H150.476V58.8948Z" fill="#9DDD4C"/>
<path opacity="0.3" d="M150.476 58.8948H48.5655V88.7249H150.476V58.8948Z" fill="black"/>
<path d="M147.165 58.15L147.306 112.056C147.309 113.502 146.738 114.89 145.718 115.916C144.699 116.942 143.314 117.521 141.868 117.528L56.3699 117.747C55.6537 117.749 54.944 117.61 54.2817 117.337C53.6193 117.064 53.0173 116.664 52.5099 116.158C52.0025 115.653 51.5998 115.052 51.3248 114.391C51.0498 113.729 50.908 113.02 50.9073 112.304L50.7661 58.4227C50.7642 57.756 50.8937 57.0956 51.1472 56.479C51.4006 55.8625 51.7731 55.3019 52.2434 54.8294C52.7136 54.3569 53.2724 53.9817 53.8877 53.7253C54.503 53.4689 55.1629 53.3362 55.8295 53.3349L142.072 53.0672C142.741 53.0652 143.403 53.1953 144.021 53.45C144.639 53.7046 145.201 54.0788 145.674 54.551C146.147 55.0233 146.523 55.5843 146.778 56.2019C147.034 56.8195 147.166 57.4815 147.165 58.15Z" fill="#F9BB40"/>
<path d="M133.879 104.494C133.882 105.487 133.59 106.459 133.041 107.286C132.492 108.113 131.71 108.758 130.794 109.141C129.877 109.524 128.868 109.626 127.894 109.435C126.92 109.244 126.024 108.769 125.32 108.069C124.616 107.369 124.135 106.476 123.939 105.503C123.742 104.53 123.839 103.52 124.216 102.602C124.593 101.683 125.234 100.898 126.058 100.344C126.882 99.7896 127.852 99.4924 128.845 99.4895C129.504 99.4876 130.157 99.6155 130.767 99.866C131.376 100.117 131.931 100.485 132.398 100.949C132.866 101.414 133.237 101.966 133.491 102.575C133.745 103.183 133.877 103.835 133.879 104.494Z" fill="#A6A6A6"/>
<path d="M140.057 104.475C140.06 105.468 139.768 106.439 139.219 107.266C138.67 108.093 137.888 108.739 136.972 109.121C136.056 109.504 135.047 109.606 134.072 109.415C133.098 109.225 132.202 108.749 131.498 108.049C130.794 107.349 130.314 106.456 130.117 105.483C129.921 104.51 130.017 103.5 130.394 102.582C130.772 101.664 131.413 100.878 132.236 100.324C133.06 99.7701 134.03 99.4729 135.023 99.47C136.354 99.4674 137.631 99.9929 138.575 100.931C139.519 101.87 140.052 103.144 140.057 104.475Z" fill="#3EA4E0"/>
<path d="M75.4165 62.5156L61.4095 62.5523C60.2802 62.5552 59.3671 63.4731 59.37 64.6024L59.3921 73.0203C59.395 74.1496 60.3129 75.0627 61.4422 75.0597L75.4492 75.0231C76.5785 75.0201 77.4916 74.1022 77.4887 72.9729L77.4667 64.555C77.4637 63.4257 76.5458 62.5126 75.4165 62.5156Z" fill="#3EA4E0"/>
<path d="M136.546 69.2163L128.357 69.2406C127.907 69.2445 127.461 69.1592 127.044 68.9896C126.627 68.8201 126.248 68.5697 125.929 68.2528C125.609 67.936 125.355 67.559 125.182 67.1436C125.009 66.7282 124.92 66.2826 124.92 65.8326C124.916 65.3826 125.002 64.9363 125.171 64.5194C125.341 64.1026 125.591 63.7234 125.908 63.4038C126.225 63.0843 126.602 62.8306 127.017 62.6575C127.433 62.4844 127.878 62.3953 128.328 62.3953L136.517 62.371C136.967 62.3671 137.414 62.4524 137.83 62.622C138.247 62.7915 138.626 63.0419 138.946 63.3588C139.266 63.6756 139.519 64.0527 139.692 64.4681C139.865 64.8835 139.955 65.329 139.955 65.779C139.958 66.229 139.873 66.6754 139.704 67.0922C139.534 67.5091 139.284 67.8882 138.967 68.2078C138.65 68.5274 138.273 68.781 137.857 68.9541C137.442 69.1272 136.996 69.2163 136.546 69.2163Z" fill="white"/>
<path d="M58.7604 86.4662L58.0204 86.9044C57.994 86.9212 57.9639 86.9312 57.9327 86.9336C57.9006 86.9347 57.8687 86.9271 57.8404 86.9117C57.8122 86.8963 57.7886 86.8736 57.7721 86.8459C57.7593 86.8254 57.7509 86.8025 57.7474 86.7785C57.7439 86.7546 57.7454 86.7302 57.7518 86.7069C57.7582 86.6836 57.7694 86.6618 57.7846 86.643C57.7998 86.6242 57.8187 86.6088 57.8402 86.5976L58.8529 85.9793C58.8945 85.9577 58.9429 85.9527 58.9881 85.9653C59.0333 85.978 59.072 86.0074 59.0963 86.0475C59.1213 86.0882 59.13 86.1369 59.1207 86.1838V91.0038C59.1207 91.0274 59.116 91.0508 59.107 91.0727C59.0979 91.0945 59.0846 91.1144 59.0679 91.1311C59.0512 91.1479 59.0313 91.1611 59.0095 91.1702C58.9876 91.1792 58.9642 91.1839 58.9405 91.1839C58.8931 91.1827 58.848 91.1633 58.8145 91.1298C58.781 91.0963 58.7616 91.0512 58.7604 91.0038V86.4662Z" fill="#F8F8F8"/>
<path d="M60.4206 90.8573L62.855 88.6372C63.1197 88.3957 63.2776 88.059 63.294 87.7011C63.3105 87.3432 63.1841 86.9934 62.9426 86.7287C62.7011 86.464 62.3644 86.306 62.0065 86.2896C61.6486 86.2732 61.2988 86.3996 61.0341 86.641L60.7809 86.8747C60.7645 86.8926 60.7446 86.9069 60.7224 86.9166C60.7001 86.9263 60.6762 86.9314 60.6519 86.9314C60.6276 86.9314 60.6037 86.9263 60.5814 86.9166C60.5592 86.9069 60.5393 86.8926 60.5229 86.8747C60.5052 86.8588 60.491 86.8392 60.4813 86.8174C60.4716 86.7956 60.4666 86.772 60.4666 86.7482C60.4666 86.7243 60.4716 86.7007 60.4813 86.6789C60.491 86.6571 60.5052 86.6376 60.5229 86.6216L60.776 86.383C61.0942 86.0964 61.5066 85.937 61.9348 85.9351C62.1727 85.9335 62.4082 85.9826 62.6256 86.0792C62.843 86.1757 63.0374 86.3175 63.1958 86.495C63.4893 86.8052 63.6515 87.2169 63.6486 87.644C63.6498 87.8835 63.601 88.1206 63.5055 88.3403C63.4099 88.5599 63.2696 88.7572 63.0935 88.9196L60.9951 90.8184H63.5171C63.5414 90.819 63.5653 90.8244 63.5875 90.8343C63.6097 90.8442 63.6298 90.8583 63.6465 90.876C63.6632 90.8936 63.6763 90.9144 63.685 90.9371C63.6937 90.9598 63.6979 90.9839 63.6972 91.0082C63.696 91.0556 63.6766 91.1007 63.6431 91.1343C63.6096 91.1678 63.5645 91.1871 63.5171 91.1884H60.5667C60.5414 91.1905 60.5159 91.1868 60.4923 91.1775C60.4687 91.1682 60.4475 91.1536 60.4304 91.1348C60.4113 91.1174 60.3959 91.0963 60.3851 91.0728C60.3743 91.0493 60.3683 91.0239 60.3674 90.9981C60.3665 90.9723 60.3707 90.9465 60.3798 90.9224C60.389 90.8982 60.4029 90.8761 60.4206 90.8573Z" fill="#F8F8F8"/>
<path d="M68.0109 86.2422L66.6574 87.6346C67.0599 87.713 67.4224 87.9296 67.682 88.247C67.9416 88.5645 68.0821 88.9627 68.0791 89.3727C68.0804 89.607 68.035 89.8392 67.9455 90.0557C67.8561 90.2722 67.7244 90.4687 67.5581 90.6337C67.224 90.9691 66.7705 91.1582 66.2971 91.1595C66.0644 91.1601 65.834 91.1143 65.6191 91.0249C65.4043 90.9354 65.2094 90.8041 65.0459 90.6386C65.0273 90.6221 65.0123 90.6019 65.0021 90.5792C64.9919 90.5566 64.9866 90.532 64.9866 90.5071C64.9866 90.4822 64.9919 90.4577 65.0021 90.435C65.0123 90.4123 65.0273 90.3921 65.0459 90.3757C65.0631 90.3583 65.0836 90.3445 65.1062 90.3351C65.1287 90.3257 65.1529 90.3208 65.1774 90.3208C65.2018 90.3208 65.226 90.3257 65.2486 90.3351C65.2711 90.3445 65.2916 90.3583 65.3088 90.3757C65.569 90.631 65.918 90.7758 66.2825 90.7798C66.6468 90.7697 66.9941 90.6238 67.2563 90.3708C67.3872 90.2398 67.4907 90.0842 67.5609 89.9128C67.6311 89.7415 67.6666 89.5579 67.6652 89.3727C67.6627 89.0012 67.5133 88.6458 67.2497 88.3841C66.9861 88.1223 66.6297 87.9754 66.2582 87.9754C66.229 87.9737 66.2005 87.9659 66.1745 87.9525C66.1485 87.9391 66.1256 87.9203 66.1073 87.8975C66.0892 87.8802 66.0747 87.8595 66.0649 87.8365C66.055 87.8134 66.0499 87.7887 66.0499 87.7636C66.0499 87.7386 66.055 87.7138 66.0649 87.6908C66.0747 87.6678 66.0892 87.647 66.1073 87.6297L67.4072 86.2811H65.3965C65.3519 86.2739 65.3114 86.2511 65.2822 86.2168C65.2529 86.1824 65.2369 86.1388 65.2369 86.0937C65.2369 86.0486 65.2529 86.0049 65.2822 85.9706C65.3114 85.9363 65.3519 85.9134 65.3965 85.9062H67.8308C67.8798 85.9062 67.9269 85.9257 67.9616 85.9604C67.9963 85.9951 68.0158 86.0422 68.0158 86.0912C68.024 86.1182 68.024 86.1471 68.0158 86.174C68.0181 86.1969 68.0164 86.2199 68.0109 86.2422Z" fill="#F8F8F8"/>
<path d="M72.4266 90.0691H69.5833C69.5423 90.0714 69.502 90.0574 69.4713 90.0302C69.4519 90.016 69.4358 89.9979 69.4239 89.977C69.412 89.9561 69.4047 89.933 69.4024 89.9091C69.4001 89.8852 69.4029 89.861 69.4106 89.8383C69.4183 89.8155 69.4306 89.7947 69.447 89.777L72.4753 85.9893C72.4899 85.9705 72.5082 85.9549 72.5291 85.9435C72.5499 85.932 72.5729 85.925 72.5966 85.9227C72.6203 85.9204 72.6442 85.923 72.6669 85.9302C72.6895 85.9375 72.7105 85.9493 72.7284 85.9649C72.757 85.9899 72.7788 86.0217 72.7917 86.0574C72.7917 86.0574 72.7917 86.0574 72.7917 86.0866V86.111V89.7089H73.1471C73.1949 89.7089 73.2407 89.7279 73.2745 89.7616C73.3083 89.7954 73.3273 89.8412 73.3273 89.889C73.3273 89.9368 73.3083 89.9826 73.2745 90.0164C73.2407 90.0502 73.1949 90.0691 73.1471 90.0691H72.7917V90.9698C72.7846 91.0131 72.7624 91.0525 72.7289 91.0809C72.6955 91.1093 72.653 91.1249 72.6091 91.1249C72.5653 91.1249 72.5228 91.1093 72.4894 91.0809C72.4559 91.0525 72.4337 91.0131 72.4266 90.9698V90.0691ZM72.4266 89.7089V86.6368L69.9533 89.7137L72.4266 89.7089Z" fill="#F8F8F8"/>
<path d="M83.9946 87.0163C84.1711 86.6796 84.4343 86.396 84.7569 86.1949C85.0795 85.9938 85.45 85.8824 85.83 85.8722C85.8775 85.8708 85.9237 85.8877 85.959 85.9194C85.9944 85.9511 86.0162 85.9952 86.0199 86.0426C86.0201 86.0923 86.0018 86.1403 85.9685 86.1772C85.9352 86.2142 85.8893 86.2373 85.8398 86.2422C85.5208 86.2513 85.2102 86.3467 84.9411 86.5181C84.6719 86.6896 84.4542 86.9307 84.311 87.2159C84.1302 87.5435 84.0052 87.8989 83.941 88.2675C84.207 87.9676 84.5692 87.7699 84.9653 87.7082C85.3614 87.6466 85.7665 87.7249 86.1111 87.9297C86.4556 88.1346 86.718 88.4531 86.8531 88.8305C86.9881 89.2079 86.9874 89.6206 86.851 89.9976C86.7147 90.3745 86.4512 90.6921 86.1059 90.8957C85.7606 91.0994 85.3552 91.1763 84.9593 91.1133C84.5635 91.0502 84.202 90.8512 83.937 90.5504C83.6721 90.2496 83.5203 89.8658 83.5077 89.4652C83.5003 89.3517 83.5003 89.2379 83.5077 89.1244C83.49 88.3919 83.6574 87.6668 83.9946 87.0163ZM83.8729 89.4165C83.8698 89.4489 83.8698 89.4815 83.8729 89.5139C83.8758 89.5316 83.8758 89.5497 83.8729 89.5674C83.8962 89.9256 84.058 90.2606 84.3238 90.5017C84.5897 90.7428 84.9389 90.871 85.2977 90.8593C85.6564 90.8476 85.9965 90.6969 86.2461 90.439C86.4957 90.1811 86.6353 89.8363 86.6353 89.4774C86.6353 89.1185 86.4957 88.7736 86.2461 88.5157C85.9965 88.2578 85.6564 88.1071 85.2977 88.0954C84.9389 88.0837 84.5897 88.212 84.3238 88.453C84.058 88.6941 83.8962 89.0292 83.8729 89.3873V89.4165Z" fill="#F8F8F8"/>
<path d="M88.8926 90.8526L90.84 86.242H88.3083C88.261 86.2408 88.2158 86.2214 88.1823 86.1879C88.1488 86.1544 88.1294 86.1093 88.1282 86.0619C88.1282 86.0149 88.1465 85.9698 88.1792 85.9362C88.212 85.9025 88.2565 85.883 88.3035 85.8817H91.0786C91.1149 85.8695 91.1542 85.8695 91.1906 85.8817C91.2374 85.905 91.2739 85.9449 91.2928 85.9937C91.2951 86.0148 91.2951 86.036 91.2928 86.057C91.2929 86.0916 91.2827 86.1255 91.2636 86.1544L89.2431 90.9889C89.2291 91.0215 89.2061 91.0493 89.1768 91.0692C89.1474 91.089 89.113 91.1 89.0776 91.1009C89.0537 91.1078 89.0284 91.1078 89.0046 91.1009C88.9579 91.0814 88.9204 91.0449 88.8996 90.9988C88.8788 90.9527 88.8763 90.9005 88.8926 90.8526Z" fill="#F8F8F8"/>
<path d="M94.063 85.8428C94.3527 85.8415 94.6311 85.955 94.8373 86.1585C95.0435 86.3619 95.1607 86.6388 95.1633 86.9285C95.1622 87.1007 95.1211 87.2704 95.0434 87.4241C94.9657 87.5779 94.8534 87.7115 94.7154 87.8146C95.0791 87.9645 95.3795 88.2359 95.5653 88.5826C95.7512 88.9293 95.811 89.3297 95.7346 89.7156C95.6582 90.1014 95.4503 90.4488 95.1464 90.6985C94.8424 90.9482 94.4612 91.0847 94.0679 91.0847C93.6745 91.0847 93.2933 90.9482 92.9894 90.6985C92.6854 90.4488 92.4775 90.1014 92.4011 89.7156C92.3247 89.3297 92.3845 88.9293 92.5704 88.5826C92.7563 88.2359 93.0567 87.9645 93.4203 87.8146C93.2838 87.7108 93.1732 87.5767 93.0972 87.423C93.0211 87.2693 92.9818 87.1 92.9822 86.9285C92.9815 86.7861 93.009 86.6451 93.063 86.5134C93.1171 86.3817 93.1966 86.262 93.297 86.1611C93.3974 86.0602 93.5168 85.9801 93.6482 85.9255C93.7797 85.8709 93.9206 85.8428 94.063 85.8428ZM94.063 90.7114C94.329 90.7114 94.589 90.6325 94.81 90.4846C95.0311 90.3367 95.2033 90.1266 95.3049 89.8808C95.4065 89.635 95.4328 89.3645 95.3805 89.1037C95.3283 88.8429 95.1998 88.6035 95.0114 88.4158C94.823 88.2281 94.5831 88.1004 94.3221 88.0492C94.0612 87.9979 93.7908 88.0252 93.5454 88.1276C93.2999 88.2301 93.0904 88.4031 92.9433 88.6247C92.7963 88.8463 92.7183 89.1066 92.7193 89.3725C92.716 89.5518 92.7488 89.7299 92.8159 89.8962C92.883 90.0625 92.983 90.2136 93.1098 90.3404C93.2365 90.4672 93.3876 90.5671 93.5539 90.6342C93.7202 90.7013 93.8983 90.7342 94.0776 90.7309L94.063 90.7114ZM94.063 87.6539C94.2585 87.6501 94.4447 87.5701 94.582 87.431C94.7194 87.2918 94.7969 87.1045 94.7982 86.909C94.7953 86.7654 94.7501 86.6259 94.6684 86.5078C94.5866 86.3898 94.4719 86.2985 94.3385 86.2453C94.2051 86.1921 94.059 86.1794 93.9184 86.2088C93.7779 86.2382 93.6491 86.3084 93.5482 86.4107C93.4473 86.5129 93.3789 86.6425 93.3513 86.7835C93.3237 86.9244 93.3383 87.0703 93.3933 87.203C93.4482 87.3357 93.541 87.4492 93.6601 87.5294C93.7793 87.6096 93.9194 87.6529 94.063 87.6539Z" fill="#F8F8F8"/>
<path d="M103.396 85.8183C103.821 85.8153 104.232 85.9691 104.551 86.2502C104.87 86.5313 105.074 86.9201 105.124 87.3422C105.122 87.355 105.122 87.3683 105.124 87.3811C105.124 87.5207 105.124 87.6716 105.124 87.8339C105.141 88.5616 104.973 89.2817 104.638 89.9274C104.458 90.2619 104.194 90.5435 103.872 90.7442C103.55 90.945 103.181 91.0578 102.802 91.0715C102.778 91.0728 102.754 91.0693 102.731 91.0611C102.709 91.053 102.688 91.0404 102.67 91.024C102.652 91.0077 102.638 90.9879 102.628 90.966C102.618 90.9441 102.613 90.9203 102.612 90.8963C102.612 90.847 102.631 90.7996 102.664 90.7635C102.697 90.7273 102.743 90.7052 102.792 90.7015C103.111 90.6913 103.421 90.5955 103.69 90.4242C103.959 90.2529 104.177 90.0123 104.321 89.7278C104.505 89.4014 104.63 89.0456 104.691 88.6762C104.529 88.8605 104.329 89.0076 104.104 89.1076C103.88 89.2076 103.637 89.258 103.391 89.2555C102.933 89.2555 102.493 89.0734 102.169 88.7493C101.845 88.4252 101.663 87.9856 101.663 87.5272C101.663 87.0688 101.845 86.6292 102.169 86.305C102.493 85.9809 102.933 85.7988 103.391 85.7988L103.396 85.8183ZM104.774 87.5418C104.775 87.27 104.695 87.0041 104.545 86.7777C104.395 86.5513 104.18 86.3745 103.93 86.2699C103.679 86.1652 103.403 86.1373 103.136 86.1898C102.869 86.2422 102.624 86.3726 102.432 86.5644C102.239 86.7562 102.108 87.0008 102.055 87.2673C102.001 87.5337 102.028 87.81 102.132 88.0612C102.236 88.3123 102.412 88.5271 102.638 88.6781C102.863 88.8292 103.129 88.9099 103.401 88.9099C103.581 88.9111 103.76 88.8767 103.927 88.8084C104.094 88.7402 104.245 88.6396 104.373 88.5123C104.501 88.3851 104.602 88.2338 104.671 88.0672C104.739 87.9006 104.774 87.722 104.774 87.5418Z" fill="#F8F8F8"/>
<path d="M106.473 88.4377C106.455 87.7902 106.624 87.1511 106.96 86.5974C107.087 86.3604 107.277 86.1623 107.508 86.0242C107.739 85.8861 108.003 85.8132 108.272 85.8132C108.541 85.8132 108.805 85.8861 109.036 86.0242C109.267 86.1623 109.457 86.3604 109.584 86.5974C109.918 87.1504 110.095 87.7843 110.095 88.4304C110.095 89.0766 109.918 89.7104 109.584 90.2635C109.464 90.5091 109.277 90.7161 109.045 90.8609C108.813 91.0056 108.545 91.0824 108.272 91.0824C107.999 91.0824 107.731 91.0056 107.499 90.8609C107.267 90.7161 107.08 90.5091 106.96 90.2635C106.623 89.7153 106.454 89.0807 106.473 88.4377ZM106.843 88.4377C106.831 89.0111 106.985 89.5756 107.286 90.0638C107.377 90.2534 107.52 90.4134 107.698 90.5254C107.875 90.6374 108.081 90.6968 108.292 90.6968C108.502 90.6968 108.708 90.6374 108.886 90.5254C109.063 90.4134 109.206 90.2534 109.297 90.0638C109.593 89.5732 109.75 89.0109 109.75 88.4377C109.75 87.8645 109.593 87.3023 109.297 86.8116C109.206 86.6234 109.063 86.4647 108.886 86.3536C108.708 86.2426 108.503 86.1837 108.294 86.1837C108.085 86.1837 107.88 86.2426 107.702 86.3536C107.525 86.4647 107.382 86.6234 107.291 86.8116C106.988 87.297 106.834 87.8607 106.848 88.4329L106.843 88.4377Z" fill="#F8F8F8"/>
<path d="M112.53 86.3298L111.79 86.7631C111.764 86.7815 111.734 86.7932 111.702 86.7972C111.669 86.7973 111.637 86.7888 111.609 86.7726C111.581 86.7563 111.558 86.7329 111.541 86.7047C111.528 86.6844 111.519 86.6614 111.515 86.6373C111.511 86.6132 111.512 86.5886 111.519 86.565C111.525 86.5415 111.537 86.5196 111.552 86.5009C111.568 86.4821 111.587 86.467 111.609 86.4564L112.617 85.8381C112.66 85.8162 112.709 85.811 112.755 85.8237C112.801 85.8363 112.84 85.8658 112.866 85.9063C112.89 85.9472 112.899 85.9957 112.89 86.0426V90.8625C112.89 90.9103 112.871 90.9561 112.837 90.9899C112.803 91.0237 112.758 91.0427 112.71 91.0427C112.662 91.0427 112.616 91.0237 112.582 90.9899C112.549 90.9561 112.53 90.9103 112.53 90.8625V86.3298Z" fill="#F8F8F8"/>
<path d="M114.19 90.7166L116.624 88.5014C116.826 88.3184 116.967 88.0788 117.03 87.814C117.092 87.5492 117.073 87.2717 116.975 87.0178C116.877 86.7639 116.705 86.5457 116.481 86.3916C116.256 86.2376 115.991 86.155 115.719 86.1547C115.382 86.1545 115.056 86.2775 114.803 86.5004L114.55 86.7341C114.534 86.7519 114.514 86.7662 114.492 86.7759C114.469 86.7857 114.445 86.7907 114.421 86.7907C114.397 86.7907 114.373 86.7857 114.351 86.7759C114.329 86.7662 114.309 86.7519 114.292 86.7341C114.274 86.7181 114.26 86.6986 114.251 86.6768C114.241 86.655 114.236 86.6314 114.236 86.6075C114.236 86.5836 114.241 86.56 114.251 86.5382C114.26 86.5164 114.274 86.4969 114.292 86.4809L114.545 86.2375C114.865 85.9535 115.277 85.7959 115.704 85.7944C116.157 85.7957 116.59 85.9753 116.911 86.2943C117.232 86.6134 117.414 87.046 117.418 87.4984C117.419 87.738 117.37 87.9751 117.275 88.1947C117.179 88.4143 117.039 88.6116 116.863 88.774L114.764 90.6777H117.247C117.272 90.6783 117.296 90.6837 117.318 90.6936C117.34 90.7035 117.36 90.7176 117.377 90.7353C117.394 90.7529 117.407 90.7737 117.415 90.7963C117.424 90.819 117.428 90.8432 117.428 90.8675C117.426 90.9149 117.407 90.96 117.373 90.9935C117.34 91.0271 117.295 91.0464 117.247 91.0477H114.297C114.272 91.0498 114.246 91.0461 114.223 91.0368C114.199 91.0275 114.178 91.0129 114.161 90.9941C114.128 90.9532 114.113 90.9013 114.119 90.8494C114.124 90.7975 114.15 90.7499 114.19 90.7166Z" fill="#F8F8F8"/>
<path d="M126.274 86.0911L124.92 87.4884C125.324 87.565 125.687 87.7812 125.947 88.099C126.207 88.4168 126.347 88.816 126.342 89.2265C126.344 89.4609 126.299 89.6933 126.209 89.9099C126.12 90.1265 125.988 90.323 125.821 90.4875C125.657 90.6535 125.461 90.7853 125.245 90.8753C125.03 90.9653 124.798 91.0116 124.565 91.0116C124.331 91.0116 124.1 90.9653 123.884 90.8753C123.669 90.7853 123.473 90.6535 123.309 90.4875C123.291 90.4703 123.278 90.4498 123.268 90.4272C123.259 90.4047 123.254 90.3805 123.254 90.356C123.254 90.3316 123.259 90.3074 123.268 90.2848C123.278 90.2623 123.291 90.2418 123.309 90.2246C123.326 90.2066 123.346 90.1923 123.368 90.1825C123.391 90.1727 123.415 90.1676 123.44 90.1676C123.465 90.1676 123.489 90.1727 123.512 90.1825C123.534 90.1923 123.555 90.2066 123.572 90.2246C123.832 90.4795 124.181 90.6227 124.545 90.6238C124.909 90.6179 125.258 90.4734 125.519 90.2197C125.712 90.0233 125.843 89.7748 125.896 89.5048C125.95 89.2349 125.923 88.9552 125.819 88.7002C125.716 88.4452 125.54 88.226 125.314 88.0695C125.088 87.913 124.82 87.8261 124.545 87.8195C124.516 87.8209 124.487 87.8149 124.461 87.8022C124.434 87.7894 124.411 87.7703 124.394 87.7465C124.359 87.7109 124.339 87.6627 124.339 87.6126C124.339 87.5624 124.359 87.5142 124.394 87.4787L125.694 86.1301H123.688C123.664 86.1307 123.639 86.1264 123.616 86.1174C123.593 86.1084 123.572 86.0949 123.554 86.0776C123.537 86.0604 123.523 86.0398 123.513 86.017C123.503 85.9942 123.499 85.9698 123.499 85.9451C123.498 85.9204 123.502 85.8958 123.511 85.8728C123.52 85.8498 123.534 85.8288 123.551 85.8111C123.568 85.7934 123.589 85.7793 123.612 85.7697C123.634 85.7601 123.659 85.7552 123.684 85.7552H126.118C126.143 85.7545 126.167 85.7588 126.19 85.7678C126.213 85.7769 126.234 85.7904 126.252 85.8076C126.27 85.8249 126.284 85.8455 126.293 85.8682C126.303 85.891 126.308 85.9155 126.308 85.9402C126.316 85.9672 126.316 85.996 126.308 86.023C126.305 86.0491 126.293 86.0733 126.274 86.0911Z" fill="#F8F8F8"/>
<path d="M130.704 89.9179H127.841C127.821 89.9209 127.801 89.9194 127.782 89.9135C127.762 89.9076 127.744 89.8975 127.729 89.8838C127.71 89.8696 127.694 89.8515 127.682 89.8306C127.67 89.8097 127.663 89.7866 127.661 89.7627C127.658 89.7388 127.661 89.7147 127.669 89.6919C127.676 89.6692 127.689 89.6483 127.705 89.6307L130.733 85.8429C130.748 85.8235 130.766 85.8073 130.787 85.7955C130.807 85.7836 130.831 85.7763 130.855 85.774C130.878 85.7717 130.903 85.7745 130.925 85.7821C130.948 85.7898 130.969 85.8022 130.987 85.8185C131.012 85.845 131.032 85.8765 131.045 85.911C131.045 85.911 131.045 85.911 131.045 85.9402V85.9646V89.5625H131.396C131.443 89.5625 131.489 89.5815 131.523 89.6153C131.557 89.649 131.576 89.6949 131.576 89.7426C131.576 89.7904 131.557 89.8362 131.523 89.87C131.489 89.9038 131.443 89.9228 131.396 89.9228H131.045V90.8235C131.045 90.8475 131.04 90.8714 131.031 90.8936C131.021 90.9157 131.008 90.9358 130.991 90.9526C130.973 90.9694 130.953 90.9826 130.93 90.9913C130.908 91.0001 130.884 91.0043 130.86 91.0036C130.813 91.0024 130.767 90.983 130.734 90.9495C130.7 90.916 130.681 90.8709 130.68 90.8235L130.704 89.9179ZM130.704 89.5576V86.4855L128.207 89.582L130.704 89.5576Z" fill="#F8F8F8"/>
<path d="M132.774 90.4731C132.756 90.4559 132.742 90.4354 132.733 90.4129C132.724 90.3903 132.719 90.3661 132.719 90.3416C132.719 90.3172 132.724 90.293 132.733 90.2704C132.742 90.2479 132.756 90.2274 132.774 90.2102C132.81 90.1745 132.859 90.1545 132.91 90.1545C132.961 90.1545 133.01 90.1745 133.046 90.2102C133.176 90.34 133.33 90.443 133.5 90.5133C133.669 90.5836 133.851 90.6197 134.034 90.6197C134.218 90.6197 134.4 90.5836 134.569 90.5133C134.739 90.443 134.893 90.34 135.023 90.2102C135.152 90.0831 135.255 89.9316 135.325 89.7644C135.395 89.5972 135.432 89.4178 135.432 89.2365C135.434 89.0523 135.4 88.8694 135.331 88.6987C135.261 88.528 135.159 88.3729 135.028 88.2426C134.898 88.1123 134.743 88.0095 134.572 87.9402C134.402 87.8709 134.219 87.8366 134.034 87.8392C133.853 87.8406 133.673 87.8779 133.506 87.9489C133.339 88.0199 133.188 88.1233 133.061 88.253C133.044 88.2717 133.024 88.2866 133.001 88.2968C132.979 88.3071 132.954 88.3124 132.929 88.3124C132.904 88.3124 132.88 88.3071 132.857 88.2968C132.835 88.2866 132.814 88.2717 132.798 88.253C132.775 88.2398 132.758 88.2191 132.749 88.1946C132.747 88.1866 132.747 88.1783 132.749 88.1703C132.744 88.1511 132.744 88.131 132.749 88.1118C132.749 88.1118 132.749 88.0875 132.749 88.0729L132.997 85.955C132.998 85.9287 133.004 85.9029 133.017 85.8799C133.03 85.8569 133.048 85.8376 133.071 85.8236C133.086 85.8074 133.105 85.7946 133.126 85.7863C133.147 85.7779 133.17 85.774 133.192 85.7749H135.627C135.654 85.7705 135.681 85.7721 135.708 85.7795C135.734 85.7869 135.759 85.7999 135.78 85.8178C135.801 85.8356 135.818 85.8577 135.829 85.8827C135.841 85.9077 135.847 85.9348 135.847 85.9623C135.847 85.9898 135.841 86.017 135.829 86.042C135.818 86.0669 135.801 86.0891 135.78 86.1069C135.759 86.1247 135.734 86.1378 135.708 86.1452C135.681 86.1526 135.654 86.1542 135.627 86.1498H133.343L133.158 87.7126C133.427 87.5545 133.733 87.4704 134.045 87.4688C134.357 87.4671 134.663 87.5481 134.934 87.7033C135.204 87.8586 135.429 88.0827 135.585 88.3528C135.741 88.6229 135.822 88.9295 135.821 89.2413C135.825 89.475 135.781 89.707 135.693 89.9236C135.606 90.1402 135.475 90.337 135.31 90.5023C134.974 90.8337 134.521 91.0206 134.049 91.0233C133.81 91.0219 133.574 90.9725 133.355 90.878C133.136 90.7835 132.938 90.6458 132.774 90.4731Z" fill="#F8F8F8"/>
<path d="M137.764 86.88C137.939 86.542 138.202 86.2572 138.525 86.0551C138.847 85.8531 139.218 85.7411 139.599 85.731C139.646 85.7309 139.692 85.7491 139.727 85.7817C139.761 85.8143 139.782 85.8589 139.784 85.9062C139.785 85.955 139.768 86.0024 139.735 86.0387C139.703 86.0749 139.657 86.0972 139.609 86.101C139.29 86.1112 138.98 86.207 138.711 86.3783C138.442 86.5496 138.224 86.7902 138.08 87.0747C137.9 87.403 137.773 87.758 137.705 88.1263C137.97 87.8242 138.333 87.624 138.73 87.5602C139.126 87.4964 139.533 87.5729 139.88 87.7766C140.226 87.9803 140.491 88.2985 140.628 88.6763C140.766 89.0541 140.767 89.468 140.632 89.8467C140.497 90.2254 140.234 90.5452 139.889 90.7511C139.544 90.957 139.138 91.0361 138.74 90.9748C138.343 90.9135 137.98 90.7156 137.712 90.4152C137.445 90.1148 137.291 89.7306 137.277 89.3289C137.269 89.2138 137.269 89.0983 137.277 88.9832C137.26 88.2523 137.427 87.529 137.764 86.88ZM137.642 89.2753C137.639 89.3077 137.639 89.3403 137.642 89.3727C137.645 89.3904 137.645 89.4085 137.642 89.4263C137.665 89.7844 137.827 90.1194 138.093 90.3605C138.359 90.6016 138.708 90.7298 139.067 90.7181C139.425 90.7065 139.766 90.5557 140.015 90.2978C140.265 90.0399 140.404 89.6951 140.404 89.3362C140.404 88.9773 140.265 88.6324 140.015 88.3745C139.766 88.1166 139.425 87.9659 139.067 87.9542C138.708 87.9425 138.359 88.0708 138.093 88.3119C137.827 88.5529 137.665 88.888 137.642 89.2461V89.2753Z" fill="#F8F8F8"/>
<path d="M105.248 100.062L59.468 100.182L59.4739 102.431L105.254 102.312L105.248 100.062Z" fill="#A6A6A6"/>
<path d="M91.8867 105.097L59.4763 105.182L59.4822 107.431L91.8925 107.347L91.8867 105.097Z" fill="#A6A6A6"/>
<path d="M121.751 62.3895L98.922 62.4492L98.9279 64.6985L121.757 64.6387L121.751 62.3895Z" fill="#A6A6A6"/>
<path d="M150.476 68.457H48.5658V118.404H150.476V68.457Z" fill="#9DDD4C"/>
<path opacity="0.2" d="M150.476 68.457H48.5658V118.404H150.476V68.457Z" fill="black"/>
<path d="M150.476 77.3325H48.5658V127.28H150.476V77.3325Z" fill="#9DDD4C"/>
<path opacity="0.3" d="M150.476 77.3325H48.5658V127.28H150.476V77.3325Z" fill="black"/>
<path d="M150.476 86.4856H48.5658V127.285H150.476V86.4856Z" fill="#9DDD4C"/>
<path opacity="0.2" d="M150.476 86.4856H48.5658V127.285H150.476V86.4856Z" fill="black"/>
<path d="M147.33 150.44L41.1505 135.347V48.1985L44.5586 50.7204C46.1938 51.937 48.1258 52.692 50.1526 52.9065L147.33 63.2912V150.44Z" fill="#9DDD4C"/>
<path d="M41.2997 51.9161L40.9998 52.2996L41.7668 52.8994L42.0667 52.516L41.2997 51.9161Z" fill="white"/>
<path d="M140.441 67.1862L138.494 66.9671L138.548 66.4803L140.495 66.6993L140.441 67.1862ZM137.004 66.8016L135.057 66.5825L135.11 66.0956L137.058 66.3147L137.004 66.8016ZM133.567 66.417L131.619 66.1979L131.673 65.711L133.62 65.935L133.567 66.417ZM130.13 66.0323L128.182 65.8133L128.236 65.3264L130.183 65.5455L130.13 66.0323ZM126.692 65.6477L124.745 65.4286L124.799 64.9418L126.746 65.1609L126.692 65.6477ZM123.284 65.2631L121.337 65.044L121.39 64.5572L123.338 64.7762L123.284 65.2631ZM119.847 64.8833L117.9 64.6594L117.953 64.1725L119.901 64.3916L119.847 64.8833ZM116.41 64.4987L114.462 64.2796L114.516 63.7928L116.463 64.0119L116.41 64.4987ZM112.973 64.1141L111.025 63.895L111.079 63.4082L113.026 63.6272L112.973 64.1141ZM109.54 63.7295L107.593 63.5104L107.646 63.0235L109.594 63.2426L109.54 63.7295ZM106.103 63.3449L104.156 63.1258L104.214 62.6389L106.161 62.858L106.103 63.3449ZM102.666 62.9602L100.718 62.7411L100.772 62.2543L102.719 62.4734L102.666 62.9602ZM99.2285 62.5756L97.281 62.3565L97.3346 61.8697L99.282 62.0888L99.2285 62.5756ZM95.7912 62.1959L93.8438 61.9719L93.8973 61.4851L95.8448 61.7041L95.7912 62.1959ZM92.3394 61.8307L90.3919 61.6116L90.4455 61.1248L92.3929 61.3439L92.3394 61.8307ZM88.9021 61.4461L86.9547 61.227L87.0082 60.7401L88.9557 60.9592L88.9021 61.4461ZM85.4649 61.0615L83.5174 60.8424L83.571 60.3555L85.5184 60.5795L85.4649 61.0615ZM82.0276 60.6769L80.0802 60.4578L80.1337 59.9709L82.0812 60.19L82.0276 60.6769ZM78.6098 60.2728L76.6624 60.0537L76.7159 59.5668L78.6634 59.7859L78.6098 60.2728ZM75.1774 59.8881L73.23 59.669L73.2884 59.1822L75.2359 59.4013L75.1774 59.8881ZM71.7402 59.5084L69.7927 59.2844L69.8463 58.7976L71.7937 59.0167L71.7402 59.5084ZM68.3029 59.1238L66.3555 58.9047L66.409 58.4178L68.3565 58.6369L68.3029 59.1238ZM64.8657 58.7391L62.9182 58.52L62.9718 58.0332L64.9192 58.2523L64.8657 58.7391ZM61.4576 58.3545L59.5102 58.1354L59.5637 57.6486L61.5112 57.8725L61.4576 58.3545ZM58.0204 57.9699L56.0729 57.7508L56.1265 57.2639L58.0739 57.483L58.0204 57.9699ZM54.5831 57.5853L52.6357 57.3662L52.6892 56.8793L54.6367 57.0984L54.5831 57.5853ZM51.1459 57.2007L49.9774 57.0741C49.7048 57.04 49.437 57.001 49.1692 56.9523L49.2569 56.4655C49.5149 56.5093 49.7729 56.5483 50.031 56.5775L51.1994 56.7089L51.1459 57.2007ZM47.7038 56.5872C47.0634 56.3793 46.4413 56.1187 45.8439 55.8082L46.0728 55.3749C46.6442 55.6741 47.2404 55.9233 47.8547 56.1198L47.7038 56.5872ZM44.5294 55.0146C44.3687 54.8978 44.2081 54.7809 44.0425 54.6592L42.9471 53.8023L43.2441 53.4177L44.3395 54.2746C44.4905 54.3914 44.6463 54.5034 44.8021 54.6154L44.5294 55.0146Z" fill="white"/>
<path d="M143.158 68.189H142.671V67.4344L141.917 67.3467L141.97 66.8647L143.158 66.9962V68.189Z" fill="white"/>
<path d="M143.158 144.057H142.671V142.085H143.158V144.057ZM143.158 140.605H142.671V138.633H143.158V140.605ZM143.158 137.158H142.671V135.186H143.158V137.158ZM143.158 133.711H142.671V131.739H143.158V133.711ZM143.158 130.259H142.671V128.312H143.158V130.259ZM143.158 126.812H142.671V124.841H143.158V126.812ZM143.158 123.365H142.671V121.394H143.158V123.365ZM143.158 119.913H142.671V117.966H143.158V119.913ZM143.158 116.467H142.671V114.495H143.158V116.467ZM143.158 113.02H142.671V111.048H143.158V113.02ZM143.158 109.573H142.671V107.596H143.158V109.573ZM143.158 106.121H142.671V104.173H143.158V106.121ZM143.158 102.674H142.671V100.702H143.158V102.674ZM143.158 99.2267H142.671V97.2549H143.158V99.2267ZM143.158 95.7748H142.671V93.8274H143.158V95.7748ZM143.158 92.3279H142.671V90.356H143.158V92.3279ZM143.158 88.8809H142.671V86.9091H143.158V88.8809ZM143.158 85.429H142.671V83.4815H143.158V85.429ZM143.158 81.982H142.671V80.0102H143.158V81.982ZM143.158 78.535H142.671V76.5632H143.158V78.535ZM143.158 75.088H142.671V73.1162H143.158V75.088ZM143.158 71.6362H142.671V69.6887H143.158V71.6362Z" fill="white"/>
<path d="M143.158 146.788L141.912 146.603L141.985 146.121L142.671 146.224V145.532H143.158V146.788Z" fill="white"/>
<path d="M140.442 146.389L138.494 146.102L138.562 145.615L140.51 145.902L140.442 146.389ZM137.033 145.902L135.086 145.615L135.159 145.128L137.107 145.415L137.033 145.902ZM133.625 145.415L131.678 145.128L131.751 144.641L133.698 144.929L133.625 145.415ZM130.217 144.929L128.27 144.641L128.343 144.154L130.29 144.442L130.217 144.929ZM126.809 144.442L124.862 144.154L124.93 143.668L126.878 143.955L126.809 144.442ZM123.401 143.955L121.454 143.668L121.522 143.181L123.469 143.468L123.401 143.955ZM119.993 143.468L118.046 143.181L118.119 142.694L120.066 142.981L119.993 143.468ZM116.585 142.981L114.638 142.694L114.711 142.207L116.658 142.494L116.585 142.981ZM113.177 142.494L111.23 142.207L111.303 141.72L113.25 142.007L113.177 142.494ZM109.769 142.007L107.822 141.72L107.895 141.233L109.842 141.525L109.769 142.007ZM106.361 141.521L104.414 141.233L104.482 140.746L106.429 141.034L106.361 141.521ZM102.953 141.034L101.006 140.746L101.079 140.26L103.026 140.547L102.953 141.034ZM99.545 140.547L97.5976 140.26L97.6706 139.773L99.6181 140.06L99.545 140.547ZM96.137 140.06L94.1895 139.773L94.2626 139.286L96.21 139.578L96.137 140.06ZM92.729 139.573L90.7815 139.286L90.8545 138.799L92.802 139.086L92.729 139.573ZM89.3209 139.086L87.3735 138.799L87.4416 138.312L89.3891 138.604L89.3209 139.086ZM85.9129 138.599L83.9654 138.312L84.0336 137.825L85.981 138.113L85.9129 138.599ZM82.5048 138.113L80.5574 137.825L80.6304 137.338L82.5779 137.626L82.5048 138.113ZM79.0968 137.626L77.1493 137.338L77.2224 136.852L79.1698 137.139L79.0968 137.626ZM75.6887 137.139L73.7413 136.852L73.8143 136.365L75.7618 136.657L75.6887 137.139ZM72.2807 136.652L70.3332 136.365L70.4014 135.878L72.3489 136.165L72.2807 136.652ZM68.8727 136.165L66.9252 135.878L66.9982 135.391L68.9457 135.683L68.8727 136.165ZM65.4646 135.678L63.5172 135.391L63.5902 134.904L65.5376 135.191L65.4646 135.678ZM62.0566 135.191L60.1091 134.904L60.1822 134.417L62.1296 134.709L62.0566 135.191ZM58.6485 134.704L56.7011 134.417L56.7741 133.93L58.7216 134.218L58.6485 134.704ZM55.2405 134.218L53.293 133.93L53.3612 133.444L55.3087 133.736L55.2405 134.218ZM51.8325 133.731L49.885 133.444L49.958 132.957L51.9055 133.244L51.8325 133.731ZM48.4244 133.244L46.477 132.957L46.55 132.47L48.4974 132.762L48.4244 133.244ZM45.0164 132.757L43.0689 132.47L43.1419 131.983L45.0894 132.27L45.0164 132.757Z" fill="white"/>
<path d="M41.1859 131.141L41.1144 131.623L42.0775 131.766L42.1491 131.285L41.1859 131.141Z" fill="white"/>
<path d="M133.64 111.165C135.977 111.165 137.871 109.007 137.871 106.345C137.871 103.683 135.977 101.525 133.64 101.525C131.303 101.525 129.409 103.683 129.409 106.345C129.409 109.007 131.303 111.165 133.64 111.165Z" fill="#EBEBEB"/>
<path d="M135.612 106.345C135.563 106.724 135.406 107.08 135.16 107.372C134.914 107.664 134.588 107.879 134.223 107.991C133.858 108.103 133.468 108.107 133.101 108.003C132.733 107.899 132.403 107.691 132.151 107.404C131.898 107.118 131.734 106.764 131.677 106.386C131.621 106.009 131.674 105.622 131.831 105.274C131.988 104.926 132.243 104.631 132.564 104.423C132.884 104.216 133.258 104.106 133.64 104.105C134.198 104.143 134.718 104.399 135.087 104.819C135.457 105.238 135.645 105.787 135.612 106.345Z" fill="#DBDBDB"/>
<defs>
<clipPath id="clip0_1712_10947">
<rect width="38.4622" height="9.73726" fill="white" transform="translate(46.9603 26.4937) rotate(-12.1149)"/>
</clipPath>
</defs>
</svg>
