<svg width="284" height="243" viewBox="0 0 284 243" fill="none" xmlns="http://www.w3.org/2000/svg">
<path d="M187.707 17.053C185.063 19.7671 185.121 24.1252 187.835 26.7684C190.549 29.4117 194.907 29.354 197.551 26.6398C200.194 23.9257 200.136 19.5676 197.422 16.9244C194.708 14.2811 190.35 14.3388 187.707 17.053ZM185.107 14.5215C189.153 10.3676 195.8 10.2796 199.954 14.3249C204.107 18.3703 204.195 25.0175 200.15 29.1713C196.105 33.3252 189.458 33.4132 185.304 29.3679C181.15 25.3225 181.062 18.6753 185.107 14.5215Z" fill="#F9BB40"/>
<path d="M105.496 47.061C104.166 48.4273 104.195 50.6213 105.561 51.952C106.927 53.2827 109.121 53.2536 110.452 51.8872C111.783 50.5209 111.754 48.3269 110.387 46.9962C109.021 45.6655 106.827 45.6946 105.496 47.061ZM104.188 45.7865C106.224 43.6953 109.571 43.651 111.662 45.6876C113.753 47.7241 113.797 51.0705 111.761 53.1617C109.724 55.2528 106.378 55.2971 104.287 53.2606C102.195 51.2241 102.151 47.8777 104.188 45.7865Z" fill="#F9BB40"/>
<path d="M208.496 77.061C207.165 78.4273 207.194 80.6213 208.561 81.952C209.927 83.2827 212.121 83.2536 213.452 81.8872C214.783 80.5209 214.753 78.3269 213.387 76.9962C212.021 75.6655 209.827 75.6946 208.496 77.061ZM207.187 75.7865C209.224 73.6953 212.57 73.651 214.662 75.6876C216.753 77.7241 216.797 81.0705 214.76 83.1617C212.724 85.2528 209.378 85.2971 207.286 83.2606C205.195 81.2241 205.151 77.8777 207.187 75.7865Z" fill="#53B57E"/>
<path d="M227.831 53.1408C227.096 52.3243 227.162 51.0664 227.979 50.3312C228.795 49.596 230.053 49.6619 230.788 50.4784C231.523 51.2949 231.457 52.5528 230.641 53.288C229.824 54.0232 228.566 53.9573 227.831 53.1408Z" fill="#53B57E"/>
<path d="M33.0318 34.6424C30.7594 36.9758 30.809 40.7223 33.1423 42.9947C35.4757 45.2671 39.2222 45.2175 41.4946 42.8841C43.767 40.5508 43.7174 36.8042 41.384 34.5319C39.0507 32.2595 35.3041 32.3091 33.0318 34.6424ZM30.7971 32.4661C34.2748 28.8951 39.9893 28.8194 43.5604 32.2972C47.1314 35.7749 47.207 41.4894 43.7293 45.0604C40.2516 48.6315 34.537 48.7071 30.966 45.2294C27.395 41.7517 27.3194 36.0371 30.7971 32.4661Z" fill="#0F9DF0"/>
<path d="M38.076 113L36.8386 115.033L36.1748 117.642L35.5122 115.21L34.2737 113.044L31.4451 114.591L32.7715 116.89L34.8935 118.79L32.0199 118.084H29.5001V121.31H31.9308L34.6276 120.603L32.4177 122.681L31.3121 124.537L34.1419 126.174L35.3353 124.14L36.2188 121.31L36.7935 123.875L38.076 126.041L40.9057 124.404L39.6232 122.238L37.6342 120.603L40.065 121.31H42.6738V118.04H40.021L37.4122 118.79L39.6672 116.845L40.9057 114.635L38.076 113Z" fill="#ED6C58"/>
<path d="M136.076 25L134.839 27.0329L134.175 29.6418L133.512 27.2099L132.274 25.0439L129.445 26.5912L130.772 28.8901L132.894 30.7901L130.02 30.0835H127.5V33.3099H129.931L132.628 32.6034L130.418 34.6814L129.312 36.5374L132.142 38.1738L133.335 36.1396L134.219 33.3099L134.793 35.8748L136.076 38.0408L138.906 36.4044L137.623 34.2385L135.634 32.6034L138.065 33.3099H140.674V30.0396H138.021L135.412 30.7901L137.667 28.845L138.906 26.6351L136.076 25Z" fill="#ED6C58"/>
<path d="M247.076 98L245.839 100.033L245.175 102.642L244.512 100.21L243.274 98.0439L240.445 99.5912L241.772 101.89L243.894 103.79L241.02 103.084H238.5V106.31H240.931L243.628 105.603L241.418 107.681L240.312 109.537L243.142 111.174L244.335 109.14L245.219 106.31L245.793 108.875L247.076 111.041L249.906 109.404L248.623 107.238L246.634 105.603L249.065 106.31H251.674V103.04H249.021L246.412 103.79L248.667 101.845L249.906 99.6351L247.076 98Z" fill="#ED6C58"/>
<path d="M70.488 35.0537C69.3901 35.0107 68.535 34.0859 68.5779 32.988C68.6209 31.8901 69.5457 31.0349 70.6435 31.0779C71.7414 31.1209 72.5965 32.0458 72.5536 33.1437C72.5106 34.2416 71.5858 35.0967 70.488 35.0537Z" fill="#53B57E"/>
<path d="M50.488 88.0537C49.3901 88.0107 48.535 87.0859 48.5779 85.988C48.6209 84.8901 49.5457 84.0349 50.6435 84.0779C51.7414 84.1209 52.5965 85.0458 52.5536 86.1437C52.5106 87.2416 51.5858 88.0967 50.488 88.0537Z" fill="#53B57E"/>
<path d="M33.488 164.054C32.3901 164.011 31.535 163.086 31.5779 161.988C31.6209 160.89 32.5457 160.035 33.6435 160.078C34.7414 160.121 35.5965 161.046 35.5536 162.144C35.5106 163.242 34.5858 164.097 33.488 164.054Z" fill="#53B57E"/>
<path d="M145.161 231C205.888 231 255.116 223.389 255.116 214C255.116 204.611 205.888 197 145.161 197C84.4346 197 35.2061 204.611 35.2061 214C35.2061 223.389 84.4346 231 145.161 231Z" fill="#E1F3FD"/>
<path d="M189.836 52.0457L68.7166 66.1882L75.5282 124.524L196.647 110.382L189.836 52.0457Z" fill="#EDEDED"/>
<path opacity="0.1" d="M189.836 52.0457L68.7166 66.1882L75.5282 124.524L196.647 110.382L189.836 52.0457Z" fill="black"/>
<path opacity="0.1" d="M189.601 52L185.936 52.4318L72.1582 65.7543L68.4824 66.1804L68.9142 69.8504L74.8738 120.845L75.3056 124.521L78.97 124.089L192.754 110.789L196.418 110.363L189.612 52H189.601ZM192.328 107.108L78.5439 120.413L72.5899 69.4186L186.362 56.1303L192.328 107.108Z" fill="black"/>
<path opacity="0.1" d="M135.08 108.782C144.448 107.688 151.008 97.9434 149.732 87.0171C148.457 76.0907 139.828 68.1198 130.46 69.2137C121.092 70.3076 114.532 80.0519 115.807 90.9783C117.083 101.905 125.712 109.876 135.08 108.782Z" fill="black"/>
<path opacity="0.1" d="M104.393 91.0016C104.499 91.9 104.335 92.8095 103.923 93.6149C103.511 94.4203 102.87 95.0855 102.08 95.5264C101.29 95.9673 100.388 96.1641 99.4859 96.0919C98.5842 96.0197 97.7242 95.6817 97.0146 95.1207C96.305 94.5598 95.7778 93.8009 95.4994 92.9403C95.2211 92.0796 95.2043 91.1557 95.4511 90.2855C95.6978 89.4152 96.1971 88.6377 96.8858 88.0512C97.5745 87.4648 98.4216 87.0957 99.32 86.9907C100.525 86.8499 101.736 87.1933 102.687 87.9455C103.639 88.6977 104.252 89.797 104.393 91.0016Z" fill="black"/>
<path opacity="0.1" d="M169.949 83.3432C170.053 84.2413 169.888 85.15 169.476 85.9545C169.063 86.7591 168.422 87.4233 167.632 87.8634C166.842 88.3035 165.94 88.4996 165.039 88.4271C164.138 88.3545 163.278 88.0164 162.569 87.4556C161.86 86.8948 161.333 86.1365 161.055 85.2763C160.776 84.4161 160.759 83.4928 161.005 82.6229C161.252 81.753 161.75 80.9756 162.438 80.3889C163.126 79.8022 163.972 79.4325 164.87 79.3266C166.076 79.1858 167.289 79.5298 168.241 80.2831C169.194 81.0363 169.808 82.1371 169.949 83.3432Z" fill="black"/>
<path opacity="0.1" d="M86.901 119.47L78.7825 120.413L77.8337 112.306C78.8995 112.181 79.9795 112.267 81.0121 112.559C82.0446 112.851 83.0095 113.344 83.8515 114.01C84.6935 114.675 85.3962 115.5 85.9195 116.436C86.4427 117.373 86.7762 118.404 86.901 119.47Z" fill="black"/>
<path d="M131.226 74.0261C131.443 74.002 131.66 74.0642 131.831 74.1992C132.002 74.3342 132.114 74.5312 132.141 74.7476L132.3 76.1111C134.537 76.0211 136.75 76.605 138.651 77.787C138.8 77.8513 138.93 77.9522 139.03 78.0803C139.129 78.2085 139.194 78.3597 139.219 78.5199C139.242 78.7504 139.172 78.9802 139.025 79.1591C138.878 79.338 138.666 79.4514 138.435 79.4744C138.323 79.4918 138.208 79.4862 138.097 79.4579C137.987 79.4296 137.884 79.3791 137.793 79.3096C136.198 78.2536 134.327 77.6905 132.413 77.6905L133.55 87.2406C138.861 87.7235 141.27 89.4165 141.662 92.7571C142.083 96.376 139.35 99.2905 135.1 99.9211L135.407 102.586C135.426 102.799 135.36 103.012 135.224 103.178C135.088 103.344 134.893 103.45 134.68 103.475C134.467 103.499 134.253 103.439 134.083 103.308C133.914 103.177 133.802 102.985 133.771 102.773L133.459 100.08C130.577 100.201 127.738 99.3509 125.397 97.6657C125.272 97.5991 125.165 97.5035 125.085 97.3868C125.005 97.2701 124.954 97.1358 124.937 96.9953C124.92 96.7703 124.988 96.5473 125.128 96.3704C125.268 96.1935 125.47 96.0759 125.692 96.0408C125.92 96.0117 126.151 96.0728 126.334 96.2113C128.336 97.7661 130.811 98.5864 133.345 98.5349L132.209 88.8143C126.959 88.286 124.63 86.6554 124.227 83.2467C123.823 79.838 126.499 76.8212 130.669 76.2361L130.521 74.9351C130.499 74.7219 130.559 74.5081 130.691 74.3387C130.822 74.1692 131.014 74.0572 131.226 74.0261ZM131.987 87.0929L130.902 77.7757C127.601 78.2359 125.647 80.4686 125.937 82.9229C126.209 85.2238 127.465 86.5305 131.987 87.0759V87.0929ZM133.737 88.9961L134.833 98.4099C138.242 97.944 140.225 95.7056 139.918 93.115C139.645 90.7459 138.282 89.4506 133.737 88.9791V88.9961Z" fill="#3EA4E0"/>
<path d="M229.108 148.547H184.101V171.385H229.108V148.547Z" fill="#0F9DF0"/>
<path d="M223.95 161.132C224.595 158.386 222.893 155.637 220.147 154.991C217.401 154.345 214.652 156.048 214.006 158.794C213.36 161.54 215.063 164.289 217.809 164.935C220.555 165.58 223.304 163.878 223.95 161.132Z" fill="#EBEBEB"/>
<path d="M218.984 162.761C220.528 162.761 221.779 161.51 221.779 159.966C221.779 158.422 220.528 157.171 218.984 157.171C217.44 157.171 216.189 158.422 216.189 159.966C216.189 161.51 217.44 162.761 218.984 162.761Z" fill="#DBDBDB"/>
<path d="M201.901 108.204H65.676V209.915H201.901V108.204Z" fill="#0F9DF0"/>
<path opacity="0.1" d="M201.901 108.204H65.676V209.915H201.901V108.204Z" fill="black"/>
<path d="M177.409 56.8575L190.998 118.272C191.36 119.918 191.055 121.641 190.149 123.063C189.242 124.485 187.809 125.489 186.163 125.856L88.7531 147.445C87.9368 147.625 87.0929 147.643 86.2697 147.498C85.4465 147.352 84.6601 147.045 83.9556 146.595C83.2511 146.145 82.6423 145.56 82.1641 144.874C81.6859 144.189 81.3476 143.415 81.1686 142.599L67.5735 81.1618C67.2351 79.628 67.5196 78.0226 68.3644 76.6984C69.2092 75.3742 70.5451 74.4396 72.0787 74.1L170.364 52.3523C171.895 52.0205 173.495 52.3081 174.815 53.1522C176.135 53.9963 177.068 55.3284 177.409 56.8575Z" fill="#21A038"/>
<g clip-path="url(#clip0_1713_11044)">
<path d="M93.242 82.9867L93.9422 82.1856L91.1776 82.779L91.9693 86.4673L94.7339 85.8739L94.6004 85.2518L92.6257 85.6756L92.4254 84.7425L94.0929 84.3845L93.9593 83.7624L92.2918 84.1203L92.1011 83.2316L93.242 82.9867ZM89.7972 83.7261L90.4975 82.925L87.3379 83.6032L88.1297 87.2915L89.7752 86.9383C90.6968 86.7405 91.1327 86.2053 90.9753 85.4721C90.8227 84.7611 90.2589 84.487 89.3813 84.6754L88.4159 84.8826L88.2394 84.0605L89.7972 83.7261ZM89.4004 85.2988C89.905 85.1905 90.1626 85.3211 90.2341 85.6544C90.3057 85.9877 90.1025 86.2173 89.6198 86.3209L88.786 86.4998L88.5666 85.4778L89.4004 85.2988ZM96.1583 81.7099L94.6663 82.0301L95.458 85.7185L96.2479 85.5489L96.0237 84.5046L96.7477 84.3492C97.7132 84.142 98.1959 83.5038 98.0194 82.6817C97.8429 81.8596 97.1237 81.5027 96.1583 81.7099ZM96.5923 83.7318L95.8901 83.8825L95.5849 82.4605L96.287 82.3098C96.7917 82.2015 97.1294 82.3847 97.2295 82.8512C97.3077 83.3226 97.0969 83.6235 96.5923 83.7318ZM86.6196 86.7789C86.424 86.9371 86.2189 87.0509 85.9775 87.1027C85.2754 87.2534 84.6391 86.8554 84.4865 86.1444C84.3339 85.4334 84.7289 84.814 85.4529 84.6586C85.7162 84.6021 85.9766 84.6392 86.2247 84.7254L86.7045 84.1808L86.6511 84.1458C86.26 83.9276 85.7878 83.8662 85.2831 83.9746C84.7346 84.0923 84.29 84.3737 83.9934 84.8092C83.7186 85.2401 83.6041 85.776 83.7358 86.2823C83.8455 86.7934 84.1479 87.2398 84.58 87.5421C85.0293 87.8176 85.5769 87.9092 86.0767 87.7787C86.6472 87.6562 87.087 87.3526 87.3617 86.9218L86.776 86.6524L86.6196 86.7789ZM109.998 80.3196L108.309 80.6822L107.984 79.1713L107.195 79.3409L107.986 83.0292L108.776 82.8597L108.452 81.3488L110.141 80.9861L110.466 82.497L111.256 82.3275L110.464 78.6391L109.674 78.8087L109.998 80.3196ZM104.342 79.9532L103.554 83.9806L104.344 83.811L104.494 83.0119L106.161 82.6539L106.626 83.3212L107.46 83.1422L105.132 79.7836L104.342 79.9532ZM104.624 82.3332L104.918 80.7127L105.808 82.0789L104.624 82.3332ZM113.698 79.8044L114.742 77.7207L113.843 77.9138L112.997 79.7457L112.558 79.8399L112.219 78.2624L111.429 78.4319L112.221 82.1202L113.011 81.9507L112.691 80.462L113.196 80.3537L114.722 81.5833L115.732 81.3667L113.698 79.8044ZM101.427 82.0897L100.462 82.2969L100.285 81.4748L102.348 81.0321L102.214 80.41L99.3616 81.0223L100.153 84.7106L101.799 84.3574C102.72 84.1595 103.156 83.6244 102.999 82.8911C102.868 82.1754 102.305 81.9013 101.427 82.0897ZM101.648 83.7622L100.814 83.9411L100.595 82.9191L101.429 82.7401C101.933 82.6318 102.191 82.7624 102.263 83.0957C102.356 83.4243 102.131 83.6585 101.648 83.7622Z" fill="white"/>
<path d="M80.8606 84.9704C81.0523 85.1152 81.2097 85.3138 81.3624 85.4903L79.0414 88.15L77.7211 87.6664L77.5303 86.7777L78.8506 87.2613L80.8606 84.9704ZM81.7392 86.1764L81.1859 86.8065L81.2002 86.8731C81.348 87.5619 81.1963 88.2453 80.8042 88.7711L81.3795 89.2054C81.8746 88.5181 82.0931 87.6112 81.9023 86.7224C81.8594 86.5225 81.7993 86.3494 81.7392 86.1764Z" fill="white"/>
<path d="M80.8729 88.6634C80.5466 89.175 80.0115 89.5688 79.3752 89.7054L79.2655 89.7289L79.3742 90.4493L79.5278 90.4164C80.3615 90.2374 81.0532 89.7171 81.4825 89.0439L80.8729 88.6634Z" fill="white"/>
<path d="M79.38 89.7276C78.6998 89.8736 78.0187 89.6944 77.4797 89.322L77.0533 89.9017C77.7354 90.406 78.633 90.6317 79.5326 90.4386L79.38 89.7276Z" fill="white"/>
<path d="M77.5817 89.37C77.0742 89.0373 76.6822 88.4939 76.5438 87.8495L76.5152 87.7162L75.8083 87.8447L75.8417 88.0003C76.023 88.8446 76.519 89.5516 77.1868 89.9893L77.5817 89.37Z" fill="white"/>
<path d="M76.5438 87.8495C76.396 87.1607 76.5696 86.4726 76.935 85.9294L76.3426 85.5219C75.8475 86.2093 75.6509 87.1115 75.8417 88.0002L76.5438 87.8495Z" fill="white"/>
<path d="M76.832 86.091C77.1535 85.5572 77.7058 85.1364 78.3641 84.9952L78.4738 84.9716L78.365 84.2512L78.2114 84.2842C77.3557 84.4678 76.6641 84.9882 76.2224 85.7105L76.832 86.091Z" fill="white"/>
<path d="M78.364 84.9952C78.8467 84.8916 79.3409 84.9482 79.7711 85.1348L80.2681 84.5632C79.6509 84.2541 78.9355 84.1288 78.2114 84.2842L78.364 84.9952Z" fill="white"/>
</g>
<path d="M167.489 72.248L158.166 74.3103C157.653 74.4273 157.121 74.4412 156.602 74.351C156.083 74.2609 155.588 74.0686 155.144 73.7853C154.7 73.502 154.316 73.1334 154.016 72.7008C153.716 72.2681 153.504 71.7802 153.394 71.2652C153.277 70.7521 153.263 70.2209 153.353 69.7023C153.442 69.1837 153.634 68.6881 153.917 68.2442C154.2 67.8003 154.568 67.4169 155 67.1163C155.432 66.8157 155.919 66.6038 156.434 66.4929L165.762 64.4307C166.276 64.3137 166.807 64.2998 167.326 64.39C167.845 64.4801 168.341 64.6724 168.785 64.9557C169.229 65.239 169.612 65.6076 169.912 66.0402C170.213 66.4729 170.424 66.9608 170.534 67.4758C170.763 68.5124 170.57 69.5973 169.999 70.4921C169.428 71.3869 168.526 72.0184 167.489 72.248Z" fill="white"/>
<path d="M83.1286 111.289L82.3958 111.971C82.3693 111.998 82.3359 112.018 82.2992 112.028C82.2626 112.035 82.2246 112.034 82.1889 112.023C82.1531 112.012 82.1207 111.992 82.0947 111.965C82.0738 111.946 82.0572 111.923 82.0458 111.897C82.0344 111.871 82.0286 111.843 82.0286 111.815C82.0286 111.786 82.0344 111.758 82.0458 111.733C82.0572 111.707 82.0738 111.683 82.0947 111.664L83.0945 110.71C83.1352 110.673 83.1878 110.653 83.2423 110.653C83.2968 110.653 83.3494 110.673 83.39 110.71C83.4268 110.751 83.4489 110.803 83.4525 110.857L84.6683 116.351C84.6801 116.405 84.67 116.462 84.6402 116.509C84.6104 116.556 84.5633 116.589 84.5092 116.601C84.4544 116.612 84.3976 116.601 84.3502 116.572C84.3028 116.542 84.2683 116.496 84.2535 116.442L83.1286 111.289Z" fill="#F8F8F8"/>
<path d="M86.0944 115.88L88.3271 112.744C88.4565 112.563 88.5467 112.358 88.5917 112.141C88.6367 111.923 88.6356 111.699 88.5885 111.482C88.4949 111.078 88.2457 110.726 87.8948 110.504C87.5438 110.282 87.1195 110.207 86.7137 110.295C86.3273 110.377 85.9852 110.6 85.7535 110.92L85.5263 111.249C85.4946 111.296 85.4457 111.328 85.3903 111.339C85.3349 111.35 85.2776 111.338 85.2309 111.306C85.1842 111.275 85.1519 111.226 85.1413 111.17C85.1306 111.115 85.1424 111.057 85.1741 111.011L85.407 110.67C85.7002 110.266 86.1304 109.984 86.6171 109.874C87.1336 109.764 87.6727 109.861 88.1181 110.145C88.5635 110.429 88.8794 110.877 88.9975 111.391C89.0587 111.665 89.062 111.948 89.0072 112.223C88.9524 112.498 88.8407 112.759 88.6794 112.988L86.7648 115.675L89.6054 115.05C89.6611 115.04 89.7185 115.052 89.7653 115.084C89.812 115.116 89.8444 115.165 89.8554 115.221C89.8672 115.275 89.8572 115.331 89.8274 115.378C89.7976 115.425 89.7505 115.458 89.6963 115.47L86.3785 116.198H86.3444C86.3157 116.206 86.2854 116.208 86.2559 116.203C86.2264 116.198 86.1984 116.187 86.1739 116.169C86.1277 116.139 86.0941 116.093 86.0795 116.039C86.0648 115.986 86.0701 115.929 86.0944 115.88Z" fill="#F8F8F8"/>
<path d="M93.6162 108.727L92.4231 110.659C92.9012 110.646 93.3686 110.802 93.7435 111.099C94.1184 111.396 94.3769 111.815 94.474 112.284C94.5352 112.55 94.542 112.826 94.4942 113.096C94.4464 113.365 94.3449 113.622 94.1957 113.852C93.8981 114.317 93.4283 114.646 92.889 114.766C92.6237 114.826 92.3492 114.832 92.0817 114.783C91.8143 114.734 91.5594 114.632 91.3323 114.482C91.308 114.468 91.2869 114.448 91.2702 114.425C91.2535 114.403 91.2417 114.377 91.2353 114.349C91.2289 114.321 91.2282 114.293 91.2332 114.265C91.2381 114.237 91.2487 114.21 91.2641 114.187C91.2792 114.162 91.299 114.141 91.3224 114.124C91.3458 114.108 91.3723 114.096 91.4004 114.089C91.4284 114.083 91.4574 114.082 91.4858 114.087C91.5141 114.092 91.5411 114.103 91.5653 114.119C91.9339 114.35 92.3787 114.427 92.8038 114.334C93.229 114.24 93.6003 113.983 93.8377 113.619C93.9559 113.437 94.0364 113.233 94.0744 113.019C94.1125 112.805 94.1074 112.586 94.0593 112.374C93.963 111.952 93.7035 111.584 93.3374 111.352C92.9712 111.12 92.5282 111.043 92.105 111.136C92.0719 111.142 92.0379 111.14 92.0055 111.131C91.9731 111.123 91.943 111.107 91.9175 111.085C91.8922 111.07 91.8702 111.05 91.853 111.026C91.8357 111.002 91.8236 110.975 91.8172 110.946C91.8108 110.917 91.8103 110.888 91.8159 110.859C91.8214 110.83 91.8328 110.802 91.8493 110.778L92.9856 108.92L90.7131 109.426C90.6851 109.433 90.656 109.434 90.6276 109.429C90.5992 109.424 90.572 109.414 90.5477 109.399C90.5233 109.383 90.5023 109.363 90.4858 109.34C90.4693 109.316 90.4578 109.289 90.4517 109.261C90.445 109.233 90.444 109.204 90.4487 109.176C90.4534 109.147 90.4637 109.12 90.4791 109.096C90.4944 109.071 90.5145 109.05 90.5381 109.034C90.5617 109.017 90.5883 109.006 90.6165 109L93.4116 108.381C93.4689 108.369 93.5285 108.38 93.5774 108.412C93.6263 108.444 93.6607 108.494 93.673 108.551C93.6817 108.583 93.6817 108.616 93.673 108.648C93.6581 108.677 93.639 108.704 93.6162 108.727Z" fill="#F8F8F8"/>
<path d="M99.6043 111.988L96.366 112.704C96.3436 112.714 96.3194 112.719 96.295 112.719C96.2705 112.719 96.2463 112.714 96.2239 112.704C96.1986 112.692 96.176 112.675 96.1577 112.654C96.1394 112.632 96.1258 112.608 96.1178 112.581C96.1097 112.554 96.1074 112.526 96.111 112.498C96.1146 112.47 96.1241 112.444 96.1387 112.42L98.6441 107.346C98.6561 107.321 98.6732 107.299 98.6942 107.28C98.7153 107.262 98.7399 107.248 98.7665 107.239C98.7931 107.231 98.8212 107.228 98.849 107.231C98.8768 107.233 98.9038 107.242 98.9282 107.255C98.9652 107.278 98.9963 107.309 99.0191 107.346C99.0191 107.346 99.0191 107.346 99.0191 107.375V107.403L99.9281 111.505L100.326 111.414C100.353 111.407 100.382 111.406 100.41 111.41C100.438 111.415 100.465 111.425 100.489 111.439C100.514 111.454 100.535 111.474 100.552 111.497C100.568 111.52 100.58 111.546 100.587 111.573C100.593 111.601 100.593 111.629 100.587 111.657C100.582 111.685 100.571 111.711 100.555 111.734C100.539 111.758 100.519 111.778 100.495 111.793C100.471 111.808 100.445 111.818 100.417 111.823L100.019 111.914L100.246 112.942C100.253 112.996 100.239 113.05 100.208 113.094C100.177 113.138 100.13 113.169 100.078 113.18C100.025 113.192 99.9698 113.183 99.9232 113.156C99.8765 113.129 99.8418 113.085 99.8258 113.033L99.6043 111.988ZM99.5134 111.579L98.7407 108.079L96.6841 112.221L99.5134 111.579Z" fill="#F8F8F8"/>
<path d="M107.24 110.971C107.215 110.956 107.194 110.937 107.178 110.914C107.161 110.891 107.149 110.865 107.143 110.837C107.138 110.809 107.138 110.78 107.143 110.753C107.149 110.725 107.161 110.699 107.177 110.675C107.192 110.65 107.212 110.628 107.236 110.611C107.26 110.594 107.287 110.581 107.316 110.575C107.345 110.569 107.374 110.568 107.403 110.574C107.432 110.579 107.46 110.591 107.484 110.607C107.85 110.835 108.29 110.91 108.711 110.817C109.134 110.721 109.502 110.462 109.735 110.096C109.968 109.73 110.047 109.287 109.955 108.863C109.913 108.652 109.828 108.452 109.706 108.275C109.584 108.097 109.428 107.946 109.247 107.83C109.066 107.714 108.863 107.636 108.651 107.599C108.439 107.563 108.222 107.57 108.013 107.619C107.801 107.664 107.6 107.751 107.423 107.875C107.245 107.999 107.094 108.157 106.979 108.34C106.964 108.365 106.945 108.386 106.922 108.403C106.899 108.419 106.873 108.431 106.845 108.437C106.818 108.444 106.789 108.445 106.761 108.44C106.733 108.435 106.707 108.424 106.683 108.409C106.656 108.396 106.632 108.377 106.615 108.352C106.611 108.329 106.611 108.306 106.615 108.284C106.618 108.269 106.618 108.253 106.615 108.238L106.371 105.767C106.365 105.736 106.367 105.705 106.376 105.676C106.385 105.646 106.401 105.619 106.422 105.596C106.436 105.575 106.454 105.556 106.476 105.541C106.497 105.526 106.521 105.516 106.547 105.511L109.336 104.898C109.364 104.892 109.393 104.891 109.421 104.896C109.449 104.902 109.476 104.912 109.5 104.928C109.524 104.943 109.545 104.964 109.561 104.987C109.577 105.011 109.589 105.037 109.595 105.065C109.601 105.093 109.601 105.122 109.596 105.15C109.591 105.178 109.58 105.205 109.564 105.229C109.549 105.253 109.529 105.274 109.505 105.29C109.482 105.306 109.455 105.318 109.427 105.324L106.825 105.892L107.001 107.721C107.372 107.379 107.854 107.184 108.358 107.172C108.862 107.159 109.353 107.331 109.74 107.655C110.126 107.979 110.382 108.432 110.458 108.931C110.534 109.429 110.426 109.938 110.154 110.363C109.851 110.822 109.384 111.148 108.848 111.272C108.573 111.333 108.289 111.337 108.013 111.286C107.737 111.234 107.474 111.127 107.24 110.971Z" fill="#F8F8F8"/>
<path d="M112.035 105.625C112.15 105.198 112.378 104.809 112.695 104.499C113.012 104.19 113.406 103.97 113.836 103.864C113.891 103.85 113.949 103.858 113.998 103.887C114.047 103.916 114.082 103.963 114.097 104.017C114.108 104.074 114.098 104.132 114.068 104.181C114.039 104.231 113.993 104.267 113.938 104.284C113.579 104.373 113.25 104.556 112.986 104.815C112.723 105.074 112.533 105.399 112.438 105.756C112.313 106.174 112.257 106.609 112.273 107.045C112.501 106.637 112.864 106.321 113.3 106.152C113.736 105.982 114.217 105.97 114.661 106.117C115.105 106.264 115.484 106.561 115.732 106.957C115.981 107.353 116.084 107.823 116.023 108.287C115.963 108.751 115.742 109.179 115.4 109.498C115.058 109.816 114.616 110.006 114.149 110.034C113.682 110.062 113.22 109.926 112.843 109.65C112.465 109.374 112.195 108.976 112.08 108.523C112.037 108.395 112.003 108.264 111.978 108.131C111.783 107.304 111.803 106.442 112.035 105.625ZM112.489 108.392C112.499 108.43 112.514 108.466 112.535 108.5C112.54 108.52 112.54 108.542 112.535 108.562C112.673 108.958 112.96 109.283 113.334 109.471C113.708 109.659 114.141 109.694 114.54 109.569C114.94 109.443 115.275 109.168 115.475 108.8C115.675 108.432 115.724 108.001 115.612 107.597C115.5 107.194 115.235 106.85 114.874 106.638C114.513 106.426 114.084 106.362 113.677 106.461C113.27 106.56 112.917 106.813 112.694 107.167C112.47 107.521 112.392 107.948 112.478 108.358L112.489 108.392Z" fill="#F8F8F8"/>
<path d="M118.568 108.778L119.614 103.046L116.733 103.699C116.681 103.706 116.628 103.694 116.584 103.664C116.541 103.633 116.511 103.588 116.499 103.537C116.488 103.485 116.496 103.431 116.523 103.385C116.549 103.34 116.592 103.306 116.642 103.29L119.807 102.591C119.848 102.58 119.891 102.58 119.932 102.591C119.99 102.607 120.041 102.643 120.074 102.694C120.074 102.722 120.102 102.733 120.108 102.762C120.119 102.801 120.119 102.842 120.108 102.881L119.011 108.892C119.003 108.932 118.984 108.97 118.956 109C118.928 109.03 118.892 109.051 118.852 109.062C118.823 109.071 118.791 109.071 118.761 109.062C118.729 109.058 118.699 109.046 118.671 109.029C118.644 109.012 118.62 108.989 118.602 108.963C118.584 108.936 118.572 108.906 118.566 108.874C118.56 108.842 118.561 108.81 118.568 108.778Z" fill="#F8F8F8"/>
<path d="M123.221 101.779C123.484 101.72 123.758 101.745 124.006 101.852C124.253 101.958 124.46 102.141 124.597 102.372C124.734 102.604 124.794 102.873 124.768 103.141C124.742 103.409 124.632 103.662 124.454 103.864C124.906 103.943 125.316 104.177 125.615 104.525C125.913 104.873 126.082 105.314 126.092 105.773C126.102 106.231 125.953 106.679 125.67 107.04C125.387 107.401 124.988 107.652 124.54 107.752C124.092 107.851 123.624 107.793 123.215 107.586C122.805 107.378 122.481 107.036 122.296 106.616C122.111 106.197 122.077 105.726 122.2 105.284C122.323 104.842 122.596 104.457 122.971 104.193C122.791 104.108 122.633 103.983 122.509 103.828C122.385 103.672 122.298 103.49 122.255 103.296C122.219 103.133 122.214 102.964 122.243 102.799C122.272 102.635 122.333 102.477 122.423 102.336C122.512 102.195 122.629 102.073 122.766 101.978C122.903 101.882 123.058 101.814 123.221 101.779ZM124.454 107.352C124.757 107.285 125.033 107.13 125.248 106.906C125.462 106.682 125.606 106.4 125.66 106.095C125.714 105.789 125.676 105.475 125.552 105.191C125.427 104.907 125.221 104.666 124.96 104.499C124.698 104.332 124.393 104.247 124.083 104.253C123.773 104.26 123.472 104.358 123.218 104.536C122.964 104.713 122.768 104.962 122.655 105.251C122.542 105.54 122.518 105.856 122.585 106.159C122.628 106.361 122.711 106.552 122.828 106.722C122.946 106.891 123.096 107.036 123.27 107.147C123.444 107.258 123.638 107.333 123.841 107.368C124.045 107.403 124.253 107.398 124.454 107.352ZM123.681 103.864C123.903 103.812 124.095 103.675 124.217 103.483C124.338 103.29 124.378 103.058 124.329 102.835C124.28 102.615 124.145 102.422 123.955 102.301C123.764 102.18 123.533 102.139 123.312 102.188C123.091 102.237 122.899 102.371 122.778 102.562C122.656 102.753 122.615 102.984 122.664 103.205C122.713 103.426 122.848 103.619 123.038 103.743C123.228 103.866 123.459 103.909 123.681 103.864Z" fill="#F8F8F8"/>
<path d="M133.851 99.4268C134.336 99.3172 134.844 99.3906 135.278 99.6328C135.712 99.875 136.041 100.269 136.203 100.739C136.203 100.739 136.203 100.739 136.203 100.773C136.248 100.938 136.294 101.103 136.333 101.285C136.529 102.112 136.513 102.976 136.288 103.796C136.169 104.222 135.939 104.61 135.621 104.919C135.304 105.228 134.911 105.448 134.481 105.557C134.455 105.565 134.427 105.568 134.399 105.565C134.372 105.562 134.345 105.554 134.321 105.54C134.297 105.526 134.276 105.507 134.259 105.485C134.243 105.462 134.232 105.436 134.226 105.409C134.218 105.382 134.216 105.353 134.219 105.324C134.223 105.296 134.232 105.268 134.246 105.243C134.261 105.219 134.28 105.197 134.303 105.179C134.325 105.162 134.351 105.149 134.379 105.142C134.738 105.053 135.067 104.87 135.332 104.611C135.597 104.352 135.787 104.028 135.885 103.671C136.01 103.253 136.063 102.817 136.044 102.381C135.88 102.676 135.645 102.926 135.36 103.107C135.075 103.289 134.749 103.396 134.412 103.418C134.075 103.441 133.738 103.38 133.431 103.239C133.124 103.098 132.857 102.883 132.655 102.612C132.453 102.342 132.322 102.025 132.273 101.691C132.225 101.357 132.261 101.016 132.378 100.699C132.495 100.382 132.69 100.1 132.944 99.8776C133.198 99.6554 133.504 99.5004 133.834 99.4268H133.851ZM135.851 101.046C135.783 100.738 135.625 100.457 135.398 100.238C135.17 100.019 134.883 99.873 134.573 99.8174C134.262 99.7618 133.942 99.7995 133.653 99.9258C133.364 100.052 133.118 100.261 132.948 100.527C132.777 100.792 132.69 101.102 132.695 101.418C132.701 101.733 132.8 102.04 132.98 102.299C133.16 102.558 133.412 102.758 133.706 102.874C133.999 102.99 134.321 103.016 134.629 102.949C134.834 102.905 135.029 102.82 135.202 102.7C135.374 102.581 135.521 102.428 135.635 102.251C135.748 102.074 135.826 101.877 135.863 101.67C135.9 101.463 135.896 101.251 135.851 101.046Z" fill="#F8F8F8"/>
<path d="M138.009 101.642C137.83 100.909 137.868 100.139 138.117 99.4268C138.202 99.1235 138.367 98.8488 138.596 98.6322C138.824 98.4156 139.108 98.2651 139.415 98.1968C139.722 98.1286 140.043 98.1451 140.341 98.2447C140.64 98.3442 140.906 98.5231 141.111 98.7621C141.638 99.3059 142 99.9873 142.157 100.728C142.328 101.463 142.285 102.232 142.032 102.943C141.956 103.253 141.795 103.535 141.568 103.758C141.34 103.981 141.054 104.136 140.743 104.204C140.432 104.273 140.107 104.253 139.807 104.146C139.507 104.04 139.242 103.852 139.043 103.603C138.513 103.065 138.153 102.383 138.009 101.642ZM138.43 101.552C138.562 102.208 138.879 102.814 139.344 103.296C139.497 103.483 139.698 103.625 139.927 103.704C140.155 103.784 140.401 103.798 140.637 103.746C140.873 103.693 141.09 103.576 141.263 103.407C141.436 103.238 141.558 103.025 141.617 102.79C141.829 102.155 141.865 101.474 141.72 100.821C141.575 100.167 141.254 99.5656 140.793 99.0802C140.641 98.8925 140.439 98.751 140.211 98.6716C139.982 98.5921 139.736 98.5778 139.501 98.6303C139.265 98.6828 139.048 98.8 138.875 98.9688C138.702 99.1376 138.579 99.3513 138.521 99.5859C138.301 100.219 138.269 100.901 138.43 101.552Z" fill="#F8F8F8"/>
<path d="M144.389 97.7339L143.656 98.4156C143.63 98.443 143.597 98.4626 143.56 98.4724C143.523 98.4801 143.485 98.4784 143.449 98.4675C143.414 98.4566 143.381 98.4368 143.355 98.41C143.335 98.3904 143.319 98.367 143.308 98.3411C143.297 98.3152 143.292 98.2875 143.292 98.2594C143.292 98.2313 143.297 98.2036 143.308 98.1777C143.319 98.1518 143.335 98.1284 143.355 98.1088L144.355 97.1544C144.394 97.1155 144.448 97.0938 144.503 97.0938C144.558 97.0938 144.611 97.1155 144.651 97.1544C144.687 97.1952 144.709 97.2472 144.713 97.3021L145.929 102.796C145.941 102.85 145.931 102.907 145.901 102.954C145.871 103 145.824 103.034 145.77 103.046C145.716 103.056 145.66 103.046 145.613 103.016C145.567 102.986 145.533 102.94 145.52 102.887L144.389 97.7339Z" fill="#F8F8F8"/>
<path d="M147.378 102.324L149.61 99.1824C149.74 99.0034 149.83 98.7989 149.875 98.5826C149.92 98.3662 149.919 98.1427 149.872 97.9268C149.787 97.5462 149.562 97.2115 149.241 96.9895C149.063 96.8618 148.86 96.7734 148.646 96.7303C148.431 96.6872 148.21 96.6903 147.997 96.7395C147.613 96.8196 147.272 97.0405 147.042 97.3587L146.809 97.6882C146.795 97.713 146.776 97.7343 146.753 97.7509C146.729 97.7675 146.703 97.7788 146.675 97.7842C146.647 97.7896 146.618 97.7889 146.59 97.7821C146.562 97.7754 146.536 97.7627 146.514 97.7451C146.491 97.7303 146.471 97.7107 146.455 97.6877C146.44 97.6647 146.429 97.6388 146.424 97.6115C146.42 97.5842 146.421 97.5562 146.427 97.5293C146.434 97.5024 146.446 97.4772 146.463 97.4553L146.69 97.1144C146.983 96.711 147.414 96.4282 147.9 96.3191C148.417 96.2087 148.956 96.3059 149.401 96.5898C149.847 96.8736 150.163 97.3212 150.281 97.8359C150.342 98.1095 150.345 98.3929 150.29 98.6678C150.236 98.9427 150.124 99.2031 149.963 99.4324L148.048 102.12L150.889 101.495C150.944 101.485 151.002 101.497 151.048 101.529C151.095 101.561 151.128 101.61 151.139 101.665C151.15 101.719 151.14 101.776 151.111 101.823C151.081 101.87 151.034 101.903 150.979 101.915L147.65 102.654H147.616C147.59 102.666 147.56 102.673 147.531 102.673C147.502 102.673 147.472 102.666 147.446 102.654C147.418 102.638 147.395 102.616 147.376 102.59C147.358 102.564 147.345 102.535 147.339 102.504C147.332 102.473 147.332 102.441 147.339 102.41C147.346 102.379 147.359 102.35 147.378 102.324Z" fill="#F8F8F8"/>
<path d="M160.001 94.041L158.808 95.9726C159.21 95.967 159.604 96.0775 159.945 96.2907C160.291 96.5133 160.563 96.8334 160.728 97.2107C160.893 97.588 160.942 98.0055 160.87 98.4108C160.797 98.816 160.607 99.1908 160.322 99.4878C160.037 99.7849 159.67 99.991 159.268 100.08C159.003 100.14 158.729 100.145 158.461 100.097C158.194 100.048 157.939 99.9456 157.712 99.796C157.688 99.7815 157.666 99.7622 157.65 99.7393C157.633 99.7165 157.621 99.6904 157.615 99.6629C157.608 99.6353 157.608 99.6067 157.613 99.5788C157.618 99.5509 157.628 99.5243 157.644 99.5006C157.659 99.4761 157.679 99.4549 157.702 99.4382C157.725 99.4214 157.752 99.4095 157.78 99.4032C157.808 99.3968 157.837 99.3961 157.865 99.4012C157.894 99.4062 157.921 99.4168 157.945 99.4324C158.172 99.5788 158.432 99.6667 158.702 99.6883C158.972 99.7099 159.243 99.6646 159.49 99.5563C159.738 99.448 159.956 99.2801 160.123 99.0676C160.29 98.8551 160.403 98.6045 160.45 98.3381C160.497 98.0717 160.478 97.7978 160.394 97.5407C160.309 97.2836 160.163 97.0513 159.967 96.8645C159.772 96.6776 159.533 96.542 159.272 96.4696C159.012 96.3973 158.737 96.3905 158.473 96.4498C158.44 96.4561 158.406 96.4547 158.373 96.4459C158.341 96.437 158.311 96.4209 158.286 96.3987C158.237 96.3662 158.203 96.3161 158.19 96.259C158.177 96.2018 158.187 96.142 158.217 96.0919L159.354 94.2284L157.081 94.7397C157.024 94.7515 156.964 94.7403 156.915 94.7083C156.867 94.6764 156.832 94.6264 156.82 94.5693C156.813 94.5413 156.812 94.5123 156.817 94.4839C156.822 94.4555 156.832 94.4283 156.847 94.4039C156.863 94.3796 156.883 94.3586 156.906 94.3421C156.93 94.3256 156.957 94.314 156.985 94.308L159.78 93.6944C159.808 93.6877 159.837 93.6867 159.865 93.6914C159.894 93.6961 159.921 93.7064 159.945 93.7217C159.97 93.7371 159.991 93.7572 160.007 93.7808C160.024 93.8044 160.035 93.831 160.041 93.8592C160.05 93.8908 160.05 93.9241 160.041 93.9557C160.032 93.9859 160.019 94.0146 160.001 94.041Z" fill="#F8F8F8"/>
<path d="M165.989 97.3021L162.751 98.0179H162.723C162.679 98.0345 162.63 98.0345 162.586 98.0179C162.561 98.0059 162.539 97.9889 162.52 97.9678C162.502 97.9468 162.488 97.9222 162.479 97.8956C162.471 97.869 162.468 97.8409 162.471 97.8131C162.473 97.7853 162.482 97.7583 162.495 97.7339L165.007 92.6606C165.019 92.6358 165.037 92.6138 165.058 92.596C165.079 92.5782 165.104 92.5649 165.13 92.557C165.157 92.549 165.185 92.5465 165.212 92.5497C165.24 92.5528 165.267 92.5616 165.291 92.5753C165.327 92.596 165.359 92.6252 165.382 92.6606C165.381 92.6719 165.381 92.6833 165.382 92.6946L166.291 96.7965L166.688 96.7056C166.715 96.6996 166.744 96.6991 166.771 96.704C166.798 96.7089 166.825 96.7191 166.848 96.7342C166.872 96.7492 166.892 96.7687 166.908 96.7916C166.924 96.8145 166.935 96.8403 166.941 96.8675C166.947 96.8947 166.948 96.9229 166.943 96.9503C166.938 96.9778 166.927 97.004 166.912 97.0274C166.897 97.0509 166.878 97.0712 166.855 97.0871C166.832 97.1031 166.806 97.1143 166.779 97.1203L166.381 97.2055L166.603 98.2338C166.609 98.2611 166.609 98.2892 166.604 98.3166C166.599 98.344 166.588 98.37 166.573 98.3933C166.558 98.4165 166.538 98.4365 166.515 98.4521C166.492 98.4676 166.466 98.4784 166.438 98.4838C166.411 98.4905 166.383 98.4916 166.356 98.4872C166.329 98.4827 166.303 98.4727 166.279 98.4579C166.256 98.443 166.236 98.4235 166.22 98.4006C166.204 98.3777 166.194 98.3519 166.188 98.3247L165.989 97.3021ZM165.899 96.8874L165.12 93.3878L163.069 97.518L165.899 96.8874Z" fill="#F8F8F8"/>
<path d="M168.5 97.4159C168.476 97.4004 168.456 97.3802 168.439 97.3566C168.423 97.333 168.412 97.3065 168.406 97.2784C168.4 97.2504 168.4 97.2215 168.406 97.1934C168.411 97.1654 168.422 97.1386 168.438 97.1148C168.47 97.0661 168.52 97.0318 168.578 97.0191C168.635 97.0064 168.695 97.0163 168.745 97.0466C169.109 97.2782 169.55 97.3559 169.972 97.2625C170.395 97.1661 170.763 96.9069 170.995 96.541C171.228 96.1751 171.308 95.7321 171.216 95.3082C171.173 95.0974 171.088 94.8973 170.967 94.7199C170.845 94.5425 170.689 94.3912 170.508 94.2752C170.326 94.1592 170.124 94.0807 169.912 94.0444C169.7 94.0082 169.482 94.0148 169.273 94.064C169.062 94.1094 168.862 94.1966 168.686 94.3206C168.509 94.4445 168.359 94.6026 168.245 94.7855C168.23 94.81 168.21 94.8312 168.186 94.848C168.163 94.8647 168.137 94.8766 168.109 94.883C168.08 94.8893 168.051 94.89 168.023 94.885C167.995 94.8799 167.968 94.8693 167.944 94.8537C167.917 94.8394 167.894 94.8201 167.875 94.7969C167.871 94.7743 167.871 94.7512 167.875 94.7287C167.878 94.7137 167.878 94.6983 167.875 94.6833L167.631 92.2119C167.626 92.1806 167.628 92.1485 167.637 92.118C167.645 92.0875 167.661 92.0594 167.682 92.0358C167.713 91.995 167.757 91.9667 167.807 91.9563L170.597 91.3427C170.625 91.3367 170.654 91.3363 170.682 91.3415C170.71 91.3467 170.737 91.3574 170.761 91.3729C170.785 91.3885 170.805 91.4086 170.822 91.4322C170.838 91.4558 170.849 91.4823 170.855 91.5103C170.861 91.5383 170.862 91.5671 170.856 91.5953C170.851 91.6234 170.841 91.6502 170.825 91.6742C170.809 91.6982 170.789 91.7189 170.766 91.7352C170.742 91.7514 170.716 91.7628 170.688 91.7688L168.086 92.3369L168.262 94.1606C168.533 93.9139 168.864 93.7434 169.222 93.6663C169.486 93.6043 169.761 93.5965 170.028 93.6434C170.296 93.6902 170.551 93.7908 170.779 93.939C171.011 94.083 171.211 94.2734 171.366 94.4982C171.522 94.723 171.629 94.9775 171.682 95.2457C171.743 95.5108 171.751 95.7855 171.705 96.0537C171.66 96.3219 171.561 96.5783 171.415 96.808C171.112 97.2672 170.644 97.5926 170.108 97.717C169.834 97.7778 169.55 97.7825 169.274 97.7307C168.997 97.679 168.734 97.5719 168.5 97.4159Z" fill="#F8F8F8"/>
<path d="M173.295 92.0697C173.412 91.6418 173.641 91.2528 173.959 90.9432C174.277 90.6335 174.671 90.4144 175.102 90.3085C175.155 90.2946 175.212 90.3023 175.26 90.33C175.308 90.3576 175.343 90.403 175.358 90.4563C175.37 90.5134 175.361 90.5731 175.331 90.6237C175.302 90.6742 175.254 90.7118 175.199 90.729C174.84 90.8168 174.512 90.9992 174.248 91.257C173.985 91.5148 173.795 91.8386 173.699 92.1947C173.574 92.6147 173.518 93.0522 173.534 93.49C173.67 93.2367 173.859 93.0157 174.089 92.8421C174.318 92.6686 174.582 92.5466 174.863 92.4845C175.251 92.3991 175.655 92.4296 176.025 92.5722C176.396 92.7148 176.716 92.9632 176.946 93.2864C177.176 93.6097 177.306 93.9936 177.32 94.3902C177.334 94.7868 177.23 95.1786 177.023 95.5169C176.815 95.8552 176.513 96.125 176.153 96.2927C175.793 96.4604 175.392 96.5185 175 96.4599C174.607 96.4013 174.241 96.2285 173.946 95.9631C173.651 95.6977 173.44 95.3513 173.341 94.9672C173.297 94.8391 173.263 94.7081 173.239 94.5751C173.047 93.7484 173.067 92.8869 173.295 92.0697ZM173.756 94.8365C173.762 94.8746 173.775 94.9113 173.795 94.9444C173.801 94.9649 173.801 94.9864 173.795 95.0069C173.934 95.4021 174.22 95.7281 174.595 95.9158C174.969 96.1036 175.401 96.1386 175.801 96.0133C176.2 95.888 176.536 95.6123 176.736 95.2445C176.936 94.8766 176.985 94.4454 176.873 94.0419C176.761 93.6385 176.496 93.2944 176.135 93.0824C175.774 92.8704 175.345 92.8071 174.938 92.9058C174.531 93.0045 174.178 93.2576 173.954 93.6115C173.731 93.9654 173.653 94.3924 173.738 94.8024L173.756 94.8365Z" fill="#F8F8F8"/>
<path d="M139.505 115.208L87.3467 126.752L87.9139 129.315L140.072 117.771L139.505 115.208Z" fill="#A6A6A6"/>
<path d="M125.531 124.269L88.605 132.441L89.1722 135.004L126.098 126.831L125.531 124.269Z" fill="#A6A6A6"/>
<path d="M193.248 120.726H74.3284V155.534H193.248V120.726Z" fill="#0F9DF0"/>
<path opacity="0.3" d="M193.248 120.726H74.3284V155.534H193.248V120.726Z" fill="black"/>
<path d="M189.385 119.857L189.549 182.759C189.552 184.447 188.886 186.067 187.696 187.264C186.507 188.461 184.891 189.137 183.203 189.145L83.4354 189.4C82.5996 189.403 81.7715 189.24 80.9986 188.922C80.2257 188.604 79.5231 188.136 78.9311 187.546C78.339 186.957 77.8691 186.256 77.5482 185.484C77.2273 184.712 77.0618 183.885 77.061 183.049L76.8963 120.175C76.894 119.397 77.0451 118.626 77.3409 117.907C77.6367 117.187 78.0714 116.533 78.6201 115.982C79.1688 115.43 79.8208 114.993 80.5389 114.693C81.2569 114.394 82.0269 114.239 82.8047 114.238L183.442 113.925C184.222 113.923 184.995 114.075 185.716 114.372C186.437 114.669 187.093 115.106 187.645 115.657C188.197 116.208 188.635 116.863 188.934 117.583C189.232 118.304 189.385 119.076 189.385 119.857Z" fill="#F9BB40"/>
<path d="M173.88 173.936C173.884 175.094 173.544 176.228 172.903 177.193C172.262 178.158 171.349 178.912 170.28 179.358C169.211 179.804 168.034 179.924 166.897 179.701C165.76 179.478 164.715 178.924 163.893 178.107C163.072 177.29 162.511 176.248 162.282 175.112C162.052 173.977 162.165 172.799 162.605 171.727C163.045 170.656 163.793 169.739 164.755 169.092C165.716 168.446 166.848 168.099 168.006 168.096C168.775 168.093 169.537 168.243 170.249 168.535C170.96 168.827 171.607 169.257 172.153 169.799C172.698 170.342 173.132 170.986 173.428 171.696C173.724 172.406 173.878 173.167 173.88 173.936Z" fill="#A6A6A6"/>
<path d="M181.09 173.913C181.094 175.072 180.753 176.205 180.112 177.17C179.472 178.135 178.559 178.889 177.49 179.335C176.421 179.782 175.244 179.901 174.107 179.678C172.97 179.456 171.925 178.901 171.103 178.084C170.282 177.267 169.721 176.225 169.491 175.09C169.262 173.954 169.375 172.776 169.815 171.705C170.255 170.633 171.003 169.716 171.964 169.07C172.926 168.423 174.057 168.076 175.216 168.073C176.769 168.07 178.26 168.683 179.361 169.778C180.462 170.873 181.084 172.36 181.09 173.913Z" fill="#3EA4E0"/>
<path d="M105.661 124.951L89.3163 124.994C87.9985 124.997 86.933 126.068 86.9364 127.386L86.9621 137.209C86.9656 138.527 88.0367 139.592 89.3545 139.589L105.699 139.546C107.017 139.543 108.083 138.471 108.079 137.154L108.053 127.331C108.05 126.013 106.979 124.948 105.661 124.951Z" fill="#3EA4E0"/>
<path d="M176.994 132.77L167.438 132.798C166.913 132.803 166.392 132.703 165.906 132.505C165.419 132.308 164.977 132.015 164.604 131.646C164.231 131.276 163.935 130.836 163.733 130.351C163.531 129.867 163.427 129.347 163.427 128.821C163.423 128.296 163.522 127.776 163.72 127.289C163.918 126.803 164.21 126.36 164.58 125.987C164.95 125.614 165.389 125.318 165.874 125.116C166.359 124.915 166.879 124.811 167.404 124.811L176.96 124.782C177.485 124.778 178.006 124.877 178.492 125.075C178.979 125.273 179.421 125.565 179.794 125.935C180.167 126.305 180.463 126.744 180.665 127.229C180.867 127.714 180.971 128.234 180.971 128.759C180.975 129.284 180.876 129.805 180.678 130.291C180.48 130.778 180.188 131.22 179.818 131.593C179.448 131.966 179.008 132.262 178.524 132.464C178.039 132.666 177.519 132.77 176.994 132.77Z" fill="white"/>
<path d="M86.225 152.899L85.3614 153.41C85.3307 153.43 85.2955 153.441 85.2592 153.444C85.2216 153.445 85.1845 153.436 85.1515 153.418C85.1185 153.4 85.091 153.374 85.0717 153.342C85.0568 153.318 85.047 153.291 85.0429 153.263C85.0388 153.235 85.0406 153.207 85.0481 153.179C85.0555 153.152 85.0686 153.127 85.0863 153.105C85.1041 153.083 85.1262 153.065 85.1512 153.052L86.3329 152.33C86.3815 152.305 86.4379 152.299 86.4907 152.314C86.5434 152.329 86.5886 152.363 86.617 152.41C86.6461 152.458 86.6563 152.514 86.6454 152.569V158.193C86.6454 158.221 86.64 158.248 86.6294 158.274C86.6188 158.299 86.6033 158.323 86.5838 158.342C86.5643 158.362 86.5411 158.377 86.5156 158.388C86.4901 158.398 86.4628 158.404 86.4352 158.404C86.3799 158.402 86.3273 158.38 86.2881 158.341C86.249 158.301 86.2264 158.249 86.225 158.193V152.899Z" fill="#F8F8F8"/>
<path d="M88.1622 158.023L91.0028 155.432C91.3117 155.151 91.496 154.758 91.5151 154.34C91.5343 153.922 91.3868 153.514 91.105 153.205C90.8233 152.896 90.4304 152.712 90.0127 152.693C89.595 152.674 89.1869 152.821 88.878 153.103L88.5826 153.376C88.5634 153.397 88.5401 153.413 88.5142 153.425C88.4883 153.436 88.4603 153.442 88.432 153.442C88.4037 153.442 88.3757 153.436 88.3498 153.425C88.3239 153.413 88.3006 153.397 88.2815 153.376C88.2608 153.357 88.2442 153.334 88.2329 153.309C88.2216 153.283 88.2157 153.256 88.2157 153.228C88.2157 153.2 88.2216 153.173 88.2329 153.147C88.2442 153.122 88.2608 153.099 88.2815 153.08L88.5769 152.802C88.9481 152.468 89.4294 152.282 89.929 152.279C90.2066 152.277 90.4814 152.335 90.7351 152.447C90.9889 152.56 91.2157 152.726 91.4005 152.933C91.7429 153.295 91.9323 153.775 91.9288 154.273C91.9302 154.553 91.8733 154.83 91.7618 155.086C91.6503 155.342 91.4866 155.572 91.2812 155.762L88.8326 157.978H91.7754C91.8038 157.978 91.8317 157.985 91.8576 157.996C91.8835 158.008 91.9069 158.024 91.9264 158.045C91.946 158.065 91.9612 158.09 91.9714 158.116C91.9816 158.143 91.9864 158.171 91.9856 158.199C91.9842 158.254 91.9616 158.307 91.9225 158.346C91.8834 158.385 91.8307 158.408 91.7754 158.409H88.3326C88.3031 158.412 88.2734 158.408 88.2458 158.397C88.2182 158.386 88.1935 158.369 88.1735 158.347C88.1513 158.327 88.1333 158.302 88.1207 158.275C88.1081 158.247 88.1011 158.217 88.1 158.187C88.0989 158.157 88.1039 158.127 88.1146 158.099C88.1252 158.071 88.1414 158.045 88.1622 158.023Z" fill="#F8F8F8"/>
<path d="M97.0191 152.637L95.4397 154.262C95.9094 154.353 96.3323 154.606 96.6353 154.977C96.9383 155.347 97.1022 155.812 97.0986 156.29C97.1002 156.564 97.0472 156.834 96.9429 157.087C96.8385 157.34 96.6848 157.569 96.4908 157.762C96.1009 158.153 95.5717 158.374 95.0193 158.375C94.7478 158.376 94.4788 158.322 94.2281 158.218C93.9775 158.114 93.7501 157.96 93.5592 157.767C93.5375 157.748 93.52 157.724 93.5081 157.698C93.4962 157.672 93.49 157.643 93.49 157.614C93.49 157.585 93.4962 157.556 93.5081 157.53C93.52 157.503 93.5375 157.48 93.5592 157.46C93.5793 157.44 93.6032 157.424 93.6295 157.413C93.6559 157.402 93.6841 157.397 93.7126 157.397C93.7412 157.397 93.7694 157.402 93.7957 157.413C93.8221 157.424 93.8459 157.44 93.866 157.46C94.1697 157.758 94.5768 157.927 95.0023 157.932C95.4273 157.92 95.8325 157.75 96.1385 157.455C96.2913 157.302 96.4121 157.12 96.494 156.92C96.576 156.72 96.6173 156.506 96.6157 156.29C96.6127 155.857 96.4384 155.442 96.1308 155.136C95.8233 154.831 95.4074 154.66 94.9739 154.66C94.9398 154.658 94.9065 154.649 94.8762 154.633C94.8458 154.617 94.8191 154.595 94.7977 154.569C94.7766 154.549 94.7598 154.524 94.7483 154.497C94.7368 154.471 94.7309 154.442 94.7309 154.413C94.7309 154.383 94.7368 154.354 94.7483 154.328C94.7598 154.301 94.7766 154.276 94.7977 154.256L96.3146 152.683H93.9683C93.9163 152.674 93.8691 152.648 93.8349 152.607C93.8008 152.567 93.7821 152.516 93.7821 152.464C93.7821 152.411 93.8008 152.36 93.8349 152.32C93.8691 152.28 93.9163 152.254 93.9683 152.245H96.8089C96.8662 152.245 96.9211 152.268 96.9616 152.308C97.002 152.349 97.0248 152.404 97.0248 152.461C97.0344 152.492 97.0344 152.526 97.0248 152.558C97.0275 152.584 97.0256 152.611 97.0191 152.637Z" fill="#F8F8F8"/>
<path d="M102.172 157.103H98.8543C98.8065 157.105 98.7595 157.089 98.7236 157.057C98.701 157.041 98.6822 157.02 98.6683 156.995C98.6545 156.971 98.6459 156.944 98.6432 156.916C98.6406 156.888 98.6438 156.86 98.6528 156.833C98.6617 156.807 98.6762 156.782 98.6952 156.762L102.229 152.342C102.246 152.32 102.267 152.302 102.292 152.288C102.316 152.275 102.343 152.267 102.371 152.264C102.398 152.261 102.426 152.264 102.453 152.273C102.479 152.281 102.503 152.295 102.524 152.313C102.558 152.343 102.583 152.38 102.598 152.421C102.598 152.421 102.598 152.421 102.598 152.455V152.484V156.682H103.013C103.069 156.682 103.122 156.704 103.162 156.744C103.201 156.783 103.223 156.837 103.223 156.892C103.223 156.948 103.201 157.002 103.162 157.041C103.122 157.081 103.069 157.103 103.013 157.103H102.598V158.154C102.59 158.204 102.564 158.25 102.525 158.283C102.486 158.316 102.436 158.335 102.385 158.335C102.334 158.335 102.284 158.316 102.245 158.283C102.206 158.25 102.18 158.204 102.172 158.154V157.103ZM102.172 156.682V153.097L99.2861 156.688L102.172 156.682Z" fill="#F8F8F8"/>
<path d="M115.671 153.541C115.877 153.148 116.184 152.817 116.56 152.582C116.937 152.347 117.369 152.217 117.813 152.205C117.868 152.204 117.922 152.224 117.963 152.261C118.004 152.298 118.03 152.349 118.034 152.404C118.034 152.462 118.013 152.518 117.974 152.561C117.935 152.605 117.882 152.632 117.824 152.637C117.452 152.648 117.089 152.759 116.775 152.959C116.461 153.159 116.207 153.441 116.04 153.773C115.829 154.156 115.683 154.57 115.608 155.001C115.919 154.651 116.341 154.42 116.804 154.348C117.266 154.276 117.739 154.367 118.141 154.606C118.543 154.845 118.849 155.217 119.006 155.658C119.164 156.098 119.163 156.58 119.004 157.019C118.845 157.459 118.537 157.83 118.135 158.067C117.732 158.305 117.258 158.395 116.797 158.321C116.335 158.248 115.913 158.015 115.604 157.664C115.294 157.313 115.117 156.866 115.103 156.398C115.094 156.266 115.094 156.133 115.103 156C115.082 155.146 115.277 154.3 115.671 153.541ZM115.529 156.341C115.525 156.379 115.525 156.417 115.529 156.455C115.532 156.476 115.532 156.497 115.529 156.517C115.556 156.935 115.745 157.326 116.055 157.608C116.365 157.889 116.773 158.039 117.191 158.025C117.61 158.011 118.007 157.835 118.298 157.535C118.589 157.234 118.752 156.831 118.752 156.412C118.752 155.994 118.589 155.591 118.298 155.29C118.007 154.989 117.61 154.813 117.191 154.8C116.773 154.786 116.365 154.936 116.055 155.217C115.745 155.498 115.556 155.889 115.529 156.307V156.341Z" fill="#F8F8F8"/>
<path d="M121.386 158.017L123.659 152.637H120.704C120.649 152.636 120.596 152.613 120.557 152.574C120.518 152.535 120.496 152.482 120.494 152.427C120.494 152.372 120.515 152.32 120.554 152.28C120.592 152.241 120.644 152.218 120.699 152.217H123.937C123.979 152.202 124.025 152.202 124.068 152.217C124.122 152.244 124.165 152.291 124.187 152.347C124.19 152.372 124.19 152.397 124.187 152.421C124.187 152.462 124.175 152.501 124.153 152.535L121.795 158.176C121.779 158.214 121.752 158.247 121.718 158.27C121.683 158.293 121.643 158.306 121.602 158.307C121.574 158.315 121.545 158.315 121.517 158.307C121.462 158.284 121.419 158.242 121.394 158.188C121.37 158.134 121.367 158.073 121.386 158.017Z" fill="#F8F8F8"/>
<path d="M127.419 152.171C127.757 152.17 128.082 152.302 128.323 152.54C128.564 152.777 128.7 153.1 128.703 153.438C128.702 153.639 128.654 153.837 128.564 154.017C128.473 154.196 128.342 154.352 128.181 154.472C128.605 154.647 128.956 154.964 129.173 155.368C129.389 155.773 129.459 156.24 129.37 156.691C129.281 157.141 129.038 157.546 128.684 157.838C128.329 158.129 127.884 158.288 127.425 158.288C126.966 158.288 126.521 158.129 126.167 157.838C125.812 157.546 125.569 157.141 125.48 156.691C125.391 156.24 125.461 155.773 125.678 155.368C125.895 154.964 126.245 154.647 126.67 154.472C126.51 154.351 126.381 154.195 126.292 154.015C126.204 153.836 126.158 153.638 126.158 153.438C126.157 153.272 126.19 153.108 126.253 152.954C126.316 152.8 126.408 152.661 126.526 152.543C126.643 152.425 126.782 152.332 126.935 152.268C127.089 152.204 127.253 152.171 127.419 152.171ZM127.419 157.853C127.73 157.853 128.033 157.761 128.291 157.588C128.549 157.415 128.75 157.17 128.869 156.883C128.987 156.596 129.018 156.281 128.957 155.977C128.896 155.672 128.746 155.393 128.526 155.174C128.306 154.955 128.026 154.806 127.722 154.746C127.417 154.686 127.102 154.718 126.815 154.838C126.529 154.957 126.285 155.159 126.113 155.418C125.941 155.676 125.85 155.98 125.851 156.29C125.848 156.5 125.886 156.707 125.964 156.901C126.043 157.095 126.159 157.272 126.307 157.42C126.455 157.568 126.631 157.684 126.825 157.763C127.019 157.841 127.227 157.879 127.436 157.875L127.419 157.853ZM127.419 154.285C127.648 154.28 127.865 154.187 128.025 154.025C128.185 153.862 128.276 153.644 128.277 153.416C128.274 153.248 128.221 153.085 128.126 152.947C128.03 152.81 127.897 152.703 127.741 152.641C127.585 152.579 127.415 152.564 127.251 152.599C127.087 152.633 126.936 152.715 126.819 152.834C126.701 152.953 126.621 153.105 126.589 153.269C126.557 153.434 126.574 153.604 126.638 153.759C126.702 153.913 126.81 154.046 126.949 154.14C127.088 154.233 127.252 154.284 127.419 154.285Z" fill="#F8F8F8"/>
<path d="M138.311 152.143C138.807 152.139 139.287 152.319 139.659 152.647C140.031 152.975 140.269 153.429 140.327 153.921C140.324 153.936 140.324 153.952 140.327 153.967C140.327 154.129 140.327 154.305 140.327 154.495C140.347 155.344 140.151 156.184 139.759 156.938C139.55 157.328 139.242 157.657 138.866 157.891C138.491 158.125 138.06 158.257 137.617 158.273C137.589 158.274 137.561 158.27 137.535 158.261C137.508 158.251 137.484 158.237 137.463 158.217C137.443 158.198 137.426 158.175 137.415 158.15C137.403 158.124 137.397 158.096 137.396 158.068C137.396 158.011 137.417 157.956 137.456 157.913C137.495 157.871 137.549 157.845 137.606 157.841C137.978 157.829 138.34 157.717 138.654 157.518C138.968 157.318 139.222 157.037 139.39 156.705C139.604 156.324 139.75 155.909 139.822 155.478C139.632 155.693 139.399 155.865 139.137 155.981C138.875 156.098 138.591 156.157 138.305 156.154C137.77 156.154 137.257 155.941 136.879 155.563C136.501 155.185 136.288 154.672 136.288 154.137C136.288 153.602 136.501 153.089 136.879 152.711C137.257 152.333 137.77 152.12 138.305 152.12L138.311 152.143ZM139.918 154.154C139.92 153.837 139.827 153.527 139.651 153.262C139.476 152.998 139.226 152.792 138.933 152.67C138.641 152.548 138.318 152.515 138.007 152.576C137.696 152.637 137.41 152.79 137.185 153.013C136.961 153.237 136.808 153.523 136.745 153.834C136.683 154.145 136.715 154.467 136.836 154.76C136.957 155.053 137.162 155.304 137.426 155.48C137.689 155.656 137.999 155.75 138.316 155.75C138.527 155.752 138.735 155.712 138.93 155.632C139.125 155.552 139.301 155.435 139.45 155.287C139.599 155.138 139.718 154.962 139.798 154.767C139.878 154.573 139.919 154.364 139.918 154.154Z" fill="#F8F8F8"/>
<path d="M141.901 155.2C141.879 154.444 142.077 153.698 142.469 153.052C142.618 152.775 142.839 152.544 143.108 152.383C143.378 152.222 143.686 152.137 144 152.137C144.314 152.137 144.622 152.222 144.892 152.383C145.162 152.544 145.382 152.775 145.531 153.052C145.921 153.697 146.127 154.437 146.127 155.191C146.127 155.945 145.921 156.685 145.531 157.33C145.391 157.617 145.173 157.858 144.902 158.027C144.632 158.196 144.319 158.286 144 158.286C143.681 158.286 143.368 158.196 143.098 158.027C142.827 157.858 142.609 157.617 142.469 157.33C142.076 156.69 141.879 155.95 141.901 155.2ZM142.333 155.2C142.319 155.869 142.499 156.527 142.85 157.097C142.956 157.318 143.122 157.505 143.33 157.636C143.537 157.766 143.778 157.836 144.023 157.836C144.268 157.836 144.508 157.766 144.716 157.636C144.924 157.505 145.09 157.318 145.196 157.097C145.542 156.525 145.725 155.868 145.725 155.2C145.725 154.531 145.542 153.875 145.196 153.302C145.089 153.082 144.923 152.897 144.716 152.768C144.509 152.638 144.27 152.569 144.026 152.569C143.781 152.569 143.542 152.638 143.335 152.768C143.128 152.897 142.962 153.082 142.855 153.302C142.501 153.868 142.322 154.526 142.338 155.194L142.333 155.2Z" fill="#F8F8F8"/>
<path d="M148.968 152.739L148.105 153.245C148.075 153.266 148.039 153.28 148.003 153.285C147.965 153.285 147.927 153.275 147.894 153.256C147.862 153.237 147.834 153.21 147.815 153.177C147.799 153.153 147.789 153.126 147.784 153.098C147.78 153.07 147.781 153.041 147.789 153.014C147.796 152.986 147.81 152.961 147.828 152.939C147.846 152.917 147.869 152.899 147.895 152.887L149.071 152.166C149.12 152.14 149.177 152.134 149.231 152.149C149.285 152.164 149.331 152.198 149.36 152.245C149.389 152.293 149.399 152.35 149.389 152.404V158.029C149.389 158.084 149.367 158.138 149.327 158.177C149.288 158.217 149.234 158.239 149.179 158.239C149.123 158.239 149.069 158.217 149.03 158.177C148.991 158.138 148.968 158.084 148.968 158.029V152.739Z" fill="#F8F8F8"/>
<path d="M150.906 157.858L153.746 155.273C153.981 155.06 154.146 154.78 154.219 154.471C154.292 154.162 154.27 153.838 154.156 153.542C154.042 153.246 153.84 152.991 153.579 152.811C153.317 152.632 153.007 152.535 152.689 152.535C152.296 152.535 151.916 152.678 151.621 152.938L151.326 153.211C151.307 153.232 151.284 153.248 151.258 153.26C151.232 153.271 151.204 153.277 151.175 153.277C151.147 153.277 151.119 153.271 151.093 153.26C151.067 153.248 151.044 153.232 151.025 153.211C151.004 153.192 150.988 153.17 150.976 153.144C150.965 153.119 150.959 153.091 150.959 153.063C150.959 153.035 150.965 153.008 150.976 152.982C150.988 152.957 151.004 152.934 151.025 152.916L151.32 152.631C151.693 152.3 152.174 152.116 152.672 152.115C153.2 152.116 153.706 152.326 154.081 152.698C154.455 153.07 154.668 153.575 154.672 154.103C154.674 154.382 154.617 154.659 154.505 154.915C154.394 155.172 154.23 155.402 154.025 155.591L151.576 157.813H154.473C154.502 157.814 154.53 157.82 154.556 157.831C154.582 157.843 154.605 157.859 154.624 157.88C154.644 157.901 154.659 157.925 154.669 157.951C154.68 157.978 154.684 158.006 154.684 158.034C154.682 158.09 154.66 158.142 154.62 158.181C154.581 158.221 154.529 158.243 154.473 158.245H151.031C151.001 158.247 150.971 158.243 150.944 158.232C150.916 158.221 150.891 158.204 150.871 158.182C150.834 158.134 150.816 158.074 150.823 158.013C150.829 157.953 150.859 157.897 150.906 157.858Z" fill="#F8F8F8"/>
<path d="M165.007 152.461L163.427 154.092C163.898 154.181 164.322 154.433 164.625 154.804C164.929 155.175 165.092 155.641 165.086 156.12C165.089 156.393 165.036 156.665 164.932 156.917C164.827 157.17 164.673 157.399 164.478 157.591C164.286 157.785 164.058 157.939 163.807 158.044C163.555 158.149 163.285 158.203 163.012 158.203C162.74 158.203 162.47 158.149 162.218 158.044C161.967 157.939 161.738 157.785 161.547 157.591C161.526 157.571 161.51 157.547 161.499 157.521C161.488 157.495 161.483 157.466 161.483 157.438C161.483 157.409 161.488 157.381 161.499 157.355C161.51 157.328 161.526 157.305 161.547 157.285C161.566 157.264 161.59 157.247 161.616 157.235C161.643 157.224 161.671 157.218 161.7 157.218C161.729 157.218 161.757 157.224 161.784 157.235C161.81 157.247 161.834 157.264 161.853 157.285C162.157 157.582 162.565 157.749 162.99 157.75C163.415 157.743 163.821 157.575 164.126 157.279C164.351 157.05 164.504 156.76 164.566 156.445C164.628 156.13 164.597 155.803 164.477 155.506C164.356 155.208 164.151 154.952 163.887 154.77C163.622 154.587 163.311 154.486 162.99 154.478C162.956 154.48 162.922 154.473 162.891 154.458C162.86 154.443 162.833 154.421 162.814 154.393C162.772 154.351 162.749 154.295 162.749 154.237C162.749 154.178 162.772 154.122 162.814 154.08L164.33 152.507H161.99C161.961 152.507 161.932 152.502 161.905 152.492C161.879 152.481 161.854 152.466 161.833 152.445C161.813 152.425 161.796 152.401 161.785 152.375C161.774 152.348 161.768 152.32 161.768 152.291C161.767 152.262 161.772 152.233 161.783 152.206C161.793 152.18 161.809 152.155 161.829 152.134C161.85 152.114 161.874 152.097 161.9 152.086C161.927 152.075 161.955 152.069 161.984 152.069H164.825C164.854 152.068 164.882 152.073 164.909 152.084C164.936 152.094 164.96 152.11 164.981 152.13C165.002 152.15 165.018 152.175 165.029 152.201C165.041 152.228 165.046 152.256 165.046 152.285C165.056 152.317 165.056 152.35 165.046 152.382C165.043 152.412 165.029 152.44 165.007 152.461Z" fill="#F8F8F8"/>
<path d="M170.177 156.927H166.836C166.813 156.93 166.789 156.928 166.766 156.921C166.744 156.915 166.723 156.903 166.705 156.887C166.683 156.87 166.664 156.849 166.65 156.825C166.636 156.8 166.628 156.773 166.625 156.745C166.622 156.718 166.625 156.689 166.634 156.663C166.643 156.636 166.658 156.612 166.677 156.591L170.211 152.171C170.227 152.149 170.248 152.13 170.273 152.116C170.297 152.102 170.324 152.094 170.352 152.091C170.38 152.088 170.408 152.092 170.435 152.101C170.461 152.109 170.485 152.124 170.506 152.143C170.536 152.174 170.559 152.211 170.574 152.251C170.574 152.251 170.574 152.251 170.574 152.285V152.313V156.512H170.983C171.039 156.512 171.093 156.534 171.132 156.573C171.171 156.613 171.193 156.666 171.193 156.722C171.193 156.778 171.171 156.831 171.132 156.871C171.093 156.91 171.039 156.932 170.983 156.932H170.574V157.983C170.574 158.011 170.569 158.039 170.558 158.065C170.547 158.091 170.531 158.114 170.511 158.134C170.491 158.154 170.467 158.169 170.441 158.179C170.414 158.189 170.386 158.194 170.358 158.194C170.303 158.192 170.25 158.169 170.211 158.13C170.172 158.091 170.15 158.039 170.148 157.983L170.177 156.927ZM170.177 156.506V152.921L167.262 156.535L170.177 156.506Z" fill="#F8F8F8"/>
<path d="M172.591 157.574C172.571 157.554 172.555 157.53 172.544 157.504C172.533 157.477 172.527 157.449 172.527 157.421C172.527 157.392 172.533 157.364 172.544 157.338C172.555 157.311 172.571 157.287 172.591 157.267C172.634 157.226 172.691 157.202 172.75 157.202C172.81 157.202 172.867 157.226 172.909 157.267C173.061 157.419 173.24 157.539 173.438 157.621C173.636 157.703 173.848 157.745 174.063 157.745C174.277 157.745 174.489 157.703 174.687 157.621C174.885 157.539 175.064 157.419 175.216 157.267C175.367 157.119 175.487 156.942 175.568 156.747C175.65 156.552 175.693 156.343 175.693 156.131C175.696 155.916 175.656 155.703 175.575 155.503C175.494 155.304 175.374 155.123 175.222 154.971C175.07 154.819 174.889 154.699 174.69 154.618C174.491 154.538 174.277 154.497 174.063 154.501C173.851 154.502 173.641 154.546 173.446 154.629C173.251 154.711 173.074 154.832 172.926 154.983C172.907 155.005 172.883 155.023 172.857 155.035C172.831 155.047 172.802 155.053 172.773 155.053C172.744 155.053 172.715 155.047 172.689 155.035C172.662 155.023 172.639 155.005 172.619 154.983C172.593 154.968 172.573 154.944 172.563 154.915C172.56 154.906 172.56 154.896 172.563 154.887C172.557 154.865 172.557 154.841 172.563 154.819C172.563 154.819 172.563 154.79 172.563 154.773L172.852 152.302C172.853 152.271 172.86 152.241 172.875 152.214C172.89 152.187 172.912 152.165 172.938 152.149C172.956 152.13 172.978 152.115 173.003 152.105C173.027 152.095 173.053 152.091 173.08 152.092H175.92C175.952 152.087 175.984 152.088 176.015 152.097C176.046 152.106 176.075 152.121 176.099 152.142C176.124 152.163 176.143 152.188 176.157 152.218C176.17 152.247 176.177 152.278 176.177 152.31C176.177 152.343 176.17 152.374 176.157 152.403C176.143 152.432 176.124 152.458 176.099 152.479C176.075 152.5 176.046 152.515 176.015 152.524C175.984 152.532 175.952 152.534 175.92 152.529H173.256L173.04 154.353C173.354 154.168 173.711 154.07 174.074 154.068C174.438 154.066 174.796 154.161 175.112 154.342C175.428 154.523 175.69 154.785 175.872 155.1C176.053 155.415 176.149 155.773 176.148 156.137C176.152 156.409 176.101 156.68 175.998 156.933C175.896 157.186 175.744 157.415 175.551 157.608C175.159 157.995 174.631 158.213 174.08 158.216C173.801 158.215 173.526 158.157 173.27 158.047C173.014 157.936 172.783 157.776 172.591 157.574Z" fill="#F8F8F8"/>
<path d="M178.414 153.382C178.619 152.987 178.926 152.655 179.302 152.419C179.679 152.183 180.112 152.053 180.556 152.041C180.611 152.041 180.665 152.062 180.705 152.1C180.745 152.138 180.769 152.19 180.772 152.245C180.774 152.302 180.753 152.358 180.715 152.4C180.677 152.442 180.624 152.468 180.567 152.473C180.196 152.484 179.834 152.596 179.52 152.796C179.206 152.996 178.952 153.277 178.784 153.609C178.573 153.992 178.425 154.406 178.346 154.836C178.656 154.483 179.078 154.25 179.541 154.175C180.005 154.101 180.479 154.19 180.884 154.428C181.288 154.666 181.597 155.037 181.757 155.478C181.917 155.919 181.919 156.402 181.762 156.843C181.604 157.285 181.298 157.659 180.895 157.899C180.492 158.139 180.018 158.231 179.554 158.16C179.09 158.088 178.666 157.857 178.355 157.507C178.043 157.156 177.863 156.708 177.846 156.239C177.837 156.105 177.837 155.97 177.846 155.836C177.826 154.983 178.022 154.139 178.414 153.382ZM178.272 156.177C178.269 156.214 178.269 156.253 178.272 156.29C178.276 156.311 178.276 156.332 178.272 156.353C178.3 156.771 178.488 157.162 178.799 157.443C179.109 157.724 179.516 157.874 179.935 157.86C180.353 157.847 180.75 157.671 181.042 157.37C181.333 157.069 181.496 156.667 181.496 156.248C181.496 155.829 181.333 155.427 181.042 155.126C180.75 154.825 180.353 154.649 179.935 154.635C179.516 154.621 179.109 154.771 178.799 155.052C178.488 155.334 178.3 155.725 178.272 156.143V156.177Z" fill="#F8F8F8"/>
<path d="M140.471 168.764L87.0505 168.904L87.0574 171.529L140.478 171.389L140.471 168.764Z" fill="#A6A6A6"/>
<path d="M124.88 174.64L87.0603 174.739L87.0672 177.363L124.887 177.264L124.88 174.64Z" fill="#A6A6A6"/>
<path d="M159.729 124.804L133.09 124.873L133.096 127.498L159.736 127.428L159.729 124.804Z" fill="#A6A6A6"/>
<path d="M193.248 131.884H74.3284V190.167H193.248V131.884Z" fill="#0F9DF0"/>
<path opacity="0.2" d="M193.248 131.884H74.3284V190.167H193.248V131.884Z" fill="black"/>
<path d="M193.248 142.24H74.3284V200.524H193.248V142.24Z" fill="#3EA4E0"/>
<path opacity="0.3" d="M193.248 142.24H74.3284V200.524H193.248V142.24Z" fill="black"/>
<path d="M193.248 152.921H74.3284V200.53H193.248V152.921Z" fill="#3EA4E0"/>
<path opacity="0.2" d="M193.248 152.921H74.3284V200.53H193.248V152.921Z" fill="black"/>
<path d="M189.578 227.55L65.676 209.938V108.244L69.6529 111.187C71.5611 112.607 73.8155 113.488 76.1806 113.738L189.578 125.856V227.55Z" fill="#0F9DF0"/>
<path d="M65.85 112.582L65.5 113.03L66.395 113.73L66.745 113.282L65.85 112.582Z" fill="white"/>
<path d="M181.539 130.401L179.266 130.145L179.329 129.577L181.601 129.833L181.539 130.401ZM177.528 129.952L175.255 129.696L175.318 129.128L177.59 129.384L177.528 129.952ZM173.517 129.503L171.244 129.247L171.307 128.679L173.579 128.941L173.517 129.503ZM169.506 129.054L167.233 128.799L167.296 128.231L169.568 128.486L169.506 129.054ZM165.495 128.605L163.223 128.35L163.285 127.782L165.558 128.037L165.495 128.605ZM161.518 128.157L159.246 127.901L159.308 127.333L161.581 127.589L161.518 128.157ZM157.507 127.714L155.235 127.452L155.297 126.884L157.57 127.14L157.507 127.714ZM153.496 127.265L151.224 127.009L151.286 126.441L153.559 126.697L153.496 127.265ZM149.485 126.816L147.213 126.56L147.275 125.992L149.548 126.248L149.485 126.816ZM145.48 126.367L143.208 126.111L143.27 125.543L145.543 125.799L145.48 126.367ZM141.469 125.918L139.197 125.663L139.265 125.094L141.537 125.35L141.469 125.918ZM137.458 125.469L135.186 125.214L135.248 124.646L137.521 124.901L137.458 125.469ZM133.447 125.021L131.175 124.765L131.237 124.197L133.51 124.452L133.447 125.021ZM129.436 124.577L127.164 124.316L127.226 123.748L129.499 124.004L129.436 124.577ZM125.408 124.151L123.136 123.896L123.198 123.328L125.471 123.583L125.408 124.151ZM121.397 123.703L119.125 123.447L119.187 122.879L121.46 123.134L121.397 123.703ZM117.386 123.254L115.114 122.998L115.176 122.43L117.449 122.691L117.386 123.254ZM113.375 122.805L111.103 122.549L111.165 121.981L113.438 122.237L113.375 122.805ZM109.387 122.333L107.115 122.078L107.177 121.51L109.45 121.765L109.387 122.333ZM105.382 121.885L103.109 121.629L103.178 121.061L105.45 121.316L105.382 121.885ZM101.371 121.441L99.0985 121.18L99.161 120.612L101.433 120.868L101.371 121.441ZM97.3601 120.993L95.0876 120.737L95.1501 120.169L97.4226 120.425L97.3601 120.993ZM93.3491 120.544L91.0766 120.288L91.1391 119.72L93.4116 119.976L93.3491 120.544ZM89.3722 120.095L87.0998 119.839L87.1623 119.271L89.4347 119.533L89.3722 120.095ZM85.3613 119.646L83.0888 119.391L83.1513 118.822L85.4238 119.078L85.3613 119.646ZM81.3503 119.197L79.0779 118.942L79.1404 118.374L81.4128 118.629L81.3503 119.197ZM77.3394 118.749L75.9759 118.601C75.6578 118.561 75.3453 118.516 75.0328 118.459L75.1351 117.891C75.4362 117.942 75.7373 117.987 76.0384 118.021L77.4019 118.175L77.3394 118.749ZM73.3228 118.033C72.5755 117.79 71.8496 117.486 71.1525 117.124L71.4196 116.618C72.0863 116.967 72.782 117.258 73.4989 117.487L73.3228 118.033ZM69.6186 116.198C69.4311 116.061 69.2437 115.925 69.0505 115.783L67.7722 114.783L68.1188 114.334L69.397 115.334C69.5732 115.47 69.755 115.601 69.9368 115.732L69.6186 116.198Z" fill="white"/>
<path d="M184.709 131.571H184.141V130.691L183.26 130.588L183.323 130.026L184.709 130.179V131.571Z" fill="white"/>
<path d="M184.709 220.102H184.141V217.801H184.709V220.102ZM184.709 216.074H184.141V213.773H184.709V216.074ZM184.709 212.052H184.141V209.751H184.709V212.052ZM184.709 208.029H184.141V205.728H184.709V208.029ZM184.709 204.001H184.141V201.729H184.709V204.001ZM184.709 199.979H184.141V197.678H184.709V199.979ZM184.709 195.957H184.141V193.656H184.709V195.957ZM184.709 191.929H184.141V189.656H184.709V191.929ZM184.709 187.906H184.141V185.605H184.709V187.906ZM184.709 183.884H184.141V181.583H184.709V183.884ZM184.709 179.862H184.141V177.555H184.709V179.862ZM184.709 175.834H184.141V173.561H184.709V175.834ZM184.709 171.811H184.141V169.51H184.709V171.811ZM184.709 167.789H184.141V165.488H184.709V167.789ZM184.709 163.761H184.141V161.489H184.709V163.761ZM184.709 159.739H184.141V157.438H184.709V159.739ZM184.709 155.716H184.141V153.416H184.709V155.716ZM184.709 151.688H184.141V149.416H184.709V151.688ZM184.709 147.666H184.141V145.365H184.709V147.666ZM184.709 143.644H184.141V141.343H184.709V143.644ZM184.709 139.622H184.141V137.321H184.709V139.622ZM184.709 135.594H184.141V133.321H184.709V135.594Z" fill="white"/>
<path d="M184.709 223.289L183.255 223.073L183.34 222.511L184.141 222.63V221.823H184.709V223.289Z" fill="white"/>
<path d="M181.539 222.823L179.266 222.488L179.346 221.92L181.618 222.255L181.539 222.823ZM177.562 222.255L175.29 221.92L175.375 221.352L177.647 221.687L177.562 222.255ZM173.585 221.687L171.313 221.352L171.398 220.784L173.67 221.119L173.585 221.687ZM169.608 221.119L167.336 220.784L167.421 220.216L169.694 220.551L169.608 221.119ZM165.631 220.551L163.359 220.216L163.439 219.647L165.711 219.983L165.631 220.551ZM161.655 219.983L159.382 219.647L159.462 219.079L161.734 219.414L161.655 219.983ZM157.678 219.414L155.405 219.079L155.49 218.511L157.763 218.846L157.678 219.414ZM153.701 218.846L151.428 218.511L151.514 217.943L153.786 218.278L153.701 218.846ZM149.724 218.278L147.452 217.943L147.537 217.375L149.809 217.71L149.724 218.278ZM145.747 217.71L143.475 217.375L143.56 216.807L145.832 217.148L145.747 217.71ZM141.77 217.142L139.498 216.807L139.577 216.239L141.85 216.574L141.77 217.142ZM137.793 216.574L135.521 216.239L135.606 215.671L137.879 216.006L137.793 216.574ZM133.817 216.006L131.544 215.671L131.629 215.102L133.902 215.438L133.817 216.006ZM129.84 215.438L127.567 215.102L127.652 214.534L129.925 214.875L129.84 215.438ZM125.863 214.869L123.59 214.534L123.676 213.966L125.948 214.301L125.863 214.869ZM121.886 214.301L119.613 213.966L119.693 213.398L121.966 213.739L121.886 214.301ZM117.909 213.733L115.637 213.398L115.716 212.83L117.989 213.165L117.909 213.733ZM113.932 213.165L111.66 212.83L111.745 212.262L114.017 212.597L113.932 213.165ZM109.955 212.597L107.683 212.262L107.768 211.694L110.041 212.029L109.955 212.597ZM105.979 212.029L103.706 211.694L103.791 211.126L106.064 211.466L105.979 212.029ZM102.002 211.461L99.7292 211.126L99.8087 210.557L102.081 210.893L102.002 211.461ZM98.0248 210.893L95.7523 210.557L95.8375 209.989L98.11 210.33L98.0248 210.893ZM94.048 210.325L91.7755 209.989L91.8607 209.421L94.1332 209.756L94.048 210.325ZM90.0711 209.756L87.7986 209.421L87.8838 208.853L90.1563 209.194L90.0711 209.756ZM86.0942 209.188L83.8217 208.853L83.907 208.285L86.1795 208.62L86.0942 209.188ZM82.1174 208.62L79.8449 208.285L79.9244 207.717L82.1969 208.058L82.1174 208.62ZM78.1405 208.052L75.868 207.717L75.9532 207.149L78.2257 207.484L78.1405 208.052ZM74.1637 207.484L71.8912 207.149L71.9764 206.581L74.2489 206.921L74.1637 207.484ZM70.1868 206.916L67.9143 206.581L67.9995 206.012L70.272 206.348L70.1868 206.916Z" fill="white"/>
<path d="M65.717 205.03L65.6335 205.592L66.7575 205.759L66.8409 205.197L65.717 205.03Z" fill="white"/>
<path d="M173.602 181.72C176.329 181.72 178.539 179.201 178.539 176.095C178.539 172.989 176.329 170.471 173.602 170.471C170.876 170.471 168.665 172.989 168.665 176.095C168.665 179.201 170.876 181.72 173.602 181.72Z" fill="#EBEBEB"/>
<path d="M175.903 176.095C175.846 176.537 175.663 176.954 175.376 177.294C175.088 177.635 174.709 177.886 174.283 178.016C173.856 178.147 173.401 178.151 172.973 178.03C172.544 177.908 172.159 177.666 171.864 177.331C171.57 176.997 171.378 176.584 171.312 176.144C171.246 175.703 171.308 175.252 171.491 174.846C171.675 174.44 171.972 174.095 172.346 173.853C172.72 173.611 173.156 173.482 173.602 173.482C174.253 173.526 174.86 173.825 175.291 174.314C175.722 174.804 175.942 175.444 175.903 176.095Z" fill="#DBDBDB"/>
<defs>
<clipPath id="clip0_1713_11044">
<rect width="44.8817" height="11.3625" fill="white" transform="translate(72.4553 82.9165) rotate(-12.1149)"/>
</clipPath>
</defs>
</svg>
