<?xml version="1.0" encoding="utf-8"?>
<!-- Generator: Adobe Illustrator 17.1.0, SVG Export Plug-In . SVG Version: 6.00 Build 0)  -->
<!DOCTYPE svg PUBLIC "-//W3C//DTD SVG 1.1//EN" "http://www.w3.org/Graphics/SVG/1.1/DTD/svg11.dtd">
<svg version="1.1" id="Слой_1" xmlns="http://www.w3.org/2000/svg" xmlns:xlink="http://www.w3.org/1999/xlink" x="0px" y="0px"
	 viewBox="0 0 83 25" enable-background="new 0 0 83 25" xml:space="preserve">
<g>
	<path fill="#EE3524" d="M7.9,0.5c1.7,0,2.2,1.2,2.6,2.4c0.2,0.5,4.5,12.4,4.7,12.7c0,0.1,0,0.3-0.1,0.3c-0.2,0.1-2.4,0.9-2.5,1
		c-0.1,0-0.3,0-0.3-0.1c0-0.1-1-2.7-1.1-3c-0.3,0-6.1,0-6.4,0c-0.1,0.3-1.1,2.9-1.1,3c0,0.1-0.2,0.2-0.3,0.1c-0.1-0.1-2.4-0.9-2.5-1
		c-0.1,0-0.2-0.2-0.1-0.3C0.7,15.2,5,3.5,5.2,2.9C5.7,1.7,6.2,0.5,7.9,0.5z M0.2,21.7C0.1,21.7,0,21.8,0,22v2.8
		C0,24.9,0.1,25,0.2,25h15.3c0.1,0,0.2-0.1,0.2-0.2V22c0-0.1-0.1-0.2-0.2-0.2H0.2 M7.9,4.3l-2.2,6.5h4.4L7.9,4.3L7.9,4.3z
		 M64.7,13.9c0,0.7-0.4,1.2-1.2,1.2c-0.3,0-0.5,0-0.9-0.1v-2.2c0.2,0,0.5-0.1,0.9-0.1C64.3,12.8,64.7,13.1,64.7,13.9z M66.2,13.8
		c0-1.4-0.8-2.3-2.5-2.3c-0.4,0-0.7,0-1.2,0.1l0-2c0.3,0,0.8-0.1,1.3-0.1c0.5,0,1.1,0,1.7,0.1l0-1.1c-0.6-0.1-1.5-0.2-2.2-0.2
		c-0.7,0-1.8,0.2-2.3,0.3v7.3c0.8,0.3,1.6,0.4,2.4,0.4C65.3,16.4,66.2,15.4,66.2,13.8z M48.7,13.4c0,1-0.4,1.7-1.1,1.7
		c-0.3,0-0.4,0-0.7-0.1v-3.1c0.3-0.2,0.5-0.2,0.8-0.2C48.3,11.8,48.7,12.3,48.7,13.4 M43.6,13.4c0-1.1,0.3-1.7,1-1.7
		c0.3,0,0.5,0,0.8,0.2V15c-0.3,0.1-0.5,0.1-0.7,0.1C43.9,15.1,43.6,14.5,43.6,13.4 M46.9,18v-2c0.2,0.1,0.6,0.3,1.2,0.3
		c1.2,0,2.1-1,2.1-2.9c0-2-0.9-2.9-2.4-2.9c-0.4,0-0.6,0-0.9,0.2V8.3h-1.4v2.4c-0.3-0.1-0.6-0.2-0.9-0.2c-1.5,0-2.4,0.9-2.4,2.9
		c0,1.9,0.8,2.9,2.1,2.9c0.6,0,1-0.2,1.2-0.3v2H46.9 M35.9,16.2v-5.3c-0.8-0.2-1.4-0.3-2.2-0.3c-0.8,0-1.4,0.1-2.2,0.3v2.7
		c0,0.7,0,1-0.1,1.2c-0.1,0.2-0.2,0.5-0.5,0.7l0.4,0.8c1.2-0.3,1.6-0.8,1.6-2.4v-2c0.4-0.1,0.5-0.1,0.8-0.1c0.3,0,0.4,0,0.8,0.1v4.3
		H35.9z M53.8,15c-0.3,0.1-0.5,0.1-0.8,0.1c-0.5,0-0.8-0.2-0.8-0.7c0-0.6,0.4-0.7,1.1-0.7c0.2,0,0.3,0,0.4,0.1v0.4
		C53.7,14.6,53.7,14.9,53.8,15z M55.6,15.7c-0.4-0.6-0.5-0.9-0.5-1.7v-1.5c0-0.8-0.1-1.1-0.3-1.4c-0.3-0.4-0.8-0.6-1.7-0.6
		c-0.6,0-1.3,0.1-1.9,0.2l0.2,1.1c0.4-0.1,0.8-0.1,1.1-0.1c1,0,1.1,0.1,1.1,0.9v0.3c-0.2-0.1-0.5-0.1-0.7-0.1
		c-1.5,0-2.2,0.7-2.2,1.9c0,1.1,0.8,1.7,1.8,1.7c0.4,0,0.8-0.1,1.1-0.2c0.2-0.1,0.3-0.1,0.5-0.3c0.1,0.2,0.4,0.4,0.6,0.5L55.6,15.7z
		 M69.8,15c-0.3,0.1-0.5,0.1-0.8,0.1c-0.5,0-0.8-0.2-0.8-0.7c0-0.6,0.4-0.7,1.1-0.7c0.2,0,0.3,0,0.4,0.1v0.4
		C69.7,14.6,69.8,14.9,69.8,15z M71.7,15.7c-0.4-0.6-0.5-0.9-0.5-1.7v-1.5c0-0.8-0.1-1.1-0.3-1.4c-0.3-0.4-0.8-0.6-1.7-0.6
		c-0.6,0-1.3,0.1-1.9,0.2l0.2,1.1c0.4-0.1,0.8-0.1,1.1-0.1c1,0,1.1,0.1,1.1,0.9v0.3c-0.2-0.1-0.5-0.1-0.7-0.1
		c-1.5,0-2.2,0.7-2.2,1.9c0,1.1,0.8,1.7,1.8,1.7c0.4,0,0.8-0.1,1.1-0.2c0.2-0.1,0.3-0.1,0.5-0.3c0.1,0.2,0.4,0.4,0.6,0.5L71.7,15.7z
		 M40,14.3c0,0.5-0.2,0.9-0.9,0.9c-0.2,0-0.3,0-0.6-0.1v-1.6c0.4-0.1,0.4-0.1,0.6-0.1C39.8,13.5,40,13.8,40,14.3z M37,10.6l0,5.3
		c0.7,0.3,1.4,0.4,2.1,0.4c1.5,0,2.4-0.8,2.4-2.1c0-1.2-0.7-1.9-2.1-1.9c-0.3,0-0.6,0-0.9,0.1v-1.8H37z M77,16.2v-5.5h-1.5v2.1h-1.6
		v-2.1h-1.5v5.5h1.5V14h1.6v2.3H77z M82.9,16.2c0,0-0.8-1.7-1-2.1c-0.2-0.4-0.4-0.7-0.9-0.8v0c0.3-0.1,0.5-0.2,0.8-0.8
		c0.2-0.5,0.3-0.7,0.5-0.8c0.1-0.1,0.3-0.1,0.3-0.1l0.1-1c-0.2,0-0.4,0-0.7,0c-0.4,0-0.6,0.1-0.8,0.3c-0.1,0.2-0.3,0.4-0.4,0.6
		c-0.1,0.3-0.2,0.5-0.4,0.8c-0.1,0.3-0.2,0.4-0.6,0.4h-0.2v-2.1h-1.5v5.5h1.5V14l0.2,0c0.4,0,0.5,0.1,0.7,0.5
		c0.3,0.5,0.7,1.7,0.7,1.7H82.9z M28.8,16.2h1.7l-2.5-7.7c-0.3-0.1-0.6-0.1-0.9-0.1c-0.4,0-0.5,0.1-0.8,0.1l-2.7,7.7h1.6
		c0,0,0.2-0.7,0.5-1.5h2.8C28.6,15.5,28.8,16.2,28.8,16.2z M25.9,13.4c0,0,0.5-1.5,0.5-1.8c0.2-0.6,0.5-1.6,0.5-1.6h0
		c0,0,0.3,1,0.4,1.6c0.1,0.2,0.5,1.8,0.5,1.8H25.9z M58.1,12.5c-0.5,0-0.9,0.4-0.9,0.9c0,0.5,0.4,0.9,0.9,0.9c0.5,0,0.9-0.4,0.9-0.9
		C59,12.9,58.6,12.5,58.1,12.5z"/>
</g>
</svg>
