<?xml version="1.0" encoding="utf-8"?>
<!-- Generator: Adobe Illustrator 17.1.0, SVG Export Plug-In . SVG Version: 6.00 Build 0)  -->
<!DOCTYPE svg PUBLIC "-//W3C//DTD SVG 1.1//EN" "http://www.w3.org/Graphics/SVG/1.1/DTD/svg11.dtd">
<svg version="1.1" id="Слой_1" xmlns="http://www.w3.org/2000/svg" xmlns:xlink="http://www.w3.org/1999/xlink" x="0px" y="0px"
	 viewBox="0 0 83 25" enable-background="new 0 0 83 25" xml:space="preserve">
<g>
	<g>
		<path d="M73.4,10.9c0.1-0.9,0.7-1.1,1.4-1.1c0.4,0,1.2,0.1,1.2,0.9v1.7c0,0.4,0.1,0.4,0.2,0.5V13h-0.9c0-0.1-0.1-0.2-0.1-0.4
			c-0.2,0.2-0.4,0.4-1,0.4c-0.5,0-0.9-0.3-0.9-0.9c0-0.7,0.7-1,1.4-1.1c0.3,0,0.5-0.1,0.5-0.3c0-0.3-0.3-0.4-0.5-0.4
			c-0.4,0-0.5,0.3-0.5,0.4H73.4z M74.7,11.6c-0.3,0.1-0.5,0.1-0.5,0.5c0,0.3,0.2,0.4,0.4,0.4c0.4,0,0.7-0.2,0.7-0.6v-0.4
			C75.2,11.5,75,11.6,74.7,11.6"/>
		<path d="M78.7,9.9V11h-1.3V9.9h-1.1c0,0,0.3,0.2,0.3,0.7V13h0.8v-1.3h1.3V13h0.8V9.9H78.7z"/>
		<path d="M81.7,11.1l1.1-1.2h-1l-1,1.2V9.9h-1.1c0,0,0.3,0.2,0.3,0.7V13h0.8v-1l0.3-0.3l0.7,1.3h1L81.7,11.1z"/>
		<path d="M73,11.1c-0.1-0.2-0.1-0.3-0.3-0.4c-0.1-0.1-0.3-0.2-0.5-0.3c-0.2-0.1-0.4-0.1-0.7-0.1h-1V9.5h1.6c0.4,0,0.7,0.3,0.7,0.3
			v-1h-3.4c0,0,0.3,0.2,0.3,0.7V13h1.8c0.3,0,0.5,0,0.7-0.1c0.2-0.1,0.3-0.2,0.5-0.3c0.1-0.1,0.2-0.3,0.3-0.4
			c0.1-0.2,0.1-0.3,0.1-0.5C73.1,11.4,73.1,11.3,73,11.1 M72.1,11.9c0,0.1-0.1,0.1-0.2,0.2c-0.1,0-0.2,0.1-0.3,0.1
			c-0.1,0-0.2,0-0.3,0h-0.7V11h0.7c0.1,0,0.2,0,0.3,0c0.1,0,0.2,0,0.3,0.1c0.1,0,0.1,0.1,0.2,0.2c0,0.1,0.1,0.2,0.1,0.3
			C72.2,11.7,72.2,11.9,72.1,11.9"/>
		<path d="M32.6,9.9v0.9c0,0,0.2-0.3,0.7-0.3h0.2V13h0.8v-2.4h0.9V9.9H32.6z"/>
		<path d="M41.6,10.8c-0.1-0.2-0.1-0.4-0.3-0.5C41.2,10.2,41,10,40.9,10c-0.2-0.1-0.4-0.1-0.6-0.1c-0.2,0-0.4,0-0.5,0.1
			c-0.2,0.1-0.3,0.2-0.4,0.4h0l0-0.4h-1.1c0,0,0.3,0.2,0.3,0.7V14h0.8v-1.4h0c0.1,0.2,0.2,0.3,0.4,0.3c0.2,0.1,0.3,0.1,0.5,0.1
			c0.2,0,0.4,0,0.6-0.1c0.2-0.1,0.3-0.2,0.4-0.4c0.1-0.1,0.2-0.3,0.3-0.5c0.1-0.2,0.1-0.4,0.1-0.6C41.6,11.2,41.6,11,41.6,10.8
			 M40.8,11.8c0,0.1-0.1,0.2-0.1,0.3c-0.1,0.1-0.1,0.2-0.2,0.2c-0.1,0.1-0.2,0.1-0.3,0.1c-0.1,0-0.2,0-0.3-0.1
			c-0.1-0.1-0.2-0.1-0.2-0.2c-0.1-0.1-0.1-0.2-0.1-0.3c0-0.1,0-0.2,0-0.4c0-0.1,0-0.2,0-0.4c0-0.1,0.1-0.2,0.1-0.3
			c0.1-0.1,0.1-0.2,0.2-0.2c0.1-0.1,0.2-0.1,0.3-0.1c0.1,0,0.2,0,0.3,0.1c0.1,0.1,0.2,0.1,0.2,0.2c0.1,0.1,0.1,0.2,0.1,0.3
			c0,0.1,0,0.2,0,0.4C40.8,11.6,40.8,11.7,40.8,11.8"/>
		<path d="M63.3,10.8c-0.1-0.2-0.1-0.4-0.3-0.5C63,10.2,62.8,10,62.7,10c-0.2-0.1-0.4-0.1-0.6-0.1c-0.2,0-0.4,0-0.5,0.1
			c-0.2,0.1-0.3,0.2-0.4,0.4h0l0-0.4h-1.1c0,0,0.3,0.2,0.3,0.7V14h0.8v-1.4h0c0.1,0.2,0.2,0.3,0.4,0.3c0.2,0.1,0.3,0.1,0.5,0.1
			c0.2,0,0.4,0,0.6-0.1c0.2-0.1,0.3-0.2,0.4-0.4c0.1-0.1,0.2-0.3,0.3-0.5c0.1-0.2,0.1-0.4,0.1-0.6C63.4,11.2,63.4,11,63.3,10.8
			 M62.6,11.8c0,0.1-0.1,0.2-0.1,0.3c-0.1,0.1-0.1,0.2-0.2,0.2c-0.1,0.1-0.2,0.1-0.3,0.1c-0.1,0-0.2,0-0.3-0.1
			c-0.1-0.1-0.2-0.1-0.2-0.2c-0.1-0.1-0.1-0.2-0.1-0.3c0-0.1,0-0.2,0-0.4c0-0.1,0-0.2,0-0.4c0-0.1,0.1-0.2,0.1-0.3
			c0.1-0.1,0.1-0.2,0.2-0.2c0.1-0.1,0.2-0.1,0.3-0.1c0.1,0,0.2,0,0.3,0.1c0.1,0.1,0.2,0.1,0.2,0.2c0.1,0.1,0.1,0.2,0.1,0.3
			c0,0.1,0,0.2,0,0.4C62.6,11.6,62.6,11.7,62.6,11.8"/>
		<path d="M66.6,12.3V9.9h-0.8v2.4h-1.1V9.9h-1.1c0,0,0.3,0.2,0.3,0.7V13l2.4,0c0.6,0,0.8,0.5,0.8,0.5v-1.1H66.6z"/>
		<path d="M38.1,12.1c-0.2,0.7-0.8,1-1.3,1c-0.9,0-1.5-0.4-1.5-1.7c0-0.4,0.1-1.6,1.5-1.6c0.9,0,1.4,0.5,1.4,1.5v0.3H36
			c0,0.2,0.1,0.8,0.7,0.8c0.2,0,0.5-0.1,0.5-0.3H38.1z M37.3,11.1c0-0.5-0.4-0.6-0.6-0.6c-0.4,0-0.6,0.2-0.6,0.6H37.3z"/>
		<path d="M59.8,12.1c-0.2,0.7-0.8,1-1.3,1c-0.9,0-1.5-0.4-1.5-1.7c0-0.4,0.1-1.6,1.5-1.6c0.9,0,1.4,0.5,1.4,1.5v0.3h-2.1
			c0,0.2,0.1,0.8,0.7,0.8c0.2,0,0.5-0.1,0.5-0.3H59.8z M59,11.1c0-0.5-0.4-0.6-0.6-0.6c-0.4,0-0.6,0.2-0.6,0.6H59z"/>
		<path d="M31.5,9.9V11h-1.2V9.9h-1.1c0,0,0.3,0.2,0.3,0.7V13h0.8v-1.3h1.2V13h0.8V9.9H31.5z"/>
		<polygon points="49.3,10.8 49.2,10.8 49.3,11 49.3,13 48.5,13 48.5,9.9 49.5,9.9 50.3,12.1 50.3,12.1 51.1,9.9 52.2,9.9 52.2,13 
			51.4,13 51.4,11 51.4,10.8 51.4,10.8 50.6,13 50,13 		"/>
		<path d="M49.3,11.6V13h-0.8v-2.4c0-0.4-0.3-0.7-0.3-0.7h1.1V11V11.6z"/>
		<polygon points="53.6,10.8 53.6,10.8 53.6,11 53.6,13 52.8,13 52.8,9.9 53.9,9.9 54.7,12.1 54.7,12.1 55.4,9.9 56.5,9.9 56.5,13 
			55.7,13 55.7,11 55.7,10.8 55.7,10.8 54.9,13 54.4,13 		"/>
		<path d="M53.6,11.6V13h-0.8v-2.4c0-0.4-0.3-0.7-0.3-0.7h1.1V11V11.6z"/>
		<path d="M48,11.4c0,1.1-0.7,1.6-1.6,1.6c-0.8,0-1.6-0.5-1.6-1.6c0-1.1,0.7-1.6,1.6-1.6C47.2,9.8,48,10.3,48,11.4 M45.7,11.4
			c0,0.4,0.1,0.9,0.7,0.9c0.6,0,0.7-0.5,0.7-0.9c0-0.4-0.1-0.9-0.7-0.9C45.8,10.5,45.7,11,45.7,11.4"/>
		<path d="M43.7,11.1l1.1-1.2h-1l-1,1.2V9.9h-1.1c0,0,0.3,0.2,0.3,0.7V13h0.8v-1l0.3-0.3l0.7,1.3h1L43.7,11.1z"/>
		<path d="M27.9,8.7l-1.8,2.8h0V8.7H25c0,0,0.3,0.2,0.3,0.7V13h0.9l1.8-2.8h0V13h0.9V8.7H27.9z"/>
		<path fill="#F9B218" d="M13.2,8.7v1.9h5.9c-1.8,1.5-4.6,3.9-5.9,5v2.6l11.2-9.5H13.2z"/>
		<path fill="#F9B218" d="M11.2,17.7v-1.9H5.3c1.8-1.5,4.6-3.9,5.9-5V8.1L0,17.7H11.2z"/>
		<rect x="11.2" y="10.7" width="2" height="5"/>
	</g>
	<g>
		<path d="M51.5,16.2H52c0.3,0,0.8,0,0.8,0.7c0,0.6-0.6,0.7-0.8,0.7h-0.8v-2.3h1.4v0.3h-1.1V16.2z M51.5,16.5v0.8H52
			c0.3,0,0.5-0.2,0.5-0.4c0-0.2-0.1-0.4-0.5-0.4H51.5z"/>
		<path d="M54.2,17.5l0-0.2c-0.2,0.2-0.4,0.2-0.6,0.2c-0.3,0-0.5-0.2-0.5-0.4c0-0.2,0.2-0.6,0.8-0.6h0.2v-0.1c0-0.3-0.1-0.4-0.4-0.4
			c-0.2,0-0.4,0.1-0.6,0.2V16c0.3-0.1,0.5-0.2,0.7-0.2c0.5,0,0.6,0.2,0.6,0.5v1.1H54.2z M54,16.8c-0.4,0-0.5,0.1-0.5,0.3
			c0,0.2,0.1,0.2,0.3,0.2c0.2,0,0.4-0.1,0.5-0.2v-0.3H54z"/>
		<path d="M55.1,17.5V16l0.3-0.1v0.7h0.7V16l0.3-0.1v1.7h-0.3v-0.7h-0.7v0.7H55.1z"/>
		<path d="M57.3,16.6L57.3,16.6l0.7-0.7h0.4l-0.7,0.7v0c0.4,0.1,0.4,0.5,0.7,0.9h-0.4c-0.3-0.3-0.3-0.7-0.6-0.7h-0.1v0.7H57V16
			l0.3-0.1V16.6z"/>
		<path d="M60.3,15.2c0.5,0,0.7,0.2,0.7,0.6c0,0.2-0.1,0.4-0.4,0.5v0c0.3,0.1,0.5,0.3,0.5,0.5c0,0.6-0.5,0.7-0.8,0.7h-0.8v-2.3H60.3
			z M59.9,16.2h0.4c0.2,0,0.4,0,0.4-0.4c0-0.3-0.3-0.4-0.5-0.4h-0.4V16.2z M59.9,16.5v0.8h0.4c0.2,0,0.5-0.1,0.5-0.4
			c0-0.3-0.3-0.4-0.5-0.4H59.9z"/>
		<path d="M62.6,17.5l0-0.2c-0.2,0.2-0.4,0.2-0.6,0.2c-0.3,0-0.5-0.2-0.5-0.4c0-0.2,0.2-0.6,0.8-0.6h0.2v-0.1c0-0.3-0.1-0.4-0.4-0.4
			c-0.2,0-0.4,0.1-0.6,0.2V16c0.3-0.1,0.5-0.2,0.7-0.2c0.5,0,0.6,0.2,0.6,0.5v1.1H62.6z M62.4,16.8c-0.4,0-0.5,0.1-0.5,0.3
			c0,0.2,0.1,0.2,0.3,0.2c0.2,0,0.4-0.1,0.5-0.2v-0.3H62.4z"/>
		<path d="M63.5,17.5V16l0.3-0.1v1.4h0.6V16l0.3-0.1v1.4h0.6V16l0.3-0.1v1.7H63.5z"/>
		<path d="M67.4,17.2v0.2c-0.1,0.1-0.3,0.2-0.6,0.2c-0.5,0-0.8-0.3-0.8-0.9c0-0.5,0.3-0.9,0.7-0.9c0.4,0,0.7,0.3,0.7,0.8v0.1h-1.1
			c0,0.4,0.2,0.6,0.5,0.6C67.1,17.4,67.2,17.3,67.4,17.2z M66.4,16.6h0.7c0-0.3-0.2-0.5-0.4-0.5C66.6,16.1,66.4,16.2,66.4,16.6z"/>
		<path d="M67.9,17.5v-1.6h1v0.3h-0.7v1.4H67.9z"/>
		<path d="M69.1,16.7c0-0.6,0.3-0.9,0.7-0.9c0.4,0,0.7,0.3,0.7,0.9c0,0.6-0.3,0.9-0.7,0.9C69.4,17.6,69.1,17.3,69.1,16.7z
			 M70.2,16.7c0-0.4-0.2-0.6-0.4-0.6c-0.2,0-0.4,0.2-0.4,0.6c0,0.4,0.2,0.6,0.4,0.6C70.1,17.4,70.2,17.2,70.2,16.7z"/>
		<path d="M72.8,15.9h0.4l-0.6,1.6c-0.2,0.5-0.4,0.7-0.7,0.7V18c0.2,0,0.4-0.2,0.4-0.4l-0.6-1.6h0.4l0.4,1.2h0L72.8,15.9z"/>
		<path d="M74.6,17.2v0.3c-0.2,0.1-0.4,0.1-0.5,0.1c-0.5,0-0.8-0.2-0.8-0.9c0-0.6,0.4-0.9,0.8-0.9c0.2,0,0.4,0.1,0.5,0.1v0.3
			c-0.2-0.1-0.3-0.2-0.5-0.2c-0.2,0-0.5,0.2-0.5,0.6c0,0.5,0.2,0.6,0.5,0.6C74.3,17.4,74.4,17.3,74.6,17.2z"/>
		<path d="M75,17.5v-1.6h1.4v1.6H76v-1.4h-0.7v1.4H75z"/>
		<path d="M78.2,17.2v0.2c-0.1,0.1-0.3,0.2-0.6,0.2c-0.5,0-0.8-0.3-0.8-0.9c0-0.5,0.3-0.9,0.7-0.9c0.4,0,0.7,0.3,0.7,0.8v0.1h-1.1
			c0,0.4,0.2,0.6,0.5,0.6C77.8,17.4,78,17.3,78.2,17.2z M77.1,16.6h0.7c0-0.3-0.2-0.5-0.4-0.5C77.3,16.1,77.2,16.2,77.1,16.6z"/>
		<path d="M79.5,15.9h0.3l-0.5,0.8l0.6,0.9h-0.4l-0.4-0.6h0l-0.4,0.6h-0.3l0.6-0.8l-0.5-0.8h0.4l0.3,0.6h0L79.5,15.9z"/>
		<path d="M81.1,17.5l0-0.2c-0.2,0.2-0.4,0.2-0.6,0.2c-0.3,0-0.5-0.2-0.5-0.4c0-0.2,0.2-0.6,0.8-0.6h0.2v-0.1c0-0.3-0.1-0.4-0.4-0.4
			c-0.2,0-0.4,0.1-0.6,0.2V16c0.3-0.1,0.5-0.2,0.7-0.2c0.5,0,0.6,0.2,0.6,0.5v1.1H81.1z M80.9,16.8c-0.4,0-0.5,0.1-0.5,0.3
			c0,0.2,0.1,0.2,0.3,0.2c0.2,0,0.4-0.1,0.5-0.2v-0.3H80.9z"/>
	</g>
</g>
</svg>
