<?xml version="1.0" encoding="utf-8"?>
<!-- Generator: Adobe Illustrator 17.1.0, SVG Export Plug-In . SVG Version: 6.00 Build 0)  -->
<!DOCTYPE svg PUBLIC "-//W3C//DTD SVG 1.1//EN" "http://www.w3.org/Graphics/SVG/1.1/DTD/svg11.dtd">
<svg version="1.1" id="Слой_1" xmlns="http://www.w3.org/2000/svg" xmlns:xlink="http://www.w3.org/1999/xlink" x="0px" y="0px"
	 viewBox="0 0 83 25" enable-background="new 0 0 83 25" xml:space="preserve">
<g>
	<path fill="#FFFFFF" d="M3.9,3.3c-2,0-3.6,1.6-3.6,3.6v11.2c0,2,1.6,3.6,3.6,3.6h11.2c2,0,3.6-1.6,3.6-3.6V6.9c0-2-1.6-3.6-3.6-3.6
		H3.9z"/>
	<path fill="#0B58A5" d="M26.9,8.4c0-0.3,0.1-0.5,0.2-0.6c0.1-0.1,0.3-0.2,0.6-0.2h4.1c0.5,0,0.8,0.3,0.8,0.8V16c0,0.1,0,0.1,0,0.2
		c0,0-0.1,0-0.2,0h-1.1c-0.1,0-0.1,0-0.2,0c0,0-0.1-0.1-0.1-0.2V8.9h-2.7L28.2,10c-0.1,0.9-0.1,1.8-0.2,2.5
		c-0.1,0.7-0.2,1.4-0.4,1.9c-0.2,0.5-0.4,1-0.8,1.3c-0.3,0.3-0.8,0.6-1.4,0.8c-0.1,0-0.2,0-0.2,0c-0.1,0-0.1-0.1-0.1-0.2l-0.3-0.7
		c0-0.1,0-0.1,0-0.2c0,0,0.1-0.1,0.2-0.1c0.3-0.1,0.6-0.3,0.8-0.6c0.2-0.2,0.3-0.5,0.5-0.9c0.1-0.4,0.2-0.9,0.2-1.5
		c0.1-0.6,0.1-1.3,0.2-2.2L26.9,8.4"/>
	<path fill="#0B58A5" d="M39.8,13c0,1.1-0.3,2-0.8,2.5c-0.5,0.6-1.3,0.9-2.3,0.9c-1,0-1.8-0.3-2.2-0.9c-0.5-0.6-0.7-1.4-0.7-2.5
		c0-0.5,0.1-1,0.2-1.5c0.1-0.4,0.4-0.8,0.6-1.1c0.3-0.3,0.6-0.5,1-0.7c0.4-0.2,0.8-0.2,1.2-0.2c1,0,1.7,0.3,2.2,0.9
		C39.5,11.1,39.8,11.9,39.8,13 M38.3,13c0-0.3,0-0.6-0.1-0.9c0-0.3-0.1-0.5-0.2-0.7c-0.1-0.2-0.3-0.4-0.5-0.5
		c-0.2-0.1-0.4-0.2-0.7-0.2c-0.3,0-0.5,0.1-0.7,0.2c-0.2,0.1-0.4,0.3-0.5,0.5c-0.1,0.2-0.2,0.4-0.3,0.7c-0.1,0.3-0.1,0.6-0.1,0.9
		c0,0.7,0.1,1.2,0.3,1.6c0.2,0.4,0.6,0.6,1.2,0.6c0.3,0,0.5-0.1,0.7-0.2c0.2-0.1,0.4-0.3,0.5-0.5c0.1-0.2,0.2-0.4,0.3-0.7
		C38.3,13.6,38.3,13.3,38.3,13"/>
	<path fill="#0B58A5" d="M53.4,13c0,1.1-0.3,2-0.8,2.5c-0.5,0.6-1.3,0.9-2.3,0.9c-1,0-1.8-0.3-2.2-0.9c-0.5-0.6-0.7-1.4-0.7-2.5
		c0-0.5,0.1-1,0.2-1.5c0.1-0.4,0.4-0.8,0.6-1.1c0.3-0.3,0.6-0.5,1-0.7c0.4-0.2,0.8-0.2,1.2-0.2c1,0,1.7,0.3,2.2,0.9
		C53.2,11.1,53.4,11.9,53.4,13 M51.9,13c0-0.3,0-0.6-0.1-0.9c0-0.3-0.1-0.5-0.2-0.7c-0.1-0.2-0.3-0.4-0.5-0.5
		c-0.2-0.1-0.4-0.2-0.7-0.2c-0.3,0-0.5,0.1-0.7,0.2c-0.2,0.1-0.4,0.3-0.5,0.5c-0.1,0.2-0.2,0.4-0.3,0.7c-0.1,0.3-0.1,0.6-0.1,0.9
		c0,0.7,0.1,1.2,0.3,1.6c0.2,0.4,0.6,0.6,1.2,0.6c0.3,0,0.5-0.1,0.7-0.2c0.2-0.1,0.4-0.3,0.5-0.5c0.1-0.2,0.2-0.4,0.3-0.7
		C51.9,13.6,51.9,13.3,51.9,13"/>
	<path fill="#0B58A5" d="M55.6,16.2c-0.3,0-0.4-0.1-0.5-0.2c-0.1-0.1-0.1-0.3-0.1-0.5V8.4c0-0.6,0.3-0.8,0.8-0.8h4.7
		c0.1,0,0.1,0,0.2,0.1c0,0,0,0.1,0,0.2v0.8c0,0.1,0,0.1,0,0.2c0,0-0.1,0-0.2,0h-4v1.9h2c0.5,0,0.9,0,1.2,0.1
		c0.3,0.1,0.6,0.2,0.8,0.4c0.2,0.2,0.4,0.3,0.5,0.5c0.1,0.2,0.2,0.4,0.3,0.6c0.1,0.2,0.1,0.4,0.1,0.6c0,0.2,0,0.4,0,0.5
		c0,0.4-0.1,0.8-0.2,1.1c-0.2,0.3-0.4,0.6-0.6,0.9c-0.3,0.2-0.6,0.4-0.9,0.6c-0.4,0.1-0.7,0.2-1.1,0.2H55.6 M59.9,13.5
		c0-0.4-0.1-0.7-0.4-1c-0.3-0.3-0.6-0.4-1.1-0.4h-2.1v2.8h2c0.3,0,0.5,0,0.7-0.1c0.2-0.1,0.3-0.2,0.5-0.4c0.1-0.1,0.2-0.3,0.2-0.5
		C59.9,13.7,59.9,13.6,59.9,13.5"/>
	<path fill="#0B58A5" d="M68.1,15.5c0,0.2-0.1,0.3-0.2,0.4c-0.2,0.1-0.4,0.2-0.6,0.2c-0.2,0.1-0.4,0.1-0.7,0.1
		c-0.2,0-0.4,0.1-0.7,0.1c-0.2,0-0.4,0-0.6,0c-0.5,0-1-0.1-1.4-0.2c-0.4-0.1-0.6-0.3-0.9-0.4c-0.2-0.2-0.4-0.4-0.4-0.7
		c-0.1-0.3-0.1-0.5-0.1-0.8c0-0.3,0-0.6,0.1-0.8c0.1-0.3,0.3-0.5,0.5-0.7c0.2-0.2,0.5-0.4,0.8-0.5c0.3-0.1,0.8-0.2,1.3-0.2h1.4v-0.2
		c0-0.2,0-0.3,0-0.4c0-0.1-0.1-0.2-0.2-0.3c-0.1-0.1-0.2-0.2-0.4-0.2c-0.2-0.1-0.4-0.1-0.6-0.1c-0.3,0-0.6,0-0.9,0.1
		c-0.3,0-0.6,0.1-0.8,0.2c-0.1,0-0.2,0-0.2,0c0,0-0.1-0.1-0.1-0.1l-0.2-0.7c0-0.1,0-0.2,0.1-0.3c0.3-0.1,0.7-0.2,1.1-0.3
		c0.4-0.1,0.8-0.1,1.2-0.1c0.9,0,1.5,0.2,1.9,0.6c0.4,0.4,0.6,0.9,0.6,1.7V15.5 M66.6,13.2h-1.2c-0.1,0-0.3,0-0.5,0
		c-0.2,0-0.3,0.1-0.5,0.1c-0.1,0.1-0.3,0.2-0.4,0.3C64.1,13.8,64,14,64,14.3c0,0.4,0.1,0.6,0.4,0.7c0.2,0.1,0.6,0.2,1,0.2
		c0.1,0,0.1,0,0.2,0c0.1,0,0.2,0,0.3,0c0.1,0,0.2,0,0.4-0.1c0.1,0,0.2-0.1,0.4-0.1V13.2z"/>
	<path fill="#0B58A5" d="M71.1,16.2c0,0-0.1,0-0.2,0H70c-0.1,0-0.2,0-0.2,0c0,0-0.1-0.1-0.1-0.2v-6c0-0.1,0-0.2,0.1-0.2
		c0,0,0.1,0,0.2,0h0.9c0.1,0,0.2,0,0.2,0c0,0,0.1,0.1,0.1,0.2v2.2h2.7V10c0-0.1,0-0.2,0.1-0.2c0,0,0.1,0,0.2,0h0.9
		c0.1,0,0.2,0,0.2,0c0,0,0,0.1,0,0.2v6c0,0.1,0,0.2,0,0.2c0,0-0.1,0-0.2,0h-0.9c-0.1,0-0.2,0-0.2,0c0,0-0.1-0.1-0.1-0.2v-2.6h-2.7
		V16C71.1,16.1,71.1,16.2,71.1,16.2"/>
	<path fill="#0B58A5" d="M82.9,16l-2.1-3.2l1.9-2.8c0,0,0-0.1,0-0.1c0,0-0.1-0.1-0.1-0.1h-1.3c0,0-0.1,0-0.1,0l-1.7,2.4h-1.2V9.9
		c0-0.1,0-0.1,0-0.2c0,0-0.1,0-0.2,0h-1c-0.1,0-0.1,0-0.2,0c0,0-0.1,0.1-0.1,0.2V16c0,0.1,0,0.1,0.1,0.2c0,0,0.1,0,0.2,0h1
		c0.1,0,0.1,0,0.2,0c0,0,0-0.1,0-0.2v-2.7h1.1l1.9,2.9c0,0,0.1,0,0.1,0h1.3c0.1,0,0.1,0,0.1-0.1C83,16.1,83,16.1,82.9,16"/>
	<path fill="#0B58A5" d="M47,16l-2.1-3.2l1.9-2.8c0,0,0-0.1,0-0.1c0,0-0.1-0.1-0.1-0.1h-1.3c0,0-0.1,0-0.1,0l-1.7,2.4h-1.2V9.9
		c0-0.1,0-0.1,0-0.2c0,0-0.1,0-0.2,0h-1c-0.1,0-0.1,0-0.2,0c0,0-0.1,0.1-0.1,0.2V16c0,0.1,0,0.1,0.1,0.2c0,0,0.1,0,0.2,0h1
		c0.1,0,0.1,0,0.2,0c0,0,0-0.1,0-0.2v-2.7h1.1l1.9,2.9c0,0,0.1,0,0.1,0h1.3c0.1,0,0.1,0,0.1-0.1C47.1,16.1,47.1,16.1,47,16"/>
	<path fill="#0756A5" d="M15.1,22H3.9C1.8,22,0,20.2,0,18.1V6.9C0,4.8,1.8,3,3.9,3h11.2C17.2,3,19,4.8,19,6.9v11.2
		C19,20.2,17.2,22,15.1,22 M3.9,3.3c-2,0-3.6,1.6-3.6,3.6v11.2c0,2,1.6,3.6,3.6,3.6h11.2c2,0,3.6-1.6,3.6-3.6V6.9
		c0-2-1.6-3.6-3.6-3.6H3.9z"/>
	<path fill="#1EA9E1" d="M8.5,5.8c0.3-0.2,0.6-0.3,0.9-0.3c-0.7,0-1.3,0.4-1.6,1l-5.7,9.8c-0.5,0.9-0.2,2.1,0.7,2.7
		c0.9,0.5,2.1,0.2,2.7-0.7l4-6.9L7.8,8.5C7.3,7.5,7.6,6.3,8.5,5.8"/>
	<path fill="#0756A5" d="M16.9,16.3l-5.7-9.8c-0.4-0.6-1-1-1.6-1c0.3,0,0.6,0.1,0.9,0.3c0.9,0.5,1.3,1.7,0.7,2.7l-1.7,2.9l4,6.9
		c0.5,0.9,1.7,1.3,2.7,0.7C17.1,18.4,17.4,17.3,16.9,16.3"/>
	<path fill="#1C4076" d="M10.5,5.8c-0.3-0.2-0.6-0.3-0.9-0.3h0H9.5h0c-0.3,0-0.6,0.1-0.9,0.3C7.6,6.3,7.3,7.5,7.8,8.5l1.7,2.9
		l1.7-2.9C11.7,7.5,11.4,6.3,10.5,5.8"/>
	<path fill="#FBAE3D" d="M11.5,17.3c0,1.1-0.9,2-2,2c-1.1,0-2-0.9-2-2c0-1.1,0.9-2,2-2C10.6,15.3,11.5,16.2,11.5,17.3"/>
</g>
</svg>
