<?xml version="1.0" encoding="utf-8"?>
<!-- Generator: Adobe Illustrator 17.1.0, SVG Export Plug-In . SVG Version: 6.00 Build 0)  -->
<!DOCTYPE svg PUBLIC "-//W3C//DTD SVG 1.1//EN" "http://www.w3.org/Graphics/SVG/1.1/DTD/svg11.dtd">
<svg version="1.1" id="Слой_1" xmlns="http://www.w3.org/2000/svg" xmlns:xlink="http://www.w3.org/1999/xlink" x="0px" y="0px"
	 viewBox="0 0 85 16" enable-background="new 0 0 85 16" xml:space="preserve">
<g>
	<g>
		<path fill="#80142B" d="M38.4,5.3l-0.9,3.1c-0.1,0.3-0.2,0.7-0.2,0.7h0c0,0-0.1-0.4-0.2-0.7l-0.9-3.1H35l-0.7,5.3h1l0.4-3.4
			c0-0.3,0.1-0.7,0.1-0.7h0c0,0,0.1,0.4,0.2,0.7l1,3.4h0.7l1-3.4c0.1-0.3,0.2-0.7,0.2-0.7h0c0,0,0,0.4,0.1,0.7l0.4,3.4h1l-0.7-5.3
			H38.4z"/>
		<path fill="#80142B" d="M43,5.3c-0.1,0-0.3,0-0.4,0c-0.6,0-1.1,0.1-1.5,0.3v4.9c0.3,0.2,0.9,0.3,1.5,0.3c0.2,0,0.3,0,0.4,0
			c1.2-0.2,1.9-1.1,1.9-2.7C44.9,6.4,44.2,5.5,43,5.3z M43,9.8c-0.1,0-0.2,0.1-0.4,0.1c-0.2,0-0.4,0-0.5-0.1V6.2
			c0.1,0,0.3-0.1,0.5-0.1c0.1,0,0.3,0,0.4,0.1c0.5,0.2,0.9,0.7,0.9,1.8C43.9,9.1,43.5,9.6,43,9.8z"/>
		<path fill="#80142B" d="M49.5,5.3l-0.9,3.1c-0.1,0.3-0.2,0.7-0.2,0.7h0c0,0-0.1-0.4-0.2-0.7l-0.9-3.1h-1.2l-0.7,5.3h1l0.4-3.4
			c0-0.3,0.1-0.7,0.1-0.7h0c0,0,0.1,0.4,0.2,0.7l1,3.4h0.7l1-3.4C49.9,6.9,50,6.6,50,6.6h0c0,0,0,0.4,0.1,0.7l0.4,3.4h1l-0.7-5.3
			H49.5z"/>
		<path fill="#80142B" d="M56.7,7.9L56.7,7.9c0.4-0.1,0.8-0.6,0.8-1.2c0-0.8-0.6-1.4-1.7-1.4c-0.1,0-0.2,0-0.2,0
			c-0.6,0-1.2,0.1-1.6,0.3v4.9c0.4,0.2,1,0.3,1.6,0.3c0.1,0,0.2,0,0.2,0c1.2-0.1,1.9-0.6,1.9-1.5C57.7,8.5,57.2,8,56.7,7.9z M55,6.1
			C55.1,6.1,55.4,6,55.6,6c0.1,0,0.2,0,0.2,0c0.5,0.1,0.8,0.3,0.8,0.7c0,0.3-0.1,0.5-0.3,0.6c-0.1,0.1-0.3,0.2-0.5,0.2
			c-0.1,0-0.1,0-0.2,0H55V6.1z M55.8,9.9c-0.1,0-0.2,0-0.2,0c-0.2,0-0.5,0-0.6-0.1V8.3h0.7c0.1,0,0.1,0,0.2,0c0.2,0,0.4,0.1,0.5,0.2
			c0.2,0.1,0.3,0.4,0.3,0.7C56.7,9.6,56.4,9.9,55.8,9.9z"/>
		<path fill="#80142B" d="M60,6.6L60,6.6c-0.6,0-1.1,0.2-1.5,0.3l0.2,0.7c0.3-0.1,0.7-0.2,1.1-0.2c0,0,0,0,0.1,0
			c0.4,0,0.7,0.2,0.7,0.6v0.2c-0.2,0-0.5,0-0.7,0.1c-0.9,0.1-1.6,0.4-1.6,1.3c0,0.8,0.5,1.2,1.6,1.3c0.1,0,0.1,0,0.2,0
			c0.6,0,1.2-0.1,1.5-0.3V8C61.5,7,61,6.6,60,6.6z M60.6,9.9C60.5,10,60.3,10,60,10c0,0-0.1,0-0.1,0c-0.4,0-0.7-0.2-0.7-0.6
			c0-0.4,0.3-0.6,0.7-0.6c0.2,0,0.4-0.1,0.7-0.1V9.9z"/>
		<path fill="#80142B" d="M64,6.6c-0.7,0-1.2,0.1-1.6,0.3v3.8h1V7.5c0.1-0.1,0.4-0.1,0.6-0.1c0.5,0,0.7,0.2,0.7,0.6v2.6h1V7.9
			C65.7,7.1,65.2,6.6,64,6.6z"/>
		<polygon fill="#80142B" points="68.7,8.5 70.1,6.7 68.9,6.7 67.6,8.4 67.6,8.4 67.6,4.9 66.6,4.9 66.6,10.7 67.6,10.7 67.6,8.7 
			67.6,8.7 69,10.7 70.2,10.7 		"/>
	</g>
	<path fill="#F48220" d="M26.5,13.7v-0.2V13.7L26.5,13.7L26.5,13.7z M26.5,12.1v-0.4l0.2,0.3L26.5,12.1L26.5,12.1z M26.5,10.8v-0.5
		l0.3-0.6l1,0.6l-0.6,1L26.5,10.8L26.5,10.8z M26.5,5.7V5.2l0.7-0.4l0.6,1l-1,0.6L26.5,5.7L26.5,5.7z M26.5,4.4V3.9l0.2,0.2
		L26.5,4.4L26.5,4.4z M26.5,2.5V2.3l0.1,0.1L26.5,2.5L26.5,2.5z M28.2,2.2l-0.6-0.5l-0.5,0.6l0.6,0.5L28.2,2.2L28.2,2.2z M29.8,4.4
		l-0.4-0.7l-0.7,0.4l0.4,0.7L29.8,4.4L29.8,4.4z M28.3,4l-0.6-0.8l-0.8,0.6l0.6,0.8L28.3,4L28.3,4z M29.9,7.1L30.6,7l-0.1-0.8
		l-0.8,0.1L29.9,7.1L29.9,7.1z M27.2,7.8l1.1-0.2l-0.2-1.1L27,6.7L27.2,7.8L27.2,7.8z M29.4,6.1L29,5.2l-0.9,0.3l0.3,0.9L29.4,6.1
		L29.4,6.1z M29.9,8.9l-0.1,0.8l0.8,0.1L30.6,9L29.9,8.9L29.9,8.9z M28.3,8.4l-1.1-0.2L27,9.3l1.1,0.2L28.3,8.4L28.3,8.4z M29.6,7.5
		h-1v1h1V7.5L29.6,7.5z M28.8,11.9l0.7,0.4l0.4-0.7l-0.7-0.4L28.8,11.9L28.8,11.9z M29.4,9.9l-0.9-0.3l-0.3,0.9l0.9,0.3L29.4,9.9
		L29.4,9.9z M27.1,13.8l0.5,0.6l0.6-0.5l-0.5-0.6L27.1,13.8L27.1,13.8z M26.9,12.1l0.8,0.6l0.6-0.8l-0.8-0.6L26.9,12.1z M25.8,0.7
		l-0.7-0.3l-0.3,0.7l0.7,0.3L25.8,0.7L25.8,0.7z M26.5,2.3v0.2l-0.4,0.7l-0.9-0.5l0.5-0.9L26.5,2.3L26.5,2.3z M26.5,3.9v0.4L26,5
		l-0.8-0.7l0.7-0.8L26.5,3.9L26.5,3.9z M26.5,5.2v0.5l-0.2-0.4L26.5,5.2L26.5,5.2z M26.5,10.3v0.5l-0.2-0.1L26.5,10.3L26.5,10.3z
		 M26.5,11.6v0.4l-0.6,0.5l-0.7-0.8L26,11L26.5,11.6L26.5,11.6z M26.5,13.5v0.2l-0.8,0.4l-0.5-0.9l0.9-0.5L26.5,13.5L26.5,13.5z
		 M19,13.7v-0.2l0.4-0.7l0.9,0.5l-0.5,0.9L19,13.7L19,13.7z M19,12.1v-0.4l0.5-0.6l0.8,0.7l-0.7,0.8L19,12.1L19,12.1z M19,10.8v-0.5
		l0.2,0.4L19,10.8L19,10.8z M19,5.7V5.2l0.2,0.1L19,5.7L19,5.7z M19,4.4V3.9l0.6-0.5l0.7,0.8L19.5,5L19,4.4L19,4.4z M19,2.5V2.3
		l0.8-0.4l0.5,0.9l-0.9,0.5L19,2.5L19,2.5z M25.2,3l-1-0.4l-0.4,1l1,0.4L25.2,3L25.2,3z M24.4,1.3l-1-0.2l-0.2,1l1,0.2L24.4,1.3
		L24.4,1.3z M21.1,14.7l1,0.2l0.2-1l-1-0.2L21.1,14.7L21.1,14.7z M19.7,15.3l0.7,0.3l0.3-0.7l-0.7-0.3L19.7,15.3L19.7,15.3z
		 M21.4,13.4l0.4-1l-1-0.4l-0.4,1L21.4,13.4L21.4,13.4z M24.8,14.9l0.3,0.7l0.7-0.3l-0.3-0.7L24.8,14.9L24.8,14.9z M24.1,13.4l1-0.4
		l-0.4-1l-1,0.4L24.1,13.4L24.1,13.4z M20.7,1.1l-0.3-0.7l-0.7,0.3l0.3,0.7L20.7,1.1L20.7,1.1z M21.8,3.7l-0.4-1l-1,0.4l0.4,1
		L21.8,3.7L21.8,3.7z M22.4,16h0.8v-0.8h-0.8V16L22.4,16z M22.2,13.5h1.1v-1.1h-1.1V13.5L22.2,13.5z M23.3,13.9l0.2,1l1-0.2l-0.2-1
		L23.3,13.9L23.3,13.9z M22.2,2.1l-0.2-1l-1,0.2l0.2,1L22.2,2.1L22.2,2.1z M23.1,0h-0.8v0.8h0.8V0L23.1,0z M23.3,2.5h-1.1v1.1h1.1
		V2.5z M19,2.3v0.2V2.3L19,2.3L19,2.3z M19,3.9v0.4l-0.2-0.3L19,3.9L19,3.9z M19,5.2v0.5l-0.3,0.6l-1-0.6l0.6-1L19,5.2L19,5.2z
		 M19,10.3v0.5l-0.7,0.4l-0.6-1l1-0.6L19,10.3L19,10.3z M19,11.6v0.4l-0.2-0.2L19,11.6L19,11.6z M19,13.5v0.2l-0.1-0.1L19,13.5
		L19,13.5z M17.3,13.8l0.6,0.5l0.5-0.6l-0.6-0.5L17.3,13.8L17.3,13.8z M17.2,12l0.6,0.8l0.8-0.6l-0.6-0.8L17.2,12L17.2,12z
		 M15.7,11.6l0.4,0.7l0.7-0.4l-0.4-0.7L15.7,11.6L15.7,11.6z M17.4,10.5l-0.3-0.9l-0.9,0.3l0.3,0.9L17.4,10.5L17.4,10.5z M15.6,8.9
		L14.8,9L15,9.8l0.8-0.1L15.6,8.9L15.6,8.9z M18.3,8.2l-1.1,0.2l0.2,1.1l1.1-0.2L18.3,8.2L18.3,8.2z M15.9,8.5h1l0-1h-1V8.5
		L15.9,8.5z M15.7,6.4L15,6.2L14.8,7l0.8,0.1L15.7,6.4L15.7,6.4z M17.2,7.6l1.1,0.2l0.2-1.1l-1.1-0.2L17.2,7.6L17.2,7.6z M16.1,6.1
		l0.9,0.3l0.3-0.9l-0.9-0.3L16.1,6.1L16.1,6.1z M16.7,4.1L16,3.7l-0.4,0.7l0.7,0.4L16.7,4.1L16.7,4.1z M18.6,3.9l-0.8-0.6L17.2,4
		l0.8,0.6L18.6,3.9L18.6,3.9z M18.4,2.2l-0.5-0.6l-0.6,0.5l0.5,0.6L18.4,2.2z"/>
</g>
</svg>
