<?xml version="1.0" encoding="utf-8"?>
<!-- Generator: Adobe Illustrator 17.1.0, SVG Export Plug-In . SVG Version: 6.00 Build 0)  -->
<!DOCTYPE svg PUBLIC "-//W3C//DTD SVG 1.1//EN" "http://www.w3.org/Graphics/SVG/1.1/DTD/svg11.dtd">
<svg version="1.1" id="Слой_1" xmlns="http://www.w3.org/2000/svg" xmlns:xlink="http://www.w3.org/1999/xlink" x="0px" y="0px"
	 viewBox="0 0 83 25" enable-background="new 0 0 83 25" xml:space="preserve">
<g>
	<rect x="12.2" y="7.9" fill="#8DC63F" width="3.1" height="3.1"/>
	<rect x="12.2" y="14" fill="#D7DF23" width="3.1" height="3.1"/>
	<rect x="12.2" y="17.1" fill="#00AEEF" width="3.1" height="3.1"/>
	<rect x="9.2" y="4.8" fill="#7ED3F7" width="3.1" height="3.1"/>
	<rect x="9.2" y="7.9" fill="#00AEEF" width="3.1" height="3.1"/>
	<rect x="9.2" y="11" fill="#7ED3F7" width="3.1" height="3.1"/>
	<rect x="6.1" y="4.8" fill="#2D4668" width="3.1" height="3.1"/>
	<rect x="6.1" y="11" fill="#D7DF23" width="3.1" height="3.1"/>
	<rect x="6.1" y="17.1" fill="#8DC63F" width="3.1" height="3.1"/>
	<rect x="3.1" y="7.9" fill="#8DC63F" width="3.1" height="3.1"/>
	<rect x="3.1" y="11" fill="#7ED3F7" width="3.1" height="3.1"/>
	<rect x="3.1" y="14" fill="#00AEEF" width="3.1" height="3.1"/>
	<rect x="0" y="4.8" fill="#7ED3F7" width="3.1" height="3.1"/>
	<rect x="0" y="7.9" fill="#D7DF23" width="3.1" height="3.1"/>
	<rect y="14" fill="#2D4668" width="3.1" height="3.1"/>
	<rect y="17.1" fill="#7ED3F7" width="3.1" height="3.1"/>
	<g>
		<path fill="#2D4668" d="M34.8,17.2c-2,0-3.1-1.5-3.1-3.6c0-2,1.1-3.6,3.1-3.6c2,0,3.1,1.5,3.1,3.6C37.9,15.7,36.8,17.2,34.8,17.2z
			 M34.8,11.5c-0.9,0-1.4,0.8-1.4,2.2c0,1.4,0.5,2.2,1.4,2.2c0.9,0,1.4-0.8,1.4-2.2C36.2,12.3,35.7,11.5,34.8,11.5z"/>
		<path fill="#2D4668" d="M42.3,17.2c-2.2,0-3.4-1.3-3.4-3.5c0-2.1,1.1-3.5,3.2-3.5c0.4,0,0.8,0.1,1,0.1V7.1h1.7v9.6
			C44.3,17,43.3,17.2,42.3,17.2z M43,11.6c-0.1-0.1-0.5-0.1-0.8-0.1c-1.1,0-1.6,0.9-1.6,2.2c0,1.4,0.6,2.2,1.6,2.2
			c0.3,0,0.7-0.1,0.8-0.1V11.6z"/>
		<path fill="#2D4668" d="M49.2,17.2c-1.9,0-2.9-0.8-2.9-2.5v-4.4H48v4.5c0,0.7,0.4,1.1,1.2,1.1c0.4,0,0.8-0.1,1-0.2v-5.4h1.7v6.5
			C51.3,17,50.2,17.2,49.2,17.2z"/>
		<path fill="#2D4668" d="M53.4,17.1V7.1h1.7v9.9H53.4z"/>
		<path fill="#2D4668" d="M59.5,17.2c-0.8,0-1.5-0.2-2-0.5V7.1h0.7v3.3c0.4-0.2,1-0.3,1.5-0.3c1.8,0,2.9,1.3,2.9,3.4
			C62.7,16.1,61.3,17.2,59.5,17.2z M59.6,10.8c-0.5,0-1.1,0.1-1.5,0.3v5.2c0.3,0.1,0.8,0.3,1.3,0.3c1.3,0,2.4-0.8,2.4-3
			C61.9,11.8,61,10.8,59.6,10.8z"/>
		<path fill="#2D4668" d="M66.6,17.2c-1.8,0-2.7-0.8-2.7-2c0-2,2.2-2.2,4.2-2.4v-0.6c0-1.2-0.8-1.5-1.8-1.5c-0.6,0-1.4,0.2-1.8,0.4
			l-0.2-0.6c0.5-0.2,1.3-0.5,2.1-0.5c1.4,0,2.5,0.6,2.5,2.1v4.5C68.4,17,67.5,17.2,66.6,17.2z M68.2,13.4c-1.6,0.1-3.5,0.2-3.5,1.8
			c0,0.9,0.6,1.5,2,1.5c0.6,0,1.3-0.1,1.6-0.3V13.4z"/>
		<path fill="#2D4668" d="M75.1,17.1v-4.7c0-1-0.6-1.7-1.9-1.7c-0.7,0-1.3,0.1-1.7,0.3v6h-0.7v-6.5c0.6-0.3,1.5-0.5,2.4-0.5
			c1.7,0,2.6,0.8,2.6,2.3v4.7H75.1z"/>
		<path fill="#2D4668" d="M82,17.1l-3.4-3.5h0v3.5h-0.7V7.1h0.7v6.3h0l3.3-3.2h0.9l-3.3,3.2l3.5,3.6H82z"/>
		<path fill="#2D4668" d="M29.6,7.9h-1.3h-0.7l0,0c-1.8,6.5-1.8,6.5-1.8,6.5h0c0,0,0,0-1.9-6.5l0,0h-0.7h-1.3h-0.5v2.2v6.9h1h0.1
			h0.7V10c0,0,0,0,2,7.1l0,0h1.1l0,0c2-7.1,2-7.1,2-7.1v7.1H29h0.1h1v-6.8V7.9H29.6z"/>
	</g>
</g>
</svg>
