<?xml version="1.0" encoding="utf-8"?>
<!-- Generator: Adobe Illustrator 17.1.0, SVG Export Plug-In . SVG Version: 6.00 Build 0)  -->
<!DOCTYPE svg PUBLIC "-//W3C//DTD SVG 1.1//EN" "http://www.w3.org/Graphics/SVG/1.1/DTD/svg11.dtd">
<svg version="1.1" id="Слой_1" xmlns="http://www.w3.org/2000/svg" xmlns:xlink="http://www.w3.org/1999/xlink" x="0px" y="0px"
	 viewBox="0 0 83 25" enable-background="new 0 0 83 25" xml:space="preserve">
<g>
	<path fill="#555759" d="M48.1,10.4h4.8v1.1h-0.3c0,0-0.1-0.5-0.6-0.5h-0.8v4.9h-1.2v-4.9H49c-0.5,0-0.6,0.4-0.6,0.5h-0.3V10.4
		L48.1,10.4z"/>
	<path fill="#555759" d="M58,10.4h0.9v5.4h-1.2V12l-2.8,3.8H54v-4.4c0-0.6-0.5-0.7-0.5-0.7v-0.3h1.7v3.8L58,10.4L58,10.4z"/>
	<path fill="#555759" d="M33.1,15.8h-1.5l-1.1-2c0,0-0.3-0.6-0.7-0.6h-0.4v2.6h-1.2v-4.4c0-0.6-0.6-0.7-0.6-0.7v-0.3h1.8v2.3h0.5
		c0,0,0.3,0,0.6-0.5c0.9-1.5,0.8-1.8,1.2-1.8h1.2v0.4c-0.8,0-1,1.6-1.8,2.2c0.4,0.1,0.5,0.5,1.4,2c0,0,0.2,0.5,0.6,0.5V15.8
		L33.1,15.8z"/>
	<path fill="#555759" d="M65.2,14.7c-0.5,0.7-1.4,1.3-2.4,1.3c-1.4,0-2.8-1.1-2.8-2.6V13c0-1.6,1.3-2.7,2.8-2.7
		c1.6,0,2.8,1.3,2.8,2.8h-4.2V14c0,0.8,0.6,1.4,1.6,1.4c0.8,0,1.4-0.3,1.8-0.8L65.2,14.7L65.2,14.7z M61.4,12.6h2.8v-0.3
		c0-0.8-0.6-1.4-1.4-1.4c-0.8,0-1.4,0.6-1.4,1.4V12.6L61.4,12.6z"/>
	<path fill="#555759" d="M38.2,14c0,0.7-0.5,1.4-1.2,1.4h-0.1c-0.7,0-1.2-0.5-1.3-1V12c0.1-0.5,0.6-1.2,1.3-1.2h0.2
		c0,0,1.1,0.1,1.1,1.4V14L38.2,14z M37.1,10.3c-0.7,0-1.3,0.3-1.6,0.7v-0.6h-1.7v0.3c0,0,0.5,0.1,0.5,0.7v6.9h1.2v-3.1
		c0.5,0.6,1.3,0.7,1.5,0.7c1.5,0,2.6-1.2,2.6-2.7v-0.3C39.6,11.3,38.6,10.3,37.1,10.3"/>
	<path fill="#555759" d="M20.7,13.9c0,0.8-0.6,1.5-1.5,1.5c-0.9,0-1.5-0.7-1.5-1.5v-1.7c0-0.8,0.7-1.4,1.5-1.4
		c0.9,0,1.5,0.6,1.5,1.4V13.9L20.7,13.9z M19.2,10.3c-2,0-2.9,1.6-2.9,2.6v0.5c0,1.2,1.2,2.5,2.9,2.5c1.6,0,2.9-1.2,2.9-2.6V13
		C22.1,11.6,21,10.3,19.2,10.3"/>
	<path fill="#555759" d="M47.3,10.4h-1.7v0.3c0,0,0.6,0.1,0.6,0.7v4.4h1.2V10.4L47.3,10.4z"/>
	<path fill="#555759" d="M42.2,15.3V13h1c0.5,0,1,0.4,1,1.1v0.2c0,0.5-0.5,1-1,1H42.2L42.2,15.3z M42.2,12.5v-2.1h-1.7v0.3
		c0,0,0.5,0.1,0.5,0.7v4.4h2.7c1,0,1.8-0.6,1.8-1.5v-0.3c0-1-0.7-1.6-1.8-1.6H42.2L42.2,12.5z"/>
	<path fill="#555759" d="M22.3,10.4h4.8v1.1h-0.3c0,0-0.1-0.5-0.6-0.5h-0.8v4.9h-1.2v-4.9h-0.9c-0.5,0-0.6,0.4-0.6,0.5h-0.3V10.4
		L22.3,10.4z"/>
	<path fill="#00B3E3" d="M10.6,13.4c0,1.5-0.8,2.9-2.1,3.6l-0.3,0.1c-0.1,0-0.2,0.1-0.3,0.1c-0.2,0-0.4-0.1-0.5-0.2
		c-0.1-0.1-0.1-0.3-0.1-0.4c0-0.2,0.2-0.3,0.3-0.4c0.8-0.3,1.3-1.1,1.3-2V12c0-0.9-0.5-1.6-1.2-2c0,0-0.2-0.1-0.3-0.4
		c0-0.2,0-0.3,0.1-0.4C7.6,9.1,7.7,9,7.9,9C8,9,8.2,9,8.3,9c0,0,0.3,0.1,0.3,0.1c1.3,0.7,2.1,2.1,2.1,3.6V13.4L10.6,13.4z M5,16.2
		c0.1,0,0.2,0.1,0.3,0.4c0,0.2,0,0.3-0.1,0.4c-0.1,0.2-0.3,0.2-0.5,0.2c-0.1,0-0.2,0-0.3-0.1L4.1,17C2.9,16.4,2,15,2,13.4v-0.6
		c0-1.5,0.8-2.9,2.1-3.6c0,0,0.3-0.1,0.3-0.1C4.5,9,4.7,9,4.8,9C5,9,5.1,9.1,5.2,9.2c0.1,0.1,0.1,0.3,0.1,0.4C5.2,9.9,5,10,5,10
		c-0.8,0.3-1.2,1.1-1.2,2v2.3C3.8,15.1,4.2,15.9,5,16.2 M6.3,6.8C2.8,6.8,0,9.6,0,13.1c0,3.5,2.8,6.3,6.3,6.3c3.5,0,6.3-2.8,6.3-6.3
		C12.7,9.6,9.9,6.8,6.3,6.8"/>
	<path fill="#555759" d="M73.7,14.5H73v-2.7h1.4l0.1,0.3h-1.1v0.8h0.3c0.6,0,0.9,0.3,0.9,0.8C74.7,14.2,74.3,14.5,73.7,14.5
		 M73.7,13.2h-0.3v0.9h0.3c0.4,0,0.6-0.2,0.6-0.5C74.3,13.4,74.1,13.2,73.7,13.2"/>
	<path fill="#555759" d="M76.1,11.8h0.4l1,2.6l-0.4,0.1l-0.3-0.8h-1.1l-0.3,0.8h-0.4L76.1,11.8L76.1,11.8z M75.9,13.3h0.9l-0.4-1.1
		L75.9,13.3L75.9,13.3z"/>
	<polygon fill="#555759" points="79.8,14.5 79.8,13.2 78.5,13.2 78.5,14.5 78.1,14.5 78.1,11.8 78.5,11.8 78.5,12.9 79.8,12.9 
		79.8,11.8 80.2,11.8 80.2,14.5 79.8,14.5 	"/>
	<g>
		<polygon fill="#555759" points="82.4,11.8 81.3,13 81.3,11.8 81,11.8 81,14.5 81.3,14.5 81.3,13.1 82.6,14.5 83,14.4 81.7,13 
			82.9,11.8 82.4,11.8 		"/>
		<polygon fill="#555759" points="69.2,19.5 69.4,19.5 69.4,6.8 69.2,6.8 69.2,19.5 		"/>
	</g>
</g>
</svg>
