<?xml version="1.0" encoding="utf-8"?>
<!-- Generator: Adobe Illustrator 17.1.0, SVG Export Plug-In . SVG Version: 6.00 Build 0)  -->
<!DOCTYPE svg PUBLIC "-//W3C//DTD SVG 1.1//EN" "http://www.w3.org/Graphics/SVG/1.1/DTD/svg11.dtd">
<svg version="1.1" id="Слой_1" xmlns="http://www.w3.org/2000/svg" xmlns:xlink="http://www.w3.org/1999/xlink" x="0px" y="0px"
	 viewBox="0 0 83 25" enable-background="new 0 0 83 25" xml:space="preserve">
<g>
	<path fill="#0D4BA0" d="M9.6,11.2L9.6,11.2c0.3-0.1,0.6-0.3,0.6-0.9c0-0.7-0.5-1-1.3-1H7.7v1.6H6.9c-1,0-1.2,0.7-1.2,1.1
		c0,0.5,0.3,0.8,0.9,1.1c0.4,0.2,0.8,0.3,0.8,0.7c0,0.2-0.2,0.5-0.6,0.5H6c0.1-0.2,0.2-0.4,0.2-0.6c0-0.3-0.1-1.3-1.5-1.3H3.5v3.9
		h0.8v-1.7l0.3,0.3h2.1c1,0,1.5-0.5,1.5-1.1c0-0.2,0-0.4-0.1-0.5h0.8c1.2,0,1.5-0.6,1.5-1.1C10.4,11.7,10.1,11.3,9.6,11.2z
		 M4.6,14.3H4.3V13h0.4c0.5,0,0.7,0.3,0.7,0.6C5.3,13.9,5.1,14.3,4.6,14.3z M7.7,11.9v0.9c-0.2-0.1-0.4-0.2-0.6-0.3
		c-0.2-0.1-0.5-0.2-0.5-0.6c0-0.2,0.1-0.4,0.6-0.4h0.3h0.3H8L7.7,11.9z M8.4,10h0.4c0.6,0,0.6,0.4,0.6,0.5c0,0.2-0.1,0.5-0.6,0.5
		H8.4V10z M8.9,12.6H8.4v-1.1h0.4c0.5,0,0.7,0.3,0.7,0.5C9.6,12.4,9.4,12.6,8.9,12.6z"/>
	<path fill="#0D4BA0" d="M13.8,9.3c0-1.9-1.5-3.4-3.4-3.4H5.7c-1.5,0-2.8,1-3.2,2.5h5.7c2.2,0,3.1,1,3.1,3.4v5.4
		c1.4-0.4,2.5-1.7,2.5-3.2V9.3z"/>
	<path fill="#F26522" d="M0,16.4c0,1.9,1.5,3.4,3.4,3.4h4.7c1.5,0,2.8-1,3.2-2.5H5.6c-2.2,0-3.1-1-3.1-3.4V8.4C1,8.8,0,10.1,0,11.6
		V16.4z"/>
	<g>
		<polygon fill-rule="evenodd" clip-rule="evenodd" fill="#0D4BA0" points="73.1,16.3 73.1,11.3 74.6,11.3 74.6,13.1 76.2,13.1 
			76.2,11.3 77.6,11.3 77.6,16.3 76.2,16.3 76.2,14 74.6,14 74.6,16.3 73.1,16.3 		"/>
		<path fill-rule="evenodd" clip-rule="evenodd" fill="#0D4BA0" d="M71.1,15.5v-1.8c-0.6,0.1-1.5,0.2-1.5,1.1
			C69.6,15.8,70.7,15.6,71.1,15.5L71.1,15.5z M68.2,14.8c0-0.7,0.4-1.2,1-1.5c0.3-0.1,0.6-0.2,0.8-0.2c0.2,0,0.6-0.1,0.9-0.1v-0.2
			c0-0.7-0.4-0.9-0.9-0.9c-0.5,0-0.9,0.1-1.4,0.4l-0.1-0.9c0.6-0.2,1.2-0.3,1.8-0.3c0.4,0,0.7,0,1,0.1c0.5,0.2,0.8,0.6,0.9,1.1
			c0,0.1,0,0.3,0,0.5V16C71.2,16.5,68.2,16.8,68.2,14.8L68.2,14.8z"/>
		<path fill-rule="evenodd" clip-rule="evenodd" fill="#0D4BA0" d="M66.1,15.3c-0.1,0.2-0.3,0.3-0.6,0.3c-0.8,0-1-1.4-1-2
			c0-0.5,0.1-1,0.4-1.4c0.1-0.2,0.3-0.3,0.6-0.3c0.3,0,0.6,0.2,0.8,0.6c0.2,0.4,0.2,0.9,0.2,1.3C66.4,14.4,66.4,14.9,66.1,15.3
			L66.1,15.3z M67.8,12.6c-0.1-0.4-0.3-0.7-0.6-1c-0.5-0.5-2.2-0.9-3.1,0.4c0-1.3,0.6-2,1.7-2.2c1.1-0.2,1.7-0.3,1.7-0.3l-0.1-1.1
			c0,0-1.1,0.2-2.1,0.4c-1,0.2-2,1-2.2,2.5c-0.2,1-0.1,2.7,0.1,3.4c0.3,0.9,1,1.6,2.2,1.6c1.7,0,2.5-1,2.5-2.7
			C68,13.4,67.9,13,67.8,12.6L67.8,12.6z"/>
		<polygon fill-rule="evenodd" clip-rule="evenodd" fill="#0D4BA0" points="78.4,16.3 78.4,11.3 79.8,11.3 79.8,13.6 81.4,11.3 
			82.8,11.3 81.2,13.5 83,16.3 81.4,16.3 79.8,13.8 79.8,16.3 78.4,16.3 		"/>
		<path fill-rule="evenodd" clip-rule="evenodd" fill="#0D4BA0" d="M55.7,16.4c-0.5,0-0.9,0-1.4-0.2l0.1-0.9c0.3,0.2,0.7,0.3,1,0.3
			c0.7,0,1.1-0.3,1.1-0.8c0-0.2-0.1-0.4-0.2-0.5c-0.1-0.1-0.3-0.2-0.5-0.2c-0.2,0-0.3,0-0.5,0H55v-0.7h0.1c0.5,0,1.4,0,1.4-0.7
			c0-0.5-0.5-0.7-0.8-0.7c-0.5,0-0.8,0.1-1.2,0.3l-0.1-0.8c0.5-0.2,1.1-0.3,1.6-0.3c1.2,0,1.9,0.5,1.8,1.3c0,0.6-0.5,1-0.9,1.1
			c0.3,0.1,0.5,0.1,0.6,0.2c0.3,0.2,0.5,0.6,0.5,1c0,0.6-0.3,1.1-0.8,1.3C56.7,16.3,56.1,16.4,55.7,16.4L55.7,16.4z"/>
		<path fill-rule="evenodd" clip-rule="evenodd" fill="#0D4BA0" d="M42.8,16.4c-1.6,0-2.6-1-2.6-2.6c0-1.6,1-2.6,2.6-2.6
			c0.4,0,0.8,0.1,1.2,0.2l-0.2,0.9c-0.3-0.1-0.5-0.2-0.8-0.2c-1,0-1.4,0.8-1.4,1.7c0,0.9,0.4,1.8,1.4,1.8c0.3,0,0.5-0.1,0.8-0.2
			l0.1,0.9C43.6,16.3,43.3,16.4,42.8,16.4L42.8,16.4z"/>
		<path fill-rule="evenodd" clip-rule="evenodd" fill="#0D4BA0" d="M58.6,16.3v-5H60v1.6c0.3,0,0.5,0,0.6,0c0.7,0,1.1,0.1,1.4,0.3
			c0.4,0.3,0.6,0.7,0.6,1.3c0,1.6-1.7,1.9-2.6,1.9C59.1,16.4,58.6,16.3,58.6,16.3L58.6,16.3z M60,15.5c0,0,1.3,0.3,1.3-1
			c0-0.2,0-0.4-0.1-0.5c-0.1-0.3-0.5-0.3-0.8-0.3h-0.1h-0.1c0,0-0.1,0-0.1,0V15.5L60,15.5z"/>
		<path fill-rule="evenodd" clip-rule="evenodd" fill="#0D4BA0" d="M46.2,13.3V12c0,0,0.1,0,0.5,0c0.7,0,0.8,0.4,0.8,0.7
			c0,0.5-0.3,0.7-1,0.7H46.2L46.2,13.3z M46.5,14.1c0.1,0,0.3,0,0.5,0c0.2,0,0.3,0.1,0.5,0.2c0.1,0.1,0.2,0.3,0.2,0.5
			c0,0.5-0.5,0.7-1.1,0.7c-0.2,0-0.4,0-0.4,0v-1.4H46.5L46.5,14.1z M47.9,13.6c0.6-0.2,0.9-0.6,0.9-1.1c0-0.3-0.1-0.5-0.2-0.6
			c-0.1-0.2-0.3-0.3-0.5-0.4c-0.5-0.2-1.1-0.3-1.6-0.3c-1.1,0-1.7,0.1-1.7,0.1v5c0,0,0.7,0.1,1.7,0.1c1,0,2.5-0.3,2.6-1.5
			c0,0,0,0,0-0.1C49.1,14.2,48.7,13.7,47.9,13.6L47.9,13.6z"/>
		<path fill-rule="evenodd" clip-rule="evenodd" fill="#0D4BA0" d="M52.2,13.4h-0.4c-0.7,0-1-0.2-1-0.8c0-0.6,0.4-0.7,0.8-0.7
			c0.3,0,0.5,0,0.5,0V13.4L52.2,13.4z M51.9,11.1c-1.1,0-2.4,0.2-2.4,1.5c0,0.7,0.3,1.1,1,1.3l-1.3,2.3h1.5l1.1-2h0.4v2h1.4v-5
			C53.6,11.3,52.9,11.1,51.9,11.1L51.9,11.1z"/>
		<polygon fill-rule="evenodd" clip-rule="evenodd" fill="#0D4BA0" points="17.2,16.3 17.2,9.4 22.5,9.4 22.5,16.3 20.9,16.3 
			20.9,10.3 18.8,10.3 18.8,16.3 17.2,16.3 		"/>
		<path fill-rule="evenodd" clip-rule="evenodd" fill="#0D4BA0" d="M26.5,13.6c0-1.9-1.3-1.7-1.8-1.6v3.3
			C24.9,15.3,26.5,15.9,26.5,13.6L26.5,13.6z M23.3,18.3v-6.9c1.3-0.3,4.6-1,4.6,2.1c0,0.8-0.2,1.5-0.6,2c-0.8,1-2.1,0.9-2.6,0.7
			v2.1H23.3L23.3,18.3z"/>
		<path fill-rule="evenodd" clip-rule="evenodd" fill="#0D4BA0" d="M30.9,15.6c0.4,0,0.7-0.3,0.8-0.8c0.1-0.5,0.1-0.8,0.1-1.1
			c0-0.5-0.1-0.8-0.2-1.2c-0.1-0.4-0.5-0.6-0.7-0.6c-0.4,0-0.7,0.3-0.8,0.7c-0.1,0.4-0.2,0.8-0.2,1.1C29.9,14.3,30.1,15.6,30.9,15.6
			L30.9,15.6z M30.8,16.4c-1.6,0-2.4-1-2.4-2.6c0-1.6,0.8-2.6,2.5-2.6c0.6,0,1.1,0.1,1.4,0.4c0.4,0.3,0.6,0.6,0.7,1
			c0.1,0.4,0.2,0.8,0.2,1.2C33.3,15.4,32.6,16.4,30.8,16.4L30.8,16.4z"/>
		<polygon fill-rule="evenodd" clip-rule="evenodd" fill="#0D4BA0" points="33.6,16.3 34.1,11.3 35.8,11.3 36.8,14.7 37.8,11.3 
			39.4,11.3 39.9,16.3 38.6,16.3 38.3,12.7 37.2,16.3 36.1,16.3 35,12.6 34.7,16.3 33.6,16.3 		"/>
	</g>
</g>
</svg>
