<?xml version="1.0" encoding="utf-8"?>
<!-- Generator: Adobe Illustrator 17.1.0, SVG Export Plug-In . SVG Version: 6.00 Build 0)  -->
<!DOCTYPE svg PUBLIC "-//W3C//DTD SVG 1.1//EN" "http://www.w3.org/Graphics/SVG/1.1/DTD/svg11.dtd">
<svg version="1.1" id="Слой_1" xmlns="http://www.w3.org/2000/svg" xmlns:xlink="http://www.w3.org/1999/xlink" x="0px" y="0px"
	 viewBox="0 0 85 16" enable-background="new 0 0 85 16" xml:space="preserve">
<g>
	<g>
		<path fill="#05703C" d="M5.9,6.8l8.8-5.1c-0.3-0.3-0.4-0.4-0.7-0.6L5.9,5.8L2.2,3.6C2,3.9,1.9,4.1,1.7,4.4L5.9,6.8z"/>
		<path fill="#05703C" d="M5.9,4.7l7.3-4.2c-0.3-0.1-0.7-0.3-1-0.4L5.9,3.7L3.3,2.2C3.1,2.5,2.9,2.6,2.7,2.9L5.9,4.7z"/>
		<path fill="#05703C" d="M1,7.1c0-0.1,0-0.1,0-0.3C1,6.8,1,6.9,1,7.1z"/>
		<path fill="#05703C" d="M13.8,1.1C13.8,0.9,13.8,0.9,13.8,1.1C13.8,0.9,13.8,0.9,13.8,1.1z"/>
		<path fill="#05703C" d="M15.4,2.3C15.4,2.3,15.4,2.5,15.4,2.3L5.9,7.8L1.5,5.1C1.3,5.4,1.3,5.7,1.2,6l4.8,2.7l10-5.5
			C15.8,2.9,15.5,2.6,15.4,2.3L15.4,2.3z"/>
		<path fill="#05703C" d="M16.3,3.9L16.3,3.9L16.3,3.9l-10.4,6L1,7.1c0,0.1,0,0.4,0,0.7c0,4.5,3.6,8.1,8.1,8.1s8.1-3.6,8.1-8.1
			C17.3,6.4,17,5,16.3,3.9z"/>
	</g>
	<g>
		<polygon fill="#05703C" points="22.2,13.9 22.2,13.4 85,13.4 85,14.3 22.2,14.3 		"/>
		<g>
			<path fill="#05703C" d="M79.3,10.8c-0.1,0-0.1-0.1-0.1-0.2c0-0.1,0-0.2,0-0.4V9.5V4.3V3.6c0-0.1,0-0.3,0-0.4c0-0.1,0-0.2,0.1-0.2
				c0,0,0.1-0.1,0.2-0.1c0.1,0,0.1,0,0.2,0V2.6h-0.5h-1.8v0h-0.5v0.3c0,0,0.1,0,0.2,0c0.1,0,0.2,0.1,0.2,0.1c0,0,0.1,0.1,0.1,0.2
				c0,0.1,0,0.2,0,0.4v6.6c0,0.1,0,0.3,0,0.4c0,0.1,0,0.2-0.1,0.2c0,0-0.1,0.1-0.2,0.1c-0.1,0-0.1,0-0.2,0v0.3h2.8v-0.3
				c0,0-0.1,0-0.2,0C79.5,10.9,79.4,10.8,79.3,10.8 M84.1,10.3c-0.3-0.3-0.5-0.6-0.7-0.8c-0.3-0.3-0.5-0.6-0.7-0.8
				c-0.2-0.3-0.4-0.5-0.7-0.8c-0.2-0.3-0.4-0.5-0.6-0.8c-0.2-0.3-0.4-0.5-0.5-0.8L81,6.1c0.2-0.3,0.4-0.6,0.7-0.9
				c0.3-0.3,0.6-0.7,0.9-1c0.3-0.3,0.6-0.6,0.9-0.9c0.3-0.3,0.6-0.5,0.8-0.6v0h-2C82.2,2.8,82.1,3,82,3.3c-0.1,0.3-0.3,0.5-0.5,0.8
				c-0.2,0.3-0.4,0.6-0.6,0.9c-0.2,0.3-0.4,0.6-0.6,0.9c-0.2,0.3-0.4,0.5-0.5,0.8c-0.2,0.2-0.3,0.4-0.4,0.6c0.2,0.3,0.4,0.5,0.6,0.8
				c0.2,0.2,0.3,0.5,0.5,0.7c0.2,0.2,0.3,0.4,0.4,0.6c0.1,0.2,0.3,0.4,0.5,0.6c0.2,0.2,0.3,0.5,0.4,0.7c0.1,0.2,0.2,0.4,0.4,0.7
				l2.9,0C84.7,10.9,84.4,10.6,84.1,10.3 M61.9,7.5L63,4.1l1.2,3.5H61.9z M66.7,9.3l-2-5.6c-0.1-0.3-0.1-0.5-0.2-0.6
				c0-0.2-0.1-0.3-0.1-0.4H62v0.3c0,0,0.1,0,0.2,0c0.1,0,0.2,0.1,0.2,0.1c0,0,0.1,0.1,0.1,0.2c0,0.1,0,0.1,0,0.2
				c0,0.2,0,0.4-0.1,0.6L61,7.4C60.8,8,60.5,8.6,60.4,9c-0.2,0.4-0.3,0.8-0.5,1.1c-0.1,0.3-0.2,0.5-0.3,0.7
				c-0.1,0.2-0.2,0.3-0.3,0.4h1.6c0-0.2,0.1-0.6,0.2-1.1c0.1-0.5,0.3-1.2,0.6-2.1h2.7l0.4,1.1c0.2,0.5,0.3,0.9,0.4,1.2
				c0.1,0.3,0.2,0.6,0.2,0.8h2.2c-0.1-0.2-0.2-0.4-0.3-0.7C67,10.2,66.9,9.8,66.7,9.3 M75.4,2.6h-1.8v0h-0.5v0.3c0,0,0.1,0,0.2,0
				c0.1,0,0.2,0.1,0.2,0.1c0,0,0.1,0.1,0.1,0.2c0,0.1,0,0.2,0,0.4v2.7h-3.3v-1v0V3.6c0-0.1,0-0.3,0-0.4c0-0.1,0-0.2,0.1-0.2
				c0,0,0.1-0.1,0.2-0.1c0.1,0,0.1,0,0.2,0V2.6h-0.5h-1.8v0h-0.5v0.3c0,0,0.1,0,0.2,0c0.1,0,0.2,0.1,0.2,0.1c0,0,0.1,0.1,0.1,0.2
				c0,0.1,0,0.2,0,0.3v0.2c0,0,0,0,0,0v5.9c0,0,0,0,0,0v0.4c0,0.1,0,0.3,0,0.3c0,0.1,0,0.2-0.1,0.2c0,0-0.1,0.1-0.2,0.1
				c-0.1,0-0.1,0-0.2,0v0.3h2.8v-0.3c0,0-0.1,0-0.2,0c-0.1,0-0.2-0.1-0.2-0.1c0,0-0.1-0.1-0.1-0.2c0-0.1,0-0.2,0-0.4V8.5v0V6.9h3.3
				v3.3c0,0.1,0,0.3,0,0.4c0,0.1,0,0.2-0.1,0.2c0,0-0.1,0.1-0.2,0.1c-0.1,0-0.1,0-0.2,0v0.3h2.8v-0.3c0,0-0.1,0-0.2,0
				c-0.1,0-0.2-0.1-0.2-0.1c-0.1,0-0.1-0.1-0.1-0.2c0-0.1,0-0.2,0-0.4V8.5l0,0V5.3l0,0V3.6c0-0.1,0-0.3,0-0.4c0-0.1,0-0.2,0.1-0.2
				c0,0,0.1-0.1,0.2-0.1c0.1,0,0.1,0,0.2,0V2.6H75.4z M57.2,9.6c-0.1,0.3-0.2,0.5-0.4,0.7c-0.2,0.2-0.3,0.3-0.5,0.3
				c-0.2,0-0.4,0.1-0.6,0.1c-0.2,0-0.4,0-0.5,0c-0.1,0-0.2-0.1-0.3-0.1c-0.1-0.1-0.1-0.2-0.1-0.3c0-0.1,0-0.2,0-0.4V6.2h0.7
				c0.7,0,1.1,0.2,1.4,0.5c0.3,0.3,0.4,0.9,0.4,1.7C57.3,8.9,57.3,9.3,57.2,9.6 M58.4,6.3c-0.3-0.2-0.7-0.4-1.2-0.5
				c-0.5-0.1-1.1-0.1-1.8-0.1h-0.7v-2c0-0.2,0-0.4,0.1-0.4c0.1-0.1,0.3-0.1,0.6-0.1h1c0.3,0,0.6,0,0.8,0c0.2,0,0.4,0.1,0.5,0.2
				c0.1,0.1,0.2,0.2,0.3,0.4c0.1,0.2,0.2,0.4,0.2,0.7h0.5V2.6h-5.9v0h-0.5v0.3c0,0,0.1,0,0.2,0c0.1,0,0.2,0.1,0.2,0.1
				c0,0,0.1,0.1,0.1,0.2c0,0.1,0,0.2,0,0.4v1.7l0,0v3.1l0,0v1.7c0,0.1,0,0.3,0,0.4c0,0.1,0,0.2-0.1,0.2c0,0-0.1,0.1-0.2,0.1
				c-0.1,0-0.1,0-0.2,0v0.3h3.2c0.4,0,0.9,0,1.3-0.1c0.4,0,0.8-0.2,1.2-0.4c0.3-0.2,0.6-0.5,0.8-0.9c0.2-0.4,0.3-0.9,0.3-1.6
				c0-0.5-0.1-0.9-0.2-1.2C58.9,6.8,58.7,6.5,58.4,6.3 M49.4,6.7c-0.2,0.4-0.6,0.6-1.1,0.6h-0.9V3.6c0-0.1,0-0.2,0-0.2
				c0-0.1,0-0.1,0.1-0.1c0,0,0.1-0.1,0.2-0.1c0.1,0,0.2,0,0.4,0c0.2,0,0.4,0,0.6,0.1c0.2,0.1,0.4,0.2,0.5,0.3
				c0.1,0.1,0.3,0.3,0.3,0.6c0.1,0.2,0.1,0.5,0.1,0.9C49.7,5.7,49.6,6.3,49.4,6.7 M50.6,3c-0.3-0.2-0.6-0.3-1-0.3
				c-0.4,0-0.8-0.1-1.2-0.1h-2.9v0h-0.5v0.3c0,0,0.1,0,0.2,0c0.1,0,0.2,0.1,0.2,0.1c0,0,0.1,0.1,0.1,0.2c0,0.1,0,0.2,0,0.4v6.6
				c0,0.1,0,0.3,0,0.4c0,0.1,0,0.2-0.1,0.2c0,0-0.1,0.1-0.2,0.1c-0.1,0-0.1,0-0.2,0v0.3h2.8v-0.3c0,0-0.1,0-0.2,0
				c-0.1,0-0.2-0.1-0.2-0.1c0,0-0.1-0.1-0.1-0.2c0-0.1,0-0.2,0-0.4V7.8h0.9c0.4,0,0.9,0,1.3-0.1c0.4-0.1,0.8-0.2,1.1-0.4
				c0.3-0.2,0.6-0.5,0.7-0.8c0.2-0.4,0.3-0.8,0.3-1.4c0-0.6-0.1-1-0.3-1.3C51.2,3.4,50.9,3.2,50.6,3 M43.2,10
				c-0.1,0.2-0.1,0.3-0.3,0.4c-0.1,0.1-0.3,0.2-0.5,0.2c-0.2,0-0.5,0-0.9,0c-0.3,0-0.6,0-0.8,0c-0.2,0-0.3-0.1-0.4-0.1
				c-0.1-0.1-0.2-0.2-0.2-0.3c0-0.1,0-0.3,0-0.5V7h1.2c0.1,0,0.2,0,0.4,0c0.1,0,0.3,0,0.4,0c0.1,0,0.3,0,0.4,0.1
				c0.1,0,0.2,0.1,0.3,0.1V6.2c-0.1,0.1-0.2,0.1-0.3,0.1c-0.1,0-0.3,0.1-0.4,0.1c-0.1,0-0.3,0-0.4,0c-0.1,0-0.3,0-0.4,0h-1.2V3.6
				c0-0.2,0-0.3,0.1-0.4c0.1-0.1,0.2-0.1,0.3-0.1h0.9c0.3,0,0.6,0,0.8,0c0.2,0,0.4,0.1,0.5,0.2C42.9,3.5,43,3.6,43,3.8
				c0.1,0.2,0.2,0.4,0.2,0.7h0.5V2.6h-5.5v0h-0.5v0.3c0,0,0.1,0,0.2,0C38,3,38.1,3,38.2,3.1c0,0,0.1,0.1,0.1,0.2c0,0.1,0,0.2,0,0.4
				v6.6c0,0.1,0,0.3,0,0.4c0,0.1,0,0.2-0.1,0.2c-0.1,0-0.1,0.1-0.2,0.1c-0.1,0-0.1,0-0.2,0v0.3h6.2v-2h-0.6
				C43.3,9.5,43.3,9.8,43.2,10 M34.7,9.6c-0.1,0.3-0.2,0.5-0.4,0.7c-0.2,0.2-0.3,0.3-0.5,0.3c-0.2,0-0.4,0.1-0.6,0.1
				c-0.2,0-0.4,0-0.5,0c-0.1,0-0.2-0.1-0.3-0.1c-0.1-0.1-0.1-0.2-0.1-0.3c0-0.1,0-0.2,0-0.4V6.2H33c0.7,0,1.1,0.2,1.4,0.5
				c0.3,0.3,0.4,0.9,0.4,1.7C34.9,8.9,34.8,9.3,34.7,9.6 M35.9,6.3c-0.3-0.2-0.7-0.4-1.2-0.5c-0.5-0.1-1.1-0.1-1.8-0.1h-0.7v-2
				c0-0.2,0-0.4,0.1-0.4c0.1-0.1,0.3-0.1,0.6-0.1h1c0.3,0,0.6,0,0.8,0c0.2,0,0.4,0.1,0.5,0.2c0.1,0.1,0.2,0.2,0.3,0.4
				c0.1,0.2,0.2,0.4,0.2,0.7h0.5V2.6h-5.9v0H30v0.3c0,0,0.1,0,0.2,0c0.1,0,0.2,0.1,0.2,0.1c0,0,0.1,0.1,0.1,0.2c0,0.1,0,0.2,0,0.3
				v0.2c0,0,0,0,0,0v1.5l0,0v3.1l0,0v1.3c0,0,0,0,0,0v0.4c0,0.1,0,0.3,0,0.3c0,0.1,0,0.2-0.1,0.2c0,0-0.1,0.1-0.2,0.1
				c-0.1,0-0.1,0-0.2,0v0.3h3.2c0.4,0,0.9,0,1.3-0.1c0.4,0,0.8-0.2,1.2-0.4c0.3-0.2,0.6-0.5,0.8-0.9c0.2-0.4,0.3-0.9,0.3-1.6
				c0-0.5-0.1-0.9-0.2-1.2C36.5,6.8,36.2,6.5,35.9,6.3 M28.5,10.3c-0.1,0.1-0.3,0.1-0.5,0.2c-0.2,0-0.3,0.1-0.5,0.1
				c-0.2,0-0.4,0-0.7,0c-0.5,0-1-0.1-1.3-0.3c-0.3-0.2-0.6-0.5-0.8-0.8c-0.2-0.3-0.3-0.8-0.4-1.2c-0.1-0.5-0.1-1-0.1-1.5
				c0-0.4,0-0.9,0.1-1.3c0-0.4,0.1-0.8,0.3-1.2c0.2-0.3,0.4-0.6,0.7-0.9c0.3-0.2,0.7-0.3,1.2-0.3c0.5,0,0.9,0.1,1.2,0.4
				c0.4,0.3,0.6,0.7,0.6,1.2h0.5V2.9c-0.2-0.1-0.3-0.1-0.5-0.2c-0.2-0.1-0.4-0.1-0.7-0.1c-0.2,0-0.5-0.1-0.7-0.1c-0.2,0-0.4,0-0.6,0
				c-0.8,0-1.4,0.1-1.9,0.3c-0.5,0.2-1,0.5-1.3,0.9c-0.3,0.4-0.6,0.9-0.8,1.4c-0.2,0.6-0.2,1.2-0.2,1.9c0,0.7,0.1,1.3,0.2,1.8
				c0.2,0.5,0.4,1,0.7,1.4c0.3,0.4,0.8,0.7,1.3,0.9c0.5,0.2,1.1,0.3,1.8,0.3c0.4,0,0.7,0,1-0.1c0.3,0,0.6-0.1,0.8-0.2
				c0.2-0.1,0.5-0.2,0.6-0.3c0.2-0.1,0.4-0.2,0.5-0.3l-0.3-0.5C28.7,10.2,28.6,10.2,28.5,10.3"/>
		</g>
	</g>
</g>
</svg>
