<?xml version="1.0" encoding="utf-8"?>
<!-- Generator: Adobe Illustrator 17.1.0, SVG Export Plug-In . SVG Version: 6.00 Build 0)  -->
<!DOCTYPE svg PUBLIC "-//W3C//DTD SVG 1.1//EN" "http://www.w3.org/Graphics/SVG/1.1/DTD/svg11.dtd">
<svg version="1.1" id="Слой_1" xmlns="http://www.w3.org/2000/svg" xmlns:xlink="http://www.w3.org/1999/xlink" x="0px" y="0px"
	 viewBox="0 0 83 25" enable-background="new 0 0 83 25" xml:space="preserve">
<path fill-rule="evenodd" clip-rule="evenodd" fill="#1E3262" d="M18.9,13.2v-3c0,0,0-1.6-1.5-1.7c-0.5,0-1,0.3-1.1,0.6
	c-0.2-0.3-0.6-0.6-1.2-0.6c-1.5,0.1-1.5,1.7-1.5,1.7v3h0.3v-3c0,0,0-1.3,1.2-1.3c0.6,0,1,0.4,1,0.8v0.2c0,0.1,0,0.3,0,0.3v3h0.3v-3
	c0,0,0-0.2,0-0.3V9.7c-0.1-0.3,0.3-0.8,1-0.8c1.2,0,1.2,1.3,1.2,1.3v3H18.9z M12.9,13.2v-2.1v-0.6c0-0.3,0.1-0.3,0.1-0.6
	C13.1,9.2,13.6,8,15,8c0.8,0,1,0.2,1.3,0.4l0,0C16.6,8.1,16.7,8,17.6,8c1.4,0,1.9,1.2,1.9,1.9c0.1,0.3,0.1,0.3,0.1,0.6v0.6v2.1h-0.3
	v-2.8c0-0.2-0.1-0.3-0.1-0.3c-0.1-0.5-0.4-1.7-1.7-1.8c-0.8,0-1,0.3-1.3,0.5C16,8.5,15.8,8.2,15,8.2c-1.3,0.1-1.7,1.3-1.7,1.8
	c0,0.1,0,0.2,0,0.3v2.8H12.9z M3.1,18.7L5,20c1.7-0.6,3.6-1.1,5.2-2.3c0.8-0.6,1.1-1,1.5-1.4c0.3-0.4,0.5-0.9,0.6-1.4
	c0-0.6,0-1.3-0.3-2c-0.3-0.5-0.7-1.1-1.2-1.6c-0.7-0.8-1.6-1.3-2.6-1.7c-1-0.4-2.7-1.4-2.6-2.2c0.1-0.9,1.9-1.6,2.6-1.7
	C6.9,5.8,6.1,6.3,6.1,6.3S5,6.8,4.9,7.8c0,0.9,0.9,1.4,0.9,1.4s1.7,1.1,2.6,1.7c0.9,0.6,2.3,1.9,2.5,2.8c0.2,1,0,1.2-0.2,1.7
	c-0.9,1.5-4.2,2.6-4.5,2.7C6,18,4.1,18.5,3.1,18.7z M9.1,5.1c-0.4,0-1.8,0.1-3,0.5c-1.1,0.5-2,1.4-2,2.2c0,1.6,1.9,2.5,2.4,2.9
	c0.4,0.3,3.2,2.1,3,3.5c0,0.5-1,1.1-2.4,1.5c-2.9,0.7-7.1,1-7.1,1l2.6,1.8c1.1-0.2,2.9-0.5,4.2-1c1.8-0.7,3.8-1.7,3.9-3
	c-0.1-1-0.4-1.4-1.3-2.3c-0.8-0.8-3-2.2-3.2-2.3C5.9,9.6,4.6,8.9,4.6,7.9c0-1,0.7-1.5,1.4-1.8c0.5-0.3,2.3-0.8,3-0.9L9.1,5.1z
	 M16.7,13.2v-3c0,0,0-1,0.8-1c0.9,0,0.8,0.9,0.8,0.9v3H18v-3c0,0,0-0.6-0.5-0.6c-0.5,0-0.4,0.7-0.4,0.7v3H16.7z M14.2,13.2v-3
	c0,0,0-1,0.8-1c0.8,0,0.8,0.9,0.8,0.9v3h-0.3v-3c0,0-0.1-0.6-0.5-0.6c-0.5,0-0.5,0.7-0.5,0.7v3H14.2z M10.5,9V5.2h0.8
	c0,0,1.3,0.2,1.3,1.4c0,1.1-1.3,1.2-1.4,1.2V7.4c0.3,0,1,0,1.1-0.9c0-1-1-1-1-1h-0.5V9H10.5z M9.8,9V4.6h1.3c0.1,0,2.2,0.1,2.2,1.9
	c-0.1,1.9-2.1,2-2.1,2V8.1c0,0,1.7,0,1.7-1.6c0.1-1.7-1.8-1.7-1.8-1.7h-1V9H9.8z M9.1,3.9V9h0.3V4.2h1.7c0,0,2.5,0.1,2.5,2.3
	c0.1,2.2-2.3,2.3-2.4,2.3v0.3c0.2,0,2.9-0.3,2.8-2.7c0-2.4-3-2.7-3-2.6H9.1z"/>
<path fill-rule="evenodd" clip-rule="evenodd" fill="#1E3262" d="M70.3,12.9h3.8v0.3c-0.5,0.2-0.7,0.4-0.8,0.9v4.3
	c0,0.3,0,0.3,0.1,0.4c0,0.6,0.5,0.8,0.7,0.9V20h-3.8v-0.3c0.3-0.1,0.7-0.3,0.7-1.2v-2.8h-2v2.7c0,0.3,0,0.3,0,0.4
	c0.1,0.6,0.6,0.8,0.7,0.9V20H66v-0.3c0.3-0.1,0.6-0.3,0.6-1.2v-4.3c0-0.9-0.5-0.9-0.6-1v-0.3h3.7v0.3c-0.4,0.2-0.6,0.4-0.7,0.9v0.6
	h2v-0.5c0-0.9-0.5-0.9-0.7-1V12.9z M74.9,12.9h3.7v0.3c-0.4,0.2-0.7,0.4-0.7,0.9v1.3l1.6-1.7c0.3-0.2,0-0.4-0.2-0.5v-0.3h3v0.3
	c-0.2,0.1-0.5,0.1-1,0.3c-0.4,0.3-1,0.7-1.4,1c1,1.3,1.7,3,2.3,4.4c0.3,0.6,0.5,0.5,0.8,0.6V20h-3.6v-0.3c0.3-0.1,0.4-0.3,0.3-0.9
	c-0.1,0-0.2-0.1-0.2-0.3c-0.3-0.9-1.2-2.3-1.7-2.3c-0.1,0.2,0,0.1-0.1,0.2v1.9c0,0.3,0,0.3,0,0.4c0.1,0.6,0.6,0.8,0.7,0.9V20h-3.7
	v-0.3c0.3-0.1,0.6-0.3,0.6-1.2v-4.3c0-0.9-0.5-0.9-0.6-1V12.9z M46.8,16.5c0,0,0.3,0.2,0.5,0.2c0.2,0,1.6,0.2,1.8-0.3h0.3l-0.8,1.8
	c-0.2-0.1-0.1-0.1-0.5-0.2c-0.5-0.1-1.5,0-1.7,0.3l-0.3-0.1L46.8,16.5z M33.9,14.6v3.7c0,0,0,0.8-0.4,0.8h-1.6c0,0-0.8,0.2-0.7-0.5
	c0-0.7,0.3-2.4,0.8-3.2c0.5-0.8,1-1.5,1.5-1.5C33.9,13.9,33.9,14.6,33.9,14.6z M36.9,12.9h-5.4v0.3c0,0,0.4,0.2,0.3,0.4
	c0,0.3-1,0.7-1.4,1.8c-0.5,1.2-0.9,3-0.9,3s-0.1,0.8-0.7,0.8l-0.7,2.5h0.4c0,0,1-1.7,1.6-1.7c0.7-0.1,4.3,0,4.3,0s1,0,1.7,0.3
	c0.6,0.3,0.5,0.9,0.8,1.3h0.5l-0.6-2.5c0,0-0.1,0.3-0.4,0.2c-0.3-0.1-0.3-0.4-0.3-0.4v-4.3c0,0,0.1-0.9,0.3-1.1
	c0.2-0.1,0.4-0.3,0.5-0.3V12.9z M28.4,15.5l-0.6-2.7c0,0-0.4,0.3-0.9,0.2c-0.3,0-5.9-1.1-5.8,3.3c0,2.7,2.8,3.6,2.8,3.6
	c1.3,0.3,2.7,0.3,4.1,0.2l1-2.3l-0.3-0.2c0,0-0.8,1.7-2.6,1.4c-1.8-0.3-2.3-1.2-2.2-2.8c0.2-1.5,0.6-2.4,1.7-2.4
	c1.2-0.1,2.3,1,2.4,1.7C28.1,16.2,28.4,15.5,28.4,15.5z M37.2,12.9h3.9v0.3c-0.3,0.1-0.3,0.1-0.2,0.3l0.6,1.7l0.9-1.6
	c0.2-0.4-0.2-0.4-0.3-0.4v-0.3H46v0.3c-0.3,0.2-0.9,0.4-0.9,1.1v4.2c0,0.6,0.4,1,0.9,1.1V20h-3.8v-0.3c-0.1-0.1,0.6,0.3,0.6-1.1
	v-3.4l-2,3.5l-1.7-3.5v3.9c0,0.4,0.5,0.5,0.6,0.6V20h-2.4v-0.3c0.2-0.1,0.5-0.2,0.5-0.5c0.1-0.1,0.1-0.5,0.1-0.7v-4.1
	c0-1-0.3-1-0.6-1.2C37.2,13.2,37.2,13,37.2,12.9z M49.7,12.9h4c0.3,0,2.1,0.1,2.3-0.1l0.8,2.3h-0.4c-0.7-1.3-2.7-1.4-3.5-1.2
	l-0.1,1.4c1,0.2,4.5,0.3,4.5,2.6c0,1.7-1.8,2.1-3.6,2.1h-4.1v-0.3c0.6-0.2,0.8-0.4,0.8-1.2v-4.1c0-1-0.7-1-0.8-1.1V12.9z M52.7,18.4
	c0,0.8,0.2,0.9,0.8,0.9c0.8,0,1.4-0.5,1.4-1.5c0-0.9-1.6-2-2-1.4C52.6,16.7,52.8,18,52.7,18.4z M60,12.9h3.6v0.3
	c-0.2,0.1-0.4,0.4-0.3,0.6l1.7,4.4c0.3,0.9,0.7,1.5,1,1.4V20H62v-0.3c0.2,0,0.3-0.1,0.4-0.4c0.1,0,0.1-0.5,0.1-0.6
	c-0.3-0.6-0.6-1-1.7-1.2c-0.3,0-0.5,0.2-0.6,0.3c-0.2,0.3-0.3,0.7-0.5,1c-0.1,0.4,0.1,0.9,0.6,0.9V20h-3v-0.3c0.3,0,0.9-0.5,1.1-1.3
	l1.8-4.6c0.2-0.3,0.1-0.3-0.3-0.5V12.9z M60.8,16.5c0.3,0.1,0.9,0.2,1,0.3l-0.6-1.5C61.1,15.6,60.7,16.4,60.8,16.5z"/>
</svg>
