<?xml version="1.0" encoding="utf-8"?>
<!-- Generator: Adobe Illustrator 17.1.0, SVG Export Plug-In . SVG Version: 6.00 Build 0)  -->
<!DOCTYPE svg PUBLIC "-//W3C//DTD SVG 1.1//EN" "http://www.w3.org/Graphics/SVG/1.1/DTD/svg11.dtd">
<svg version="1.1" id="Слой_1" xmlns="http://www.w3.org/2000/svg" xmlns:xlink="http://www.w3.org/1999/xlink" x="0px" y="0px"
	 viewBox="0 0 83 25" enable-background="new 0 0 83 25" xml:space="preserve">
<g>
	<g>
		<path fill-rule="evenodd" clip-rule="evenodd" fill="#004786" d="M6.9,24.5c1.2-2.1,1.9-6.1,2.1-13.1h0.9c0.3,7,0.9,11,2.1,13.1
			c-0.8,0.3-1.7,0.4-2.6,0.4C8.6,24.9,7.7,24.8,6.9,24.5z M9.5,10.9c-4.1,0-7.6,2.8-7.6,6.5c0,1.2,0.4,2.3,1.1,3.4
			c2-1.8,3.7-5.2,4.3-9.2c0.1,0,0.7-0.2,1.1-0.2c0,0.6-0.5,9.1-3.5,12.1c-2.3-1.5-3.7-4-3.7-6.9c0-4,2.8-7.3,6.5-8.1
			c0.2-2.7,0.2-3.8,0.2-5.1h0.7c0,0,0,3.7,0,4.9c0.2,0,0.5,0,0.7-0.1c0-2.1,0-6.1,0-8.3h0.6c0,2.3,0,6.2,0,8.3c0.2,0,0.5,0,0.7,0.1
			c0-1.2,0-4.9,0-4.9h0.7c0,1.3,0,2.4,0.2,5.1c3.7,0.8,6.5,4.1,6.5,8.1c0,2.9-1.5,5.5-3.7,6.9c-3-3-3.5-11.5-3.5-12.1
			c0.5,0,1,0.2,1.1,0.2c0.7,4,2.4,7.3,4.3,9.2c0.7-1.1,1.1-2.3,1.1-3.4C17.1,13.7,13.6,10.9,9.5,10.9z"/>
		<path fill-rule="evenodd" clip-rule="evenodd" fill="#004786" d="M33.5,20.8h-2.7v-8.3l5.6,0c2.8,0,2.8,2.3,2.8,2.9
			c0,0.6,0,3.1-2.8,3.1h-2.9V20.8z M33.5,14.5v1.8h1.9c0.3,0,1.1,0,1.1-0.9c0-0.9-0.8-0.9-1.1-0.9H33.5z M37.8,20.8l3.5-8.3h3
			l2.9,6.9l2.9-6.9h3l3.5,8.3h-2.9l-2.1-6l-2.1,6H45l-0.6-1.7h-3l-0.7,1.7H37.8z M42.8,14.8L42.8,14.8L42,17.2h0.9h0.9L42.8,14.8z
			 M79,15.6c2.8,0,2.8,1.6,2.9,2.5c0,1,0,2.6-2.8,2.6h-5.5v-8.3h7.9v2.1h-5.2v1.1H79z M78.5,18.8c0.6,0,0.6-0.5,0.6-0.7
			c0-0.2,0-0.6-0.6-0.6h-2.3v1.3H78.5z M26.1,20.8h-2.9l1.3-2.4l-3.3-6h3l1.7,3.5l1.7-3.5h2.9L26.1,20.8z M63.3,20.8h-3.7
			c-2,0-3.6-1.7-3.6-4c0-2.7,1.6-4.3,3.7-4.3h3.7v2.1h-2.4c-1.5,0-2.2,0.4-2.2,2.2c0,1.7,0.8,2,2.2,2h2.4V20.8z M73,20.8h-2.7v-5.9
			l-3.2,5.9h-3.2v-8.3h2.7v5.7l3.1-5.7H73V20.8z"/>
	</g>
</g>
</svg>
