<?xml version="1.0" encoding="utf-8"?>
<!-- Generator: Adobe Illustrator 17.1.0, SVG Export Plug-In . SVG Version: 6.00 Build 0)  -->
<!DOCTYPE svg PUBLIC "-//W3C//DTD SVG 1.1//EN" "http://www.w3.org/Graphics/SVG/1.1/DTD/svg11.dtd">
<svg version="1.1" id="Слой_1" xmlns="http://www.w3.org/2000/svg" xmlns:xlink="http://www.w3.org/1999/xlink" x="0px" y="0px"
	 viewBox="0 0 83 25" enable-background="new 0 0 83 25" xml:space="preserve">
<path fill="#ED1C24" d="M5.6,0H4.3C3,0,1.9,1,1.9,2.9c0,1.1,0.5,2,1.5,2.4L1.7,8.4c-0.1,0.1,0,0.2,0.1,0.2h0.8c0.1,0,0.1,0,0.1-0.1
	l1.6-3.1h0.6v3.1c0,0,0,0.1,0.1,0.1h0.7c0.1,0,0.1,0,0.1-0.1V0.1C5.7,0,5.7,0,5.6,0z M4.9,4.7H4.4c-0.8,0-1.5-0.6-1.5-1.9
	c0-1.4,0.7-2,1.4-2h0.6V4.7z"/>
<path d="M9.9,2.9H9.2c-0.1,0-0.1,0-0.1,0.1v2.2H7.8V2.9c0-0.1,0-0.1-0.1-0.1H7c-0.1,0-0.1,0-0.1,0.1v5.6c0,0.1,0,0.1,0.1,0.1h0.7
	c0,0,0.1,0,0.1-0.1V5.8h1.3v2.7c0,0.1,0,0.1,0.1,0.1h0.7c0.1,0,0.1,0,0.1-0.1L9.9,2.9C10,2.9,10,2.9,9.9,2.9z"/>
<path d="M26.1,8.2L26,7.8c0,0,0,0-0.1,0c-0.1,0-0.4,0.1-0.8,0.1c-0.9,0-1.3-0.8-1.3-2.2c0-1.2,0.4-2.3,0.9-2.3c0.2,0,0.4,0,0.7,0.3
	c0,0,0.1,0,0.1,0c0,0,0.1,0,0.1-0.1l0.3-0.5c0,0,0-0.1,0-0.1c0,0,0-0.1-0.1-0.1c-0.5-0.2-0.8-0.3-1.1-0.3c-1.1,0-1.9,1.3-1.9,3.3
	c0,1.7,0.8,2.7,1.9,2.7c0.5,0,1-0.2,1.2-0.4C26.1,8.3,26.1,8.3,26.1,8.2z"/>
<path d="M21.1,5.4l1.4-2.5c0,0,0-0.1,0-0.1h-0.7c-0.2,0-0.3,0.1-0.3,0.2l-1,2.1c-0.1,0.1-0.1,0.2-0.2,0.2V2.9c0,0,0-0.1-0.1-0.1
	h-0.7c0,0-0.1,0-0.1,0.1v5.6c0,0,0,0.1,0.1,0.1h0.7c0,0,0.1,0,0.1-0.1V5.6c0,0,0.1,0.1,0.1,0.1l1.3,2.7c0.1,0.1,0.2,0.2,0.3,0.2h0.7
	c0,0,0.1,0,0-0.1L21.1,5.4z"/>
<path d="M14.6,7.9h-0.1c-0.2,0-0.2-0.1-0.2-0.2V2.9c0-0.1,0-0.1-0.1-0.1h-2.3c-0.1,0-0.1,0-0.1,0.1v0.4c0,1.4-0.1,3.2-0.8,4.5h-0.3
	c-0.1,0-0.1,0-0.1,0.1c0,0,0,1.4,0,1.7c0,0.1,0,0.1,0.1,0.1h0.5c0.1,0,0.2-0.1,0.2-0.2v-1h2.4v1c0,0,0,0.1,0.1,0.1h0.6
	c0.1,0,0.1-0.1,0.1-0.2L14.6,7.9C14.7,7.9,14.6,7.9,14.6,7.9z M13.3,7.9h-1.7c0.6-1,0.8-2.1,0.9-3.5c0-0.3,0-0.6,0-0.8h0.7V7.9z"/>
<path d="M16.9,2.7c-1.2,0-1.8,1.6-1.8,3.3c0,1.7,0.8,2.8,1.9,2.8c0.6,0,1.1-0.2,1.3-0.4c0,0,0.1-0.1,0-0.1l-0.1-0.4
	c0,0,0-0.1-0.1-0.1c0,0-0.4,0.1-0.8,0.1c-0.9,0-1.3-0.8-1.3-1.8c0-0.1,0-0.3,0-0.3s0.4,0.1,0.7,0.1h1.7V5.4
	C18.4,3.7,17.8,2.7,16.9,2.7z M16.8,5.2c-0.3,0-0.7,0-0.7,0s0-0.2,0-0.4c0.1-1,0.3-1.5,0.7-1.5c0.4,0,0.6,0.5,0.7,1.4
	c0,0.2,0,0.4,0,0.4H16.8z"/>
<path d="M22.7,22.9h1.9c1.7,0,3.2-1,3.2-3.4c0-2.3-1.4-3.1-3.3-3.1c-0.2,0-0.5,0-0.5,0v-3.5c0-0.1-0.1-0.1-0.1-0.1h-1.3
	c-0.1,0-0.1,0.1-0.1,0.1v9.8C22.5,22.9,22.6,22.9,22.7,22.9z M24,17.7h0.4c1.2,0,1.8,0.8,1.8,1.9c0,1.4-0.7,2.1-1.8,2.1H24V17.7z"/>
<path d="M20.5,12.8h-1.2c-0.1,0-0.2,0.1-0.2,0.1v3.9h-2.3v-3.9c0-0.1,0-0.1-0.1-0.1h-1.2c-0.1,0-0.2,0.1-0.2,0.1v9.8
	c0,0.1,0,0.2,0.1,0.2h1.3c0.1,0,0.1-0.1,0.1-0.2v-4.7h2.3v4.7c0,0.1,0.1,0.2,0.2,0.2h1.2c0.1,0,0.1-0.1,0.1-0.2v-9.8
	C20.7,12.9,20.6,12.8,20.5,12.8z"/>
<g>
	<path d="M7,21.7H6.7c-0.3,0-0.4-0.1-0.4-0.4v-8.3c0-0.1,0-0.1-0.1-0.1h-4c-0.1,0-0.2,0.1-0.2,0.1v0.7c0,2.4-0.1,5.6-1.4,8H0.2
		C0,21.7,0,21.7,0,21.8c0,0,0,2.4,0,2.9c0,0.1,0.1,0.1,0.1,0.1h1c0.2,0,0.3-0.2,0.3-0.3v-1.7h4.3v1.8c0,0.1,0.1,0.1,0.1,0.1h1
		c0.1,0,0.2-0.1,0.2-0.3v-2.8C7.1,21.7,7.1,21.7,7,21.7z M4.8,21.7H1.9c1-1.8,1.4-3.7,1.6-6.2c0-0.5,0.1-1.1,0.1-1.4h1.3V21.7z"/>
	<path d="M11.1,12.6c-2.2,0-3.1,2.7-3.1,5.7c0,3.1,1.4,4.9,3.4,4.9c1,0,1.9-0.4,2.3-0.7c0.1,0,0.1-0.1,0.1-0.2l-0.2-0.7
		c0-0.1-0.1-0.1-0.2-0.1c-0.1,0-0.7,0.2-1.5,0.2c-1.6,0-2.3-1.4-2.3-3.1c0-0.2,0-0.5,0-0.5s0.8,0.1,1.2,0.1h2.9v-0.8
		C13.8,14.2,12.7,12.6,11.1,12.6z M10.8,16.9c-0.5,0-1.2,0.1-1.2,0.1s0-0.3,0-0.6c0.2-1.7,0.6-2.6,1.3-2.6c0.6,0,1,0.9,1.1,2.4
		c0,0.3,0,0.7,0,0.7H10.8z"/>
</g>
<path d="M33.5,12.8h-4.2c-0.1,0-0.2,0.1-0.2,0.1v9.8c0,0.1,0,0.2,0.1,0.2h1.3c0.1,0,0.1-0.1,0.1-0.2v-8.7h2.8c0.1,0,0.1,0,0.1-0.1
	c0-0.1,0-1,0-1C33.6,12.9,33.6,12.8,33.5,12.8z"/>
<path d="M39.7,12.8h-1.2c-0.1,0-0.1,0-0.1,0.1c0,0-2.4,6.4-2.4,6.4l-0.2,0.5v-6.9c0-0.1,0-0.1-0.1-0.1h-1.2c-0.1,0-0.1,0.1-0.1,0.1
	v9.7c0,0.2,0,0.3,0.1,0.3h1.2c0.1,0,0.1,0,0.1-0.1c0,0,2.4-6.5,2.4-6.5l0.1-0.3v6.8c0,0.1,0.1,0.2,0.2,0.2h1.2
	c0.1,0,0.1-0.1,0.1-0.3c0,0,0-9.7,0-9.8C39.9,12.8,39.8,12.8,39.7,12.8z"/>
<path fill="#F47B20" d="M57.5,12.8h-0.8v5.1c0,0.9-0.4,1.4-1.5,1.7l-7.4,2.1c0,0-0.6,0.2-0.6-0.4c0-0.5,0.6-0.5,0.6-0.6l0,0l6.7-2.7
	c0.5-0.3,1-1,1-1.6v-8c0-1.3-1.2-0.8-1.5-0.7c-0.3,0.2-7.8,4.4-7.8,4.4c-0.5,0.3-1,1-1,1.6v8c0,0.6,0.8,1.3,1.3,1.3v0h11
	c0.7,0,1.2-0.5,1.2-1v-8.1C58.7,13.2,58.1,12.8,57.5,12.8z M52.2,12.2c0.5-0.3,1-0.2,1.1,0.2c0.1,0.5-0.2,1.1-0.7,1.4
	c-0.5,0.3-1,0.2-1.1-0.2C51.4,13.1,51.7,12.5,52.2,12.2z"/>
</svg>
